<svg width="56" height="57" viewBox="0 0 56 57" fill="none" xmlns="http://www.w3.org/2000/svg">
<path d="M37.3518 40.5572L51.6908 54.9343L52.0456 54.582C52.4654 55.0048 53.0788 55.1716 53.6548 55.0195C54.2308 54.8673 54.6819 54.4193 54.8382 53.8443L55.3206 53.9755C55.3206 53.9755 55.3207 53.9754 55.3207 53.9754C55.5238 53.2283 55.3127 52.4294 54.7671 51.8799L54.7663 51.8791L40.415 37.4894C43.555 33.6643 45.4622 28.7505 45.4622 23.4154C45.4622 11.1732 35.5379 1.24878 23.2956 1.24878C11.0533 1.24878 1.12891 11.1732 1.12891 23.4154C1.12891 35.6577 11.0533 45.5821 23.2956 45.5821C28.6409 45.5821 33.5241 43.7083 37.3518 40.5572ZM16.5234 39.8159L16.3321 40.2778L16.5234 39.8158C9.88899 37.0697 5.56269 30.5969 5.56224 23.4166C5.60717 13.6379 13.5185 5.71936 23.2972 5.66553C30.4774 5.65946 36.9541 9.97979 39.7064 16.6117C42.4589 23.2439 40.9443 30.8811 35.8691 35.961C30.7939 41.0407 23.1581 42.5624 16.5234 39.8159Z" fill="black" stroke="white"/>
</svg>
