<?xml version="1.0" encoding="utf-8"?>
<!-- Generator: Adobe Illustrator 23.0.6, SVG Export Plug-In . SVG Version: 6.00 Build 0)  -->
<svg version="1.1" id="Слой_1" xmlns="http://www.w3.org/2000/svg" xmlns:xlink="http://www.w3.org/1999/xlink" x="0px" y="0px"
	 width="21px" height="21px" viewBox="0 0 21 21" style="enable-background:new 0 0 21 21;" xml:space="preserve">
<style type="text/css">
	.st0{fill:#1CA4E4;}
	.st1{fill-rule:evenodd;clip-rule:evenodd;fill:#1CA4E4;}
</style>
<path class="st0" d="M12.6,5.1c0.2,0,0.4,0.1,0.5,0.2c0.3,0.3,0.3,0.7,0,1l-4,4l4,4c0.3,0.3,0.3,0.7,0,1s-0.7,0.3-1,0l-4.5-4.5
	c-0.1-0.1-0.2-0.3-0.2-0.5s0.1-0.4,0.2-0.5l4.5-4.5c0.1-0.1,0.2-0.1,0.3-0.2C12.4,5.1,12.5,5.1,12.6,5.1z"/>
<path class="st1" d="M0.7,10.3c0-5.5,4.5-10,10-10s10,4.5,10,10s-4.5,10-10,10S0.7,15.8,0.7,10.3z M2.2,10.3c0,4.7,3.9,8.6,8.6,8.6
	s8.6-3.9,8.6-8.6s-3.9-8.6-8.6-8.6C6,1.7,2.2,5.6,2.2,10.3z"/>
</svg>
