<?xml version="1.0" encoding="utf-8"?>
<!-- Generator: Adobe Illustrator 23.0.6, SVG Export Plug-In . SVG Version: 6.00 Build 0)  -->
<svg version="1.1" id="Слой_1" xmlns="http://www.w3.org/2000/svg" xmlns:xlink="http://www.w3.org/1999/xlink" x="0px" y="0px"
	 width="21px" height="21px" viewBox="0 0 21 21" style="enable-background:new 0 0 21 21;" xml:space="preserve">
<style type="text/css">
	.st0{fill:#1CA4E4;}
	.st1{fill-rule:evenodd;clip-rule:evenodd;fill:#1CA4E4;}
</style>
<path class="st0" d="M8.9,15.5c-0.2,0-0.4-0.1-0.5-0.2c-0.3-0.3-0.3-0.7,0-1l4-4l-4-4c-0.3-0.3-0.3-0.7,0-1c0.3-0.3,0.7-0.3,1,0
	L14,9.7c0.1,0.1,0.2,0.3,0.2,0.5c0,0.2-0.1,0.4-0.2,0.5l-4.5,4.5c-0.1,0.1-0.2,0.1-0.3,0.2C9.1,15.5,9,15.5,8.9,15.5z"/>
<path class="st1" d="M20.7,10.3c0,5.5-4.5,10-10,10c-5.5,0-10-4.5-10-10c0-5.5,4.5-10,10-10C16.3,0.3,20.7,4.8,20.7,10.3z
	 M19.3,10.3c0-4.7-3.9-8.6-8.6-8.6c-4.7,0-8.6,3.9-8.6,8.6c0,4.7,3.9,8.6,8.6,8.6C15.5,18.9,19.3,15,19.3,10.3z"/>
</svg>
