<svg width="97" height="97" viewBox="0 0 97 97" fill="none" xmlns="http://www.w3.org/2000/svg">
<circle cx="48.7422" cy="48.855" r="47.5" fill="white" stroke="#E9EFF2"/>
<path d="M17.7422 17.855H79.7422V79.855H17.7422V17.855Z" fill="white"/>
<path fill-rule="evenodd" clip-rule="evenodd" d="M48.7405 47.1328C55.3989 47.1328 60.796 41.7354 60.796 35.0773C60.796 28.4192 55.3989 23.0217 48.7405 23.0217C42.082 23.0217 36.6849 28.4192 36.6849 35.0773C36.6849 41.7354 42.082 47.1328 48.7405 47.1328ZM48.7489 50.5835C56.8706 50.5835 64.634 53.9259 70.2161 59.8256C70.8098 60.4678 71.1361 61.3113 71.1293 62.185V71.2439C71.1293 73.1462 69.5871 74.6884 67.6849 74.6884H29.796C27.8938 74.6884 26.3516 73.1462 26.3516 71.2439V62.185C26.3499 61.3089 26.6829 60.4652 27.2816 59.8256C32.8637 53.9259 40.6272 50.5835 48.7489 50.5835ZM29.796 62.1678V71.2439H67.6849V62.1678C62.752 56.9738 55.9035 54.0329 48.7405 54.0329C41.5774 54.0329 34.7289 56.9738 29.796 62.1678ZM57.3516 35.0773C57.3516 30.3215 53.4968 26.4662 48.7405 26.4662C43.9842 26.4662 40.1293 30.3215 40.1293 35.0773C40.1293 39.8331 43.9842 43.6884 48.7405 43.6884C53.4968 43.6884 57.3516 39.8331 57.3516 35.0773Z" fill="#E9EFF2"/>
</svg>
