<svg width="259" height="333" viewBox="0 0 259 333" fill="none" xmlns="http://www.w3.org/2000/svg">
<path d="M164.191 127.626H147.241L138.766 112.947L147.241 98.2676H164.191L172.666 112.947L164.191 127.626Z" fill="#693B23"/>
<path d="M163.22 95.2804H153.965L158.613 79.5054C162.395 78.9634 166.098 78.1724 169.703 77.1514L171.695 80.6014L163.22 95.2804Z" fill="#693B23"/>
<path d="M145.104 96.9385C143.125 96.9135 141.16 96.8334 139.207 96.7074L135.152 82.9404H137.022L145.104 96.9385Z" fill="#AB7D4D"/>
<path d="M153.968 95.2809H146.272L137.797 80.6019L146.272 65.9219H163.223L169.706 77.1519C166.101 78.1729 162.398 78.9639 158.616 79.5059L153.968 95.2809Z" fill="#AB7D4D"/>
<path d="M99.9855 129.354L171.778 5.0045C175.246 -1.0015 180.868 -1.0015 184.336 5.0045L256.129 129.354C259.596 135.36 256.785 140.229 249.849 140.229H106.264C99.3285 140.229 96.5175 135.36 99.9855 129.354Z" fill="#282826"/>
<path d="M99.986 129.353L100.419 129.603L172.211 5.254C173.895 2.346 176.02 0.998001 178.057 1C180.095 0.998001 182.219 2.346 183.903 5.254L255.696 129.603C256.67 131.291 257.114 132.858 257.114 134.21C257.109 135.862 256.474 137.195 255.265 138.166C254.054 139.135 252.229 139.729 249.849 139.728H106.264C103.885 139.729 102.06 139.135 100.849 138.167C99.64 137.195 99.006 135.862 99 134.21C99 132.858 99.444 131.291 100.419 129.603L99.986 129.353L99.553 129.103C98.511 130.907 98.001 132.639 98 134.21C97.995 136.127 98.782 137.802 100.225 138.948C101.667 140.097 103.724 140.728 106.264 140.728H249.849C252.39 140.728 254.447 140.097 255.889 138.948C257.332 137.802 258.119 136.127 258.114 134.21C258.113 132.639 257.603 130.907 256.562 129.103L184.769 4.754C182.985 1.657 180.564 0.001 178.057 0C175.55 0.001 173.129 1.657 171.345 4.754L99.553 129.103L99.986 129.353Z" fill="#FFCB68"/>
<path d="M112.467 121.705L172.782 17.2347C175.695 12.1887 180.419 12.1887 183.332 17.2347L243.648 121.705C246.56 126.751 244.198 130.841 238.373 130.841H117.742C111.915 130.841 109.553 126.751 112.467 121.705Z" fill="#FFC50A"/>
<path d="M185.441 29.7871C175.671 49.9121 165.902 70.0361 156.133 90.1611C163.642 87.2551 171.151 84.3491 178.661 81.4441C172.419 97.9091 166.177 114.375 159.935 130.84C171.989 111.361 184.042 91.8831 196.095 72.4041C188.752 72.7691 181.409 73.1341 174.067 73.4991C177.858 58.9281 181.649 44.3581 185.441 29.7871Z" fill="#363636"/>
<path d="M225.292 269.292H224.582V265.292L225.855 265.702C225.714 266.912 225.526 268.112 225.292 269.292ZM224.582 255.463V251.469L225.292 251.466C225.526 252.647 225.714 253.843 225.855 255.054L224.582 255.463Z" fill="#818182"/>
<path d="M224.079 86.5H0.5V331.881H224.079V86.5Z" fill="#4C5252"/>
<path d="M224.079 331.881V331.381H1V87H223.579V331.881H224.079V331.381V331.881H224.579V86H0V332.381H224.579V331.881H224.079Z" fill="#E0DBE1"/>
<path d="M212.796 98.8877H11.7891V319.502H212.796V98.8877Z" fill="#8DA5B6"/>
<path d="M146.637 235.595H143.736H141.319V231.243H138.612V235.595H136.194H133.293V238.202H136.194V249.7H143.736V238.202H146.637V235.595Z" fill="#F8B117"/>
<path d="M145.38 288.422H143.156V277.812H136.775V288.422H134.551V291.022H138.902V295.082H141.029V291.022H145.38V288.422Z" fill="#D62027"/>
<path d="M163.754 238.202V235.595H160.853H158.435V231.243H155.728V235.595H153.311H150.41V238.202H153.311V243.605H150.41V283.001H153.891V288.421H151.667V291.021H156.018V295.081H158.145V291.021H162.496V288.421H160.273V283.001H163.754V243.605H160.853V238.202H163.754Z" fill="#4C5252"/>
<path d="M181.419 235.735H178.518H176.101V231.383H173.393V235.735H170.976H168.074V238.342H170.976V249.84H178.518V238.342H181.419V235.735Z" fill="#3B7739"/>
<path d="M180.162 288.561H177.938V277.951H171.556V288.561H169.332V291.161H173.683V295.221H175.811V291.161H180.162V288.561Z" fill="#3F5CAA"/>
<path d="M181.419 243.744H168.074V283.141H181.419V243.744Z" fill="#4C5252"/>
<path d="M197.892 288.702H195.668V278.092H189.287V288.702H187.062V291.292H191.414V295.362H193.541V291.292H197.892V288.702Z" fill="#D62027"/>
<path d="M138.702 211.849V211.85L67.3689 211.849V181.1H64.8398V214.625H138.702V245.374H141.231V211.849H138.702Z" fill="#F8B117"/>
<path d="M146.636 243.605H133.293V283.001H146.636V243.605Z" fill="#4C5252"/>
<path d="M105.528 154.861C105.528 178.254 88.2498 197.217 66.9358 197.217C45.6218 197.217 28.3438 178.254 28.3438 154.861C28.3438 131.469 45.6218 112.506 66.9358 112.506C88.2498 112.506 105.528 131.469 105.528 154.861Z" fill="#4C5252"/>
<path d="M90.1487 131.963H43.7227V147.526H90.1487V131.963Z" fill="#C9CDCD"/>
<path d="M50.3739 139.774C50.3739 141.518 50.8629 142.509 51.6149 142.509C52.4609 142.509 52.8649 141.425 52.8649 139.713C52.8649 138.062 52.4799 136.978 51.6239 136.978C50.8999 136.978 50.3739 137.948 50.3739 139.774ZM53.6919 139.672C53.6919 141.952 52.9209 143.211 51.5679 143.211C50.3739 143.211 49.5649 141.983 49.5469 139.764C49.5469 137.515 50.4299 136.277 51.6709 136.277C52.9589 136.277 53.6919 137.535 53.6919 139.672Z" fill="#4C5252"/>
<path d="M55.1981 139.774C55.1981 141.518 55.6881 142.509 56.4401 142.509C57.2861 142.509 57.6901 141.425 57.6901 139.713C57.6901 138.062 57.3041 136.978 56.4491 136.978C55.7251 136.978 55.1981 137.948 55.1981 139.774ZM58.5171 139.672C58.5171 141.952 57.7461 143.211 56.3931 143.211C55.1981 143.211 54.3901 141.983 54.3711 139.764C54.3711 137.515 55.2551 136.277 56.4961 136.277C57.7841 136.277 58.5171 137.535 58.5171 139.672Z" fill="#4C5252"/>
<path d="M59.2773 143.097V142.54L59.9253 141.849C61.4863 140.218 62.1923 139.351 62.2013 138.34C62.2013 137.659 61.9003 137.03 60.9883 137.03C60.4333 137.03 59.9723 137.339 59.6903 137.597L59.4274 136.958C59.8504 136.565 60.4523 136.277 61.1573 136.277C62.4734 136.277 63.0284 137.267 63.0284 138.226C63.0284 139.465 62.2104 140.466 60.9223 141.828L60.4334 142.323V142.344H63.1794V143.097H59.2773Z" fill="#4C5252"/>
<path d="M66.6554 140.56V138.32C66.6554 137.97 66.6664 137.619 66.6844 137.268H66.6554C66.4684 137.66 66.3174 137.949 66.1494 138.259L64.6534 140.539V140.56H66.6554ZM66.6554 143.098V141.272H63.8164V140.673L66.5434 136.391H67.4374V140.56H68.2914V141.272H67.4374V143.098H66.6554Z" fill="#4C5252"/>
<path d="M69.8597 138C69.8597 138.67 70.3198 139.032 71.0248 139.238C71.5518 139.042 71.9558 138.629 71.9558 138.021C71.9558 137.484 71.6647 136.926 70.9207 136.926C70.2347 136.926 69.8597 137.422 69.8597 138ZM72.1348 141.353C72.1348 140.538 71.6178 140.146 70.7898 139.888C70.0758 140.115 69.6897 140.631 69.6897 141.271C69.6617 141.952 70.1317 142.55 70.9117 142.55C71.6557 142.55 72.1348 142.044 72.1348 141.353ZM68.8438 141.395C68.8438 140.548 69.3047 139.95 70.0567 139.599L70.0467 139.568C69.3697 139.217 69.0797 138.64 69.0797 138.062C69.0797 136.999 69.8978 136.277 70.9688 136.277C72.1528 136.277 72.7457 137.091 72.7457 137.928C72.7457 138.495 72.4917 139.104 71.7387 139.496V139.527C72.5007 139.857 72.9708 140.445 72.9708 141.26C72.9708 142.427 72.0597 143.211 70.8937 143.211C69.6147 143.211 68.8438 142.375 68.8438 141.395Z" fill="#4C5252"/>
<path d="M73.9359 142.055C74.1719 142.22 74.7169 142.478 75.2899 142.478C76.3529 142.478 76.6819 141.735 76.6719 141.178C76.6629 140.239 75.8919 139.837 75.0929 139.837H74.6329V139.156H75.0929C75.6939 139.156 76.4559 138.815 76.4559 138.021C76.4559 137.484 76.1459 137.009 75.3839 137.009C74.8959 137.009 74.4259 137.247 74.1629 137.453L73.9459 136.793C74.2659 136.535 74.8869 136.277 75.5439 136.277C76.7479 136.277 77.2929 137.061 77.2929 137.876C77.2929 138.567 76.9169 139.156 76.1639 139.455V139.475C76.9169 139.64 77.5279 140.26 77.5279 141.198C77.5279 142.272 76.7659 143.211 75.2999 143.211C74.6129 143.211 74.0119 142.973 73.7109 142.757L73.9359 142.055Z" fill="#4C5252"/>
<path d="M80.3582 137.237H80.3392L79.2762 137.867L79.1172 137.175L80.4522 136.391H81.1572V143.098H80.3582V137.237Z" fill="#4C5252"/>
<path d="M49.7038 156.887H48.8008V161.891H49.7038V156.887Z" fill="#696E70"/>
<path d="M66.3678 156.887H65.4648V161.891H66.3678V156.887Z" fill="#9A5635"/>
<path d="M64.8405 156.887H63.9375V161.891H64.8405V156.887Z" fill="#9A5635"/>
<path d="M63.3571 156.887H62.4531V161.891H63.3571V156.887Z" fill="#9A5635"/>
<path d="M61.7585 156.887H60.8555V161.891H61.7585V156.887Z" fill="#9A5635"/>
<path d="M60.2165 156.887H59.3125V161.891H60.2165V156.887Z" fill="#696E70"/>
<path d="M58.6725 156.887H57.7695V161.891H58.6725V156.887Z" fill="#696E70"/>
<path d="M57.2428 156.887H56.3398V161.891H57.2428V156.887Z" fill="#696E70"/>
<path d="M55.4108 156.887H54.5078V161.891H55.4108V156.887Z" fill="#696E70"/>
<path d="M53.4772 156.887H52.5742V161.891H53.4772V156.887Z" fill="#696E70"/>
<path d="M51.5446 156.887H50.6406V161.891H51.5446V156.887Z" fill="#696E70"/>
<path d="M67.822 156.887H66.918V161.891H67.822V156.887Z" fill="#9A5635"/>
<path d="M84.485 156.887H83.582V161.891H84.485V156.887Z" fill="#696E70"/>
<path d="M82.9538 156.887H82.0508V161.891H82.9538V156.887Z" fill="#696E70"/>
<path d="M81.4704 156.887H80.5664V161.891H81.4704V156.887Z" fill="#696E70"/>
<path d="M79.8757 156.887H78.9727V161.891H79.8757V156.887Z" fill="#696E70"/>
<path d="M78.3327 156.887H77.4297V161.891H78.3327V156.887Z" fill="#696E70"/>
<path d="M76.7897 156.887H75.8867V161.891H76.7897V156.887Z" fill="#696E70"/>
<path d="M75.361 156.887H74.457V161.891H75.361V156.887Z" fill="#696E70"/>
<path d="M73.528 156.887H72.625V161.891H73.528V156.887Z" fill="#696E70"/>
<path d="M71.5944 156.887H70.6914V161.891H71.5944V156.887Z" fill="#9A5635"/>
<path d="M69.6618 156.887H68.7578V161.891H69.6618V156.887Z" fill="#9A5635"/>
<path d="M92.7695 170.475H41.0974C40.0254 170.475 39.1484 169.598 39.1484 168.525V167.896C39.1484 166.824 40.0254 165.946 41.0974 165.946H92.7695C93.8415 165.946 94.7185 166.824 94.7185 167.896V168.525C94.7185 169.598 93.8415 170.475 92.7695 170.475Z" fill="#C9CDCD"/>
<path d="M80.4087 170.475H53.4617C52.3887 170.475 51.5117 169.598 51.5117 168.525V167.896C51.5117 166.824 52.3887 165.946 53.4617 165.946H80.4087C81.4807 165.946 82.3577 166.824 82.3577 167.896V168.525C82.3577 169.598 81.4807 170.475 80.4087 170.475Z" fill="#F15D22"/>
<path d="M101.764 154.861H101.389C101.389 165.324 97.5245 174.791 91.2855 181.639C85.0445 188.486 76.4395 192.712 66.9345 192.712C57.4295 192.712 48.8245 188.486 42.5835 181.639C36.3445 174.791 32.4805 165.324 32.4805 154.861C32.4805 144.398 36.3445 134.931 42.5835 128.084C48.8245 121.236 57.4295 117.011 66.9345 117.01C76.4395 117.011 85.0445 121.236 91.2855 128.084C97.5245 134.931 101.389 144.398 101.389 154.861H102.139C102.139 144.213 98.2065 134.566 91.8395 127.579C85.4745 120.591 76.6655 116.26 66.9345 116.26C57.2035 116.26 48.3945 120.591 42.0295 127.579C35.6625 134.566 31.7305 144.213 31.7305 154.861C31.7305 165.51 35.6625 175.156 42.0295 182.144C48.3945 189.131 57.2035 193.463 66.9345 193.462C76.6655 193.463 85.4745 189.131 91.8395 182.144C98.2065 175.156 102.139 165.51 102.139 154.861H101.764Z" fill="#A0A8B1"/>
<path d="M191.173 202.302V202.303L141.003 202.302V171.552H139.312V205.077L191.173 205.078V235.826H193.702V202.302H191.173Z" fill="#D62027"/>
<path d="M199.149 235.873H196.248H193.831V231.521H191.123V235.873H188.706H185.805V238.48H188.706V249.979H196.248V238.48H199.149V235.873Z" fill="#F8B117"/>
<path d="M199.149 243.884H185.805V283.272H199.149V243.884Z" fill="#4C5252"/>
<path d="M168.96 224.298H97.6267V255.048H95.0977V221.523L168.96 221.522V190.774H171.489V224.298H168.96Z" fill="#4F7F3A"/>
<path d="M105.528 261.137C105.528 284.531 88.2498 303.491 66.9358 303.491C45.6218 303.491 28.3438 284.531 28.3438 261.137C28.3438 237.745 45.6218 218.781 66.9358 218.781C88.2498 218.781 105.528 237.745 105.528 261.137Z" fill="#4C5252"/>
<path d="M90.1487 238.239H43.7227V253.802H90.1487V238.239Z" fill="#C9CDCD"/>
<path d="M50.3739 246.052C50.3739 247.796 50.8629 248.787 51.6149 248.787C52.4609 248.787 52.8649 247.703 52.8649 245.991C52.8649 244.34 52.4799 243.256 51.6239 243.256C50.8999 243.256 50.3739 244.226 50.3739 246.052ZM53.6919 245.949C53.6919 248.229 52.9209 249.488 51.5679 249.488C50.3739 249.488 49.5649 248.261 49.5469 246.042C49.5469 243.792 50.4299 242.554 51.6709 242.554C52.9589 242.554 53.6919 243.813 53.6919 245.949Z" fill="#4C5252"/>
<path d="M55.1981 246.052C55.1981 247.796 55.6881 248.787 56.4401 248.787C57.2861 248.787 57.6901 247.703 57.6901 245.991C57.6901 244.34 57.3041 243.256 56.4491 243.256C55.7251 243.256 55.1981 244.226 55.1981 246.052ZM58.5171 245.949C58.5171 248.229 57.7461 249.488 56.3931 249.488C55.1981 249.488 54.3901 248.261 54.3711 246.042C54.3711 243.792 55.2551 242.554 56.4961 242.554C57.7841 242.554 58.5171 243.813 58.5171 245.949Z" fill="#4C5252"/>
<path d="M59.2773 249.375V248.817L59.9253 248.126C61.4863 246.496 62.1923 245.629 62.2013 244.618C62.2013 243.937 61.9003 243.308 60.9883 243.308C60.4333 243.308 59.9723 243.617 59.6903 243.875L59.4274 243.235C59.8504 242.843 60.4523 242.554 61.1573 242.554C62.4734 242.554 63.0284 243.545 63.0284 244.504C63.0284 245.743 62.2104 246.743 60.9223 248.105L60.4334 248.601V248.621H63.1794V249.375H59.2773Z" fill="#4C5252"/>
<path d="M66.6554 246.836V244.597C66.6554 244.247 66.6664 243.896 66.6844 243.545H66.6554C66.4684 243.937 66.3174 244.226 66.1494 244.535L64.6534 246.816V246.836H66.6554ZM66.6554 249.375V247.549H63.8164V246.95L66.5434 242.668H67.4374V246.836H68.2914V247.549H67.4374V249.375H66.6554Z" fill="#4C5252"/>
<path d="M69.8597 244.277C69.8597 244.948 70.3198 245.309 71.0248 245.515C71.5518 245.32 71.9558 244.907 71.9558 244.298C71.9558 243.761 71.6647 243.204 70.9207 243.204C70.2347 243.204 69.8597 243.699 69.8597 244.277ZM72.1348 247.631C72.1348 246.816 71.6178 246.424 70.7898 246.166C70.0758 246.393 69.6908 246.908 69.6908 247.549C69.6618 248.229 70.1317 248.828 70.9117 248.828C71.6557 248.828 72.1348 248.322 72.1348 247.631ZM68.8438 247.672C68.8438 246.826 69.3047 246.228 70.0567 245.877L70.0467 245.846C69.3697 245.495 69.0797 244.917 69.0797 244.34C69.0797 243.276 69.8978 242.554 70.9688 242.554C72.1528 242.554 72.7457 243.369 72.7457 244.205C72.7457 244.773 72.4917 245.382 71.7387 245.773V245.805C72.5007 246.135 72.9708 246.723 72.9708 247.538C72.9708 248.704 72.0597 249.488 70.8937 249.488C69.6147 249.488 68.8438 248.652 68.8438 247.672Z" fill="#4C5252"/>
<path d="M73.9359 248.333C74.1719 248.498 74.7169 248.756 75.2909 248.756C76.3529 248.756 76.6819 248.013 76.6719 247.456C76.6629 246.517 75.8919 246.114 75.0929 246.114H74.6329V245.433H75.0929C75.6939 245.433 76.4559 245.092 76.4559 244.298C76.4559 243.761 76.1459 243.287 75.3839 243.287C74.8959 243.287 74.4259 243.524 74.1629 243.731L73.9459 243.07C74.2659 242.812 74.8869 242.554 75.5439 242.554C76.7479 242.554 77.2929 243.338 77.2929 244.154C77.2929 244.845 76.9169 245.433 76.1649 245.733V245.753C76.9169 245.918 77.5279 246.537 77.5279 247.476C77.5279 248.549 76.7659 249.488 75.2999 249.488C74.6129 249.488 74.0119 249.251 73.7109 249.035L73.9359 248.333Z" fill="#4C5252"/>
<path d="M80.3582 243.514H80.3392L79.2762 244.143L79.1172 243.452L80.4522 242.668H81.1572V249.375H80.3582V243.514Z" fill="#4C5252"/>
<path d="M49.7038 263.162H48.8008V268.171H49.7038V263.162Z" fill="#696E70"/>
<path d="M66.3678 263.162H65.4648V268.171H66.3678V263.162Z" fill="#9A5635"/>
<path d="M64.8405 263.162H63.9375V268.171H64.8405V263.162Z" fill="#9A5635"/>
<path d="M63.3571 263.162H62.4531V268.171H63.3571V263.162Z" fill="#9A5635"/>
<path d="M61.7585 263.162H60.8555V268.171H61.7585V263.162Z" fill="#9A5635"/>
<path d="M60.2165 263.162H59.3125V268.171H60.2165V263.162Z" fill="#696E70"/>
<path d="M58.6725 263.162H57.7695V268.171H58.6725V263.162Z" fill="#696E70"/>
<path d="M57.2428 263.162H56.3398V268.171H57.2428V263.162Z" fill="#696E70"/>
<path d="M55.4108 263.162H54.5078V268.171H55.4108V263.162Z" fill="#696E70"/>
<path d="M53.4772 263.162H52.5742V268.171H53.4772V263.162Z" fill="#696E70"/>
<path d="M51.5446 263.162H50.6406V268.171H51.5446V263.162Z" fill="#696E70"/>
<path d="M67.822 263.162H66.918V268.171H67.822V263.162Z" fill="#9A5635"/>
<path d="M84.485 263.162H83.582V268.171H84.485V263.162Z" fill="#696E70"/>
<path d="M82.9538 263.162H82.0508V268.171H82.9538V263.162Z" fill="#696E70"/>
<path d="M81.4704 263.162H80.5664V268.171H81.4704V263.162Z" fill="#696E70"/>
<path d="M79.8757 263.162H78.9727V268.171H79.8757V263.162Z" fill="#696E70"/>
<path d="M78.3337 263.162H77.4297V268.171H78.3337V263.162Z" fill="#696E70"/>
<path d="M76.7897 263.162H75.8867V268.171H76.7897V263.162Z" fill="#696E70"/>
<path d="M75.361 263.162H74.457V268.171H75.361V263.162Z" fill="#696E70"/>
<path d="M73.528 263.162H72.625V268.171H73.528V263.162Z" fill="#696E70"/>
<path d="M71.5944 263.162H70.6914V268.171H71.5944V263.162Z" fill="#9A5635"/>
<path d="M69.6618 263.162H68.7578V268.171H69.6618V263.162Z" fill="#9A5635"/>
<path d="M92.7695 276.752H41.0974C40.0254 276.752 39.1484 275.872 39.1484 274.802V274.172C39.1484 273.102 40.0254 272.222 41.0974 272.222H92.7695C93.8415 272.222 94.7185 273.102 94.7185 274.172V274.802C94.7185 275.872 93.8415 276.752 92.7695 276.752Z" fill="#C9CDCD"/>
<path d="M80.4087 276.752H53.4617C52.3887 276.752 51.5117 275.872 51.5117 274.802V274.172C51.5117 273.102 52.3887 272.222 53.4617 272.222H80.4087C81.4807 272.222 82.3577 273.102 82.3577 274.172V274.802C82.3577 275.872 81.4807 276.752 80.4087 276.752Z" fill="#F15D22"/>
<path d="M101.764 261.137H101.389C101.389 271.601 97.5245 281.071 91.2855 287.911C85.0445 294.761 76.4395 298.991 66.9345 298.991C57.4295 298.991 48.8245 294.761 42.5835 287.911C36.3445 281.071 32.4805 271.601 32.4805 261.137C32.4805 250.674 36.3445 241.207 42.5835 234.36C48.8245 227.512 57.4295 223.286 66.9345 223.286C76.4395 223.286 85.0445 227.512 91.2855 234.36C97.5245 241.207 101.389 250.674 101.389 261.137H102.139C102.139 250.488 98.2065 240.842 91.8395 233.854C85.4745 226.867 76.6655 222.535 66.9345 222.536C57.2035 222.535 48.3945 226.867 42.0295 233.854C35.6625 240.842 31.7305 250.488 31.7305 261.137C31.7305 271.781 35.6625 281.431 42.0295 288.421C48.3945 295.411 57.2035 299.741 66.9345 299.741C76.6655 299.741 85.4745 295.411 91.8395 288.421C98.2065 281.431 102.139 271.781 102.139 261.137H101.764Z" fill="#A0A8B1"/>
<path d="M196.239 154.861C196.239 178.254 178.96 197.217 157.646 197.217C136.333 197.217 119.055 178.254 119.055 154.861C119.055 131.469 136.333 112.506 157.646 112.506C178.96 112.506 196.239 131.469 196.239 154.861Z" fill="#4C5252"/>
<path d="M180.863 131.963H134.438V147.526H180.863V131.963Z" fill="#C9CDCD"/>
<path d="M141.089 139.774C141.089 141.518 141.579 142.509 142.33 142.509C143.177 142.509 143.581 141.425 143.581 139.713C143.581 138.062 143.195 136.978 142.339 136.978C141.615 136.978 141.089 137.948 141.089 139.774ZM144.408 139.672C144.408 141.952 143.637 143.211 142.283 143.211C141.089 143.211 140.28 141.983 140.262 139.764C140.262 137.515 141.145 136.277 142.386 136.277C143.674 136.277 144.408 137.535 144.408 139.672Z" fill="#4C5252"/>
<path d="M145.909 139.774C145.909 141.518 146.398 142.509 147.15 142.509C147.997 142.509 148.4 141.425 148.4 139.713C148.4 138.062 148.015 136.978 147.159 136.978C146.435 136.978 145.909 137.948 145.909 139.774ZM149.227 139.672C149.227 141.952 148.456 143.211 147.103 143.211C145.909 143.211 145.1 141.983 145.082 139.764C145.082 137.515 145.965 136.277 147.206 136.277C148.494 136.277 149.227 137.535 149.227 139.672Z" fill="#4C5252"/>
<path d="M149.988 143.097V142.54L150.637 141.849C152.197 140.218 152.903 139.351 152.912 138.34C152.912 137.659 152.611 137.03 151.7 137.03C151.145 137.03 150.684 137.339 150.401 137.597L150.138 136.958C150.561 136.565 151.163 136.277 151.869 136.277C153.184 136.277 153.739 137.267 153.739 138.226C153.739 139.465 152.921 140.466 151.633 141.828L151.145 142.323V142.344H153.89V143.097H149.988Z" fill="#4C5252"/>
<path d="M157.366 140.56V138.32C157.366 137.97 157.376 137.619 157.394 137.268H157.366C157.178 137.66 157.027 137.949 156.859 138.259L155.364 140.539V140.56H157.366ZM157.366 143.098V141.272H154.527V140.673L157.254 136.391H158.147V140.56H159.002V141.272H158.147V143.098H157.366Z" fill="#4C5252"/>
<path d="M160.571 138C160.571 138.67 161.031 139.032 161.737 139.238C162.263 139.042 162.666 138.629 162.666 138.021C162.666 137.484 162.376 136.926 161.633 136.926C160.947 136.926 160.571 137.422 160.571 138ZM162.847 141.353C162.847 140.538 162.329 140.146 161.501 139.888C160.787 140.115 160.402 140.631 160.402 141.271C160.373 141.952 160.844 142.55 161.624 142.55C162.367 142.55 162.847 142.044 162.847 141.353ZM159.555 141.395C159.555 140.548 160.016 139.95 160.768 139.599L160.759 139.568C160.082 139.217 159.791 138.64 159.791 138.062C159.791 136.999 160.609 136.277 161.681 136.277C162.864 136.277 163.457 137.091 163.457 137.928C163.457 138.495 163.203 139.104 162.451 139.496V139.527C163.213 139.857 163.683 140.445 163.683 141.26C163.683 142.427 162.771 143.211 161.605 143.211C160.326 143.211 159.555 142.375 159.555 141.395Z" fill="#4C5252"/>
<path d="M164.652 142.055C164.887 142.22 165.432 142.478 166.005 142.478C167.069 142.478 167.397 141.735 167.388 141.178C167.379 140.239 166.608 139.837 165.807 139.837H165.348V139.156H165.807C166.41 139.156 167.172 138.815 167.172 138.021C167.172 137.484 166.862 137.009 166.1 137.009C165.611 137.009 165.141 137.247 164.878 137.453L164.662 136.793C164.981 136.535 165.602 136.277 166.26 136.277C167.462 136.277 168.009 137.061 168.009 137.876C168.009 138.567 167.633 139.156 166.88 139.455V139.475C167.633 139.64 168.242 140.26 168.242 141.198C168.242 142.272 167.482 143.211 166.014 143.211C165.328 143.211 164.727 142.973 164.426 142.757L164.652 142.055Z" fill="#4C5252"/>
<path d="M171.07 137.237H171.05L169.987 137.867L169.828 137.175L171.163 136.391H171.868V143.098H171.07V137.237Z" fill="#4C5252"/>
<path d="M140.419 156.887H139.516V161.891H140.419V156.887Z" fill="#696E70"/>
<path d="M157.083 156.887H156.18V161.891H157.083V156.887Z" fill="#9A5635"/>
<path d="M155.552 156.887H154.648V161.891H155.552V156.887Z" fill="#9A5635"/>
<path d="M154.067 156.887H153.164V161.891H154.067V156.887Z" fill="#9A5635"/>
<path d="M152.474 156.887H151.57V161.891H152.474V156.887Z" fill="#9A5635"/>
<path d="M150.93 156.887H150.027V161.891H150.93V156.887Z" fill="#696E70"/>
<path d="M149.388 156.887H148.484V161.891H149.388V156.887Z" fill="#696E70"/>
<path d="M147.958 156.887H147.055V161.891H147.958V156.887Z" fill="#696E70"/>
<path d="M146.127 156.887H145.223V161.891H146.127V156.887Z" fill="#696E70"/>
<path d="M144.192 156.887H143.289V161.891H144.192V156.887Z" fill="#696E70"/>
<path d="M142.258 156.887H141.355V161.891H142.258V156.887Z" fill="#696E70"/>
<path d="M158.532 156.887H157.629V161.891H158.532V156.887Z" fill="#9A5635"/>
<path d="M175.197 156.887H174.293V161.891H175.197V156.887Z" fill="#696E70"/>
<path d="M173.669 156.887H172.766V161.891H173.669V156.887Z" fill="#696E70"/>
<path d="M172.184 156.887H171.281V161.891H172.184V156.887Z" fill="#696E70"/>
<path d="M170.592 156.887H169.688V161.891H170.592V156.887Z" fill="#696E70"/>
<path d="M169.045 156.887H168.141V161.891H169.045V156.887Z" fill="#696E70"/>
<path d="M167.501 156.887H166.598V161.891H167.501V156.887Z" fill="#696E70"/>
<path d="M166.074 156.887H165.172V161.891H166.074V156.887Z" fill="#696E70"/>
<path d="M164.242 156.887H163.34V161.891H164.242V156.887Z" fill="#696E70"/>
<path d="M162.309 156.887H161.406V161.891H162.309V156.887Z" fill="#9A5635"/>
<path d="M160.376 156.887H159.473V161.891H160.376V156.887Z" fill="#9A5635"/>
<path d="M183.484 170.475H131.813C130.741 170.475 129.863 169.598 129.863 168.525V167.896C129.863 166.824 130.741 165.946 131.813 165.946H183.484C184.557 165.946 185.434 166.824 185.434 167.896V168.525C185.434 169.598 184.557 170.475 183.484 170.475Z" fill="#C9CDCD"/>
<path d="M171.12 170.475H144.173C143.101 170.475 142.223 169.598 142.223 168.525V167.896C142.223 166.824 143.101 165.946 144.173 165.946H171.12C172.192 165.946 173.07 166.824 173.07 167.896V168.525C173.07 169.598 172.192 170.475 171.12 170.475Z" fill="#F15D22"/>
<path d="M192.479 154.861H192.104C192.104 165.324 188.24 174.791 182 181.639C175.76 188.486 167.154 192.712 157.65 192.712C148.145 192.712 139.539 188.486 133.299 181.639C127.06 174.791 123.195 165.324 123.195 154.861C123.195 144.398 127.06 134.931 133.299 128.084C139.539 121.236 148.145 117.011 157.65 117.01C167.154 117.011 175.76 121.236 182 128.084C188.24 134.931 192.104 144.398 192.104 154.861H192.854C192.854 144.213 188.921 134.566 182.555 127.579C176.19 120.591 167.38 116.26 157.65 116.26C147.918 116.26 139.11 120.591 132.744 127.579C126.378 134.566 122.445 144.213 122.445 154.861C122.445 165.51 126.378 175.156 132.744 182.144C139.11 189.131 147.918 193.463 157.65 193.462C167.38 193.463 176.19 189.131 182.555 182.144C188.921 175.156 192.854 165.51 192.854 154.861H192.479Z" fill="#A0A8B1"/>
</svg>
