<svg width="245" height="241" viewBox="0 0 245 241" fill="none" xmlns="http://www.w3.org/2000/svg">
<g clip-path="url(#clip0)">
<path d="M162.1 271.872C157.271 271.872 152.604 270.504 148.596 268.052C148.323 268.093 148.042 268.116 147.751 268.128L134.182 268.441C134.116 268.493 134.052 268.545 133.981 268.597C133.447 268.957 132.788 269.171 132.045 269.189L120.529 269.519H120.469C119.966 269.519 119.454 269.339 118.984 269.032C118.169 268.499 117.479 267.571 117.175 266.517L116.089 262.749C116.46 264.036 115.852 264.72 114.951 264.72C114.653 264.72 114.322 264.644 113.984 264.494C113.041 264.059 112.253 263.08 112.002 262.21L111.531 260.576L112.5 260.605C113.05 259.156 113.533 257.672 113.943 256.159L112.438 255.128C112.604 255.058 112.772 255.017 112.936 255.017C113.474 255.017 113.976 255.417 114.233 256.31L113.148 252.542C112.914 251.731 112.914 250.867 113.108 250.108C113.134 250.247 113.167 250.386 113.206 250.526L117.07 263.932C117.081 263.972 117.092 264.007 117.105 264.048C117.108 264.059 117.112 264.065 117.115 264.076C117.12 264.094 117.125 264.111 117.13 264.123C117.64 265.624 118.954 266.806 120.215 266.812H120.287L131.336 266.499C132.144 266.476 132.85 266.215 133.394 265.78L146.403 265.479C146.683 265.467 146.951 265.444 147.213 265.404C151.059 267.763 155.535 269.067 160.169 269.067C162.443 269.067 164.755 268.754 167.05 268.093C173.015 266.372 177.837 262.61 180.975 257.788C181.622 258.889 182.296 260.048 182.994 261.26C179.729 265.734 175.007 269.2 169.273 270.852C166.881 271.542 164.471 271.872 162.1 271.872ZM183.029 261.213C182.346 259.956 181.703 258.756 181.093 257.602C181.82 256.461 182.455 255.267 182.988 254.02C182.929 254.438 182.875 254.855 182.825 255.278L185.858 256.252C185.1 258.002 184.152 259.666 183.029 261.213ZM187.425 251.331L183.967 251.32C185.279 246.926 185.387 242.11 184.022 237.375C183.112 234.216 181.627 231.376 179.717 228.941C180.106 228.715 180.508 228.478 180.921 228.234C183.668 231.138 185.781 234.726 186.965 238.835C187.059 239.16 187.147 239.49 187.227 239.815C187.177 239.925 187.127 240.029 187.077 240.139L187.35 240.336C188.189 244.057 188.173 247.796 187.425 251.331ZM179.116 228.205C177.374 226.148 175.319 224.409 173.047 223.03C173.207 222.954 173.368 222.873 173.535 222.792C176.015 224.015 178.297 225.626 180.28 227.579C179.88 227.794 179.49 228.002 179.116 228.205ZM172.534 222.728C171.709 222.253 170.856 221.83 169.981 221.453L170.007 221.36C170.995 221.679 171.962 222.056 172.902 222.491C172.776 222.572 172.654 222.647 172.534 222.728Z" fill="#2B4179"/>
<path d="M185.857 256.253L182.824 255.279C182.873 254.856 182.927 254.439 182.987 254.021C183.364 253.146 183.691 252.242 183.965 251.32L187.424 251.332C187.066 253.03 186.539 254.676 185.857 256.253ZM187.349 240.337L187.076 240.14C187.125 240.03 187.176 239.926 187.226 239.815C187.269 239.989 187.31 240.163 187.349 240.337Z" fill="#374C7E"/>
<path d="M169.983 221.453C169.686 221.326 169.387 221.204 169.086 221.088C169.395 221.175 169.703 221.262 170.009 221.36L169.983 221.453Z" fill="#374C7E"/>
<path d="M210.364 127.675H206.44V121.501C207.547 123.693 208.863 125.76 210.364 127.675ZM223.549 123.992C218.061 119.428 214.566 112.547 214.566 104.85C214.566 101.196 215.354 97.7276 216.768 94.6024H223.822C224.616 91.4407 226.146 88.2652 228.563 85.2785C229.264 84.4427 229.884 83.5983 230.365 82.788C230.678 82.3765 230.934 81.9116 231.113 81.3998C231.959 81.0973 232.835 80.8394 233.721 80.6301C233.681 80.8805 233.611 81.1304 233.53 81.3778C233.345 81.8983 233.09 82.3707 232.771 82.788C232.29 83.5983 231.67 84.4427 230.974 85.2785C229.177 87.492 227.879 89.8098 226.998 92.1485C227.96 93.0491 228.563 94.3254 228.563 95.7454V98.5419C228.563 99.8298 228.065 100.998 227.259 101.877H228.163L223.689 110.125H223.549V123.992ZM202.516 103.143L201.826 101.876H202.591C202.562 102.297 202.533 102.719 202.516 103.143ZM202.62 101.537C201.983 100.706 201.606 99.6698 201.606 98.5419V96.274L203.229 97.3874C202.951 98.7448 202.748 100.129 202.62 101.537ZM209.135 83.6846C208.752 81.9928 208.213 80.2998 207.518 78.6207L210.312 79.5869C210.532 80.1711 210.729 80.7571 210.914 81.3436C210.294 82.0994 209.697 82.8801 209.135 83.6846ZM221.382 72.5947L220.709 72.3623L218.745 70.8466L222.321 72.0852C222.008 72.251 221.695 72.4208 221.382 72.5947ZM216.861 71.028L199.438 64.9973C199.288 64.944 199.131 64.8994 198.98 64.8617C199.369 64.7666 199.775 64.7168 200.186 64.7168C200.737 64.7168 201.299 64.8072 201.849 64.9973L217.696 70.4832C217.412 70.6617 217.133 70.8431 216.861 71.028Z" fill="#2F4680"/>
<path d="M223.549 127.675H210.363C208.862 125.76 207.546 123.694 206.439 121.502V110.125H206.3L202.515 103.144C202.533 102.719 202.562 102.297 202.591 101.877H202.91C202.805 101.768 202.712 101.655 202.62 101.537C202.747 100.13 202.95 98.745 203.228 97.3876L201.605 96.2742V95.7456C201.605 95.3521 201.652 94.9695 201.739 94.6026H209.668C210.126 91.0793 209.986 87.3855 209.134 83.6848C209.697 82.8803 210.294 82.0996 210.914 81.3438C211.899 84.5131 212.351 87.7026 212.334 90.8092H215.927C215.539 92.0727 215.238 93.3397 215.017 94.6026H216.768C215.353 97.7278 214.565 101.197 214.565 104.85C214.565 112.547 218.06 119.428 223.549 123.992V127.675ZM231.113 81.4C231.113 81.3925 231.118 81.3856 231.118 81.378C231.246 81.0083 231.327 80.6332 231.368 80.2588C231.385 80.1128 231.397 79.9708 231.397 79.8334C231.449 77.6692 230.104 75.6151 227.96 74.8715L221.381 72.5949C221.694 72.421 222.007 72.2511 222.32 72.0854L230.365 74.8715C232.515 75.6151 233.854 77.6692 233.808 79.8334C233.808 79.9708 233.796 80.1128 233.779 80.2588C233.761 80.3829 233.744 80.5063 233.721 80.6303C232.834 80.8396 231.959 81.0975 231.113 81.4ZM220.709 72.3624L216.86 71.0282C217.133 70.8433 217.411 70.6619 217.695 70.4834L218.744 70.8468L220.709 72.3624Z" fill="#395085"/>
<path d="M228.544 60.2607C228.144 60.2607 227.738 60.2137 227.339 60.1158C228.979 59.7176 230.393 58.5225 230.978 56.8202C231.9 54.1616 230.48 51.2335 227.82 50.3131L199.298 40.4391C199.147 40.3864 198.996 40.3418 198.84 40.3041C199.234 40.2084 199.64 40.1592 200.045 40.1592C200.596 40.1592 201.158 40.249 201.709 40.4391L230.231 50.3131C232.885 51.2335 234.311 54.1616 233.389 56.8202C232.659 58.9299 230.665 60.2607 228.544 60.2607Z" fill="#2F4680"/>
<path d="M231.16 68.8163C231.994 66.1913 230.574 63.3397 227.96 62.4338L199.438 52.5598C199.288 52.507 199.131 52.4619 198.98 52.4242C199.369 52.3291 199.775 52.2793 200.186 52.2793C200.737 52.2793 201.299 52.3697 201.849 52.5598L230.365 62.4338C232.823 63.284 234.226 65.8464 233.698 68.3271C232.84 68.461 231.994 68.6244 231.16 68.8163Z" fill="#2F4680"/>
<path d="M228.686 72.3804C228.286 72.3804 227.88 72.3335 227.48 72.2355C229.121 71.8374 230.529 70.6416 231.12 68.9399C231.132 68.8982 231.149 68.8571 231.161 68.8153C231.995 68.6235 232.842 68.4601 233.7 68.3262C233.653 68.5319 233.601 68.7365 233.531 68.9399C232.801 71.0491 230.802 72.3804 228.686 72.3804Z" fill="#395085"/>
<path d="M228.546 48.2226C228.146 48.2226 227.741 48.1756 227.341 48.0777C228.981 47.6795 230.395 46.4844 230.981 44.7821C231.902 42.1241 230.482 39.1954 227.822 38.275L209.57 31.9562C210.706 31.7841 211.883 31.6931 213.094 31.6931C213.494 31.6931 213.894 31.703 214.306 31.7233C213.512 31.7627 212.735 31.8415 211.976 31.9562L230.233 38.275C232.887 39.1954 234.313 42.1241 233.392 44.7821C232.661 46.8918 230.668 48.2226 228.546 48.2226ZM223.73 32.5445C223.318 32.5445 222.884 32.5219 222.432 32.4785C224.078 32.2657 225.132 31.5157 224.993 29.9352C224.779 27.1502 219.783 23.2044 214.63 23.0374C215.018 23.0235 215.413 23.0166 215.813 23.0166C216.16 23.0166 216.514 23.0224 216.867 23.0334C222.084 23.1169 227.19 27.1195 227.399 29.9352C227.573 31.8484 225.99 32.5445 223.73 32.5445Z" fill="#2F4680"/>
<path d="M213.632 134.716C212.27 134.393 211.308 133.603 211.308 132.677H209.337L206.422 127.906H210.549C211.766 129.431 213.099 130.857 214.536 132.17L213.632 134.716Z" fill="#2F4680"/>
<path d="M214.996 134.871C214.515 134.871 214.057 134.816 213.634 134.716L214.538 132.17C213.101 130.857 211.768 129.431 210.551 127.906H223.568L220.659 132.677H218.683C218.683 133.889 217.031 134.871 214.996 134.871Z" fill="#395085"/>
<path d="M175.569 163.683H157.635C156.087 163.683 154.82 162.417 154.82 160.869C154.82 159.321 156.087 158.055 157.635 158.055H175.569C177.117 158.055 178.384 159.321 178.384 160.869C178.384 162.417 177.117 163.683 175.569 163.683Z" fill="#294076"/>
<path d="M166.602 173.667C164.428 173.667 162.649 171.887 162.649 169.713H157.635C156.087 169.713 154.82 168.447 154.82 166.899C154.82 165.351 156.087 164.085 157.635 164.085H175.569C177.117 164.085 178.384 165.351 178.384 166.899C178.384 168.447 177.117 169.713 175.569 169.713H170.555C170.555 171.887 168.776 173.667 166.602 173.667Z" fill="#294076"/>
<path d="M175.57 157.653H157.635C156.957 157.653 156.332 157.409 155.845 157.006H173.266C174.814 157.006 176.08 155.739 176.08 154.191C176.08 153.022 175.358 152.014 174.337 151.59C176.329 150.907 177.882 150.149 178.919 149.59C179.062 148.647 179.207 147.703 179.35 146.759C180.095 147.288 180.81 147.856 181.494 148.458C181.403 149.051 181.313 149.644 181.223 150.238C180.186 150.795 178.629 151.554 176.637 152.237C177.659 152.659 178.384 153.668 178.384 154.839C178.384 156.386 177.117 157.653 175.57 157.653ZM183.099 144.193C182.568 143.774 182.023 143.371 181.465 142.987C182.775 141.833 184.48 139.974 185.373 137.542C186.044 138.008 186.7 138.496 187.338 139.004C186.203 141.458 184.3 143.242 183.099 144.193ZM184.967 123.233C183.752 122.669 182.509 122.152 181.243 121.686V73.9939C181.243 70.6578 179.229 67.7691 176.357 66.4824C180.397 66.9954 183.547 70.4683 183.547 74.6408V121.106C184.301 121.555 184.842 122.329 184.967 123.233ZM152.105 120.13V74.6083C152.105 72.6 153.749 70.9557 155.758 70.9557C156.53 70.9557 157.246 71.198 157.838 71.6101C155.932 71.7266 154.409 73.3222 154.409 75.2557V119.613C153.634 119.768 152.867 119.94 152.105 120.13ZM171.671 119.224C171.527 119.202 171.383 119.181 171.24 119.16L169.367 112.802V74.6083C169.367 72.6 171.011 70.9557 173.02 70.9557C173.79 70.9557 174.507 71.198 175.099 71.6101C173.193 71.7266 171.671 73.3222 171.671 75.2557V119.224ZM164.796 109.055C164.58 109.053 164.364 109.052 164.147 109.052C164.092 109.052 164.037 109.052 163.982 109.052V73.9939C163.982 70.6578 161.968 67.7691 159.097 66.4824C161.844 66.8313 164.18 68.5493 165.393 70.9262C165.008 71.875 164.796 72.9107 164.796 73.9939V109.055Z" fill="#294076"/>
<path d="M181.491 148.458C180.807 147.856 180.092 147.288 179.348 146.759C179.472 145.946 179.596 145.133 179.72 144.319C179.866 144.227 180.573 143.769 181.462 142.986C182.02 143.371 182.565 143.773 183.096 144.193C182.537 144.636 182.13 144.899 182.024 144.966C181.846 146.13 181.668 147.294 181.491 148.458Z" fill="#35497B"/>
<path d="M187.338 139.004C186.7 138.496 186.044 138.008 185.373 137.542C185.747 136.522 185.978 135.401 185.978 134.189C185.978 134.141 185.977 134.094 185.976 134.046V134.033C185.976 134.032 185.976 134.031 185.976 134.029V134.002C185.976 133.999 185.975 133.996 185.975 133.993V133.992V133.97C185.975 133.955 185.975 133.94 185.974 133.923C185.974 133.918 185.974 133.912 185.974 133.907V133.905C185.973 133.878 185.972 133.85 185.971 133.82V133.805C185.971 133.802 185.971 133.8 185.971 133.799V133.794C185.971 133.787 185.97 133.778 185.97 133.771C185.97 133.769 185.97 133.768 185.969 133.766V133.76C185.969 133.756 185.969 133.753 185.969 133.749V133.736C185.969 133.736 185.969 133.735 185.968 133.734V133.719C185.968 133.718 185.968 133.716 185.968 133.715V133.71C185.968 133.707 185.968 133.705 185.967 133.702V133.696C185.967 133.693 185.967 133.689 185.967 133.686V133.68C185.967 133.678 185.967 133.675 185.966 133.673V133.667C185.966 133.664 185.965 133.66 185.965 133.657V133.65C185.965 133.648 185.965 133.646 185.965 133.644V133.636C185.964 133.628 185.964 133.62 185.964 133.612C185.964 133.61 185.963 133.609 185.963 133.606V133.599C185.962 133.596 185.962 133.593 185.962 133.589C185.962 133.587 185.962 133.584 185.962 133.581V133.575C185.961 133.572 185.961 133.57 185.961 133.567C185.961 133.565 185.961 133.564 185.961 133.562C185.961 133.558 185.961 133.554 185.96 133.55V133.544C185.96 133.541 185.96 133.538 185.96 133.534C185.96 133.533 185.96 133.532 185.959 133.53C185.959 133.526 185.959 133.522 185.958 133.518V133.511C185.958 133.509 185.958 133.507 185.958 133.504C185.958 133.502 185.958 133.5 185.957 133.498C185.957 133.493 185.957 133.489 185.957 133.485V133.481C185.956 133.477 185.956 133.473 185.956 133.47V133.465C185.956 133.461 185.955 133.456 185.955 133.451C185.955 133.45 185.954 133.45 185.954 133.45C185.954 133.445 185.954 133.441 185.954 133.436V133.432C185.953 133.428 185.953 133.423 185.953 133.419V133.417C185.952 133.412 185.952 133.407 185.951 133.402V133.399C185.951 133.395 185.951 133.391 185.95 133.386V133.383C185.95 133.378 185.95 133.373 185.949 133.368V133.365C185.949 133.36 185.949 133.356 185.948 133.352V133.348C185.947 133.343 185.947 133.337 185.947 133.332C185.946 133.327 185.946 133.322 185.946 133.316C185.946 133.315 185.945 133.315 185.945 133.314C185.945 133.308 185.945 133.303 185.944 133.297V133.296C185.943 133.291 185.943 133.286 185.943 133.281V133.278C185.942 133.268 185.941 133.257 185.94 133.246V133.241C185.939 133.23 185.938 133.22 185.937 133.209V133.205C185.936 133.194 185.935 133.183 185.934 133.172V133.169C185.933 133.163 185.932 133.158 185.932 133.152C185.932 133.152 185.932 133.152 185.932 133.151C185.932 133.146 185.931 133.14 185.931 133.133L185.93 133.133C185.929 133.121 185.928 133.108 185.927 133.096C185.927 133.096 185.927 133.095 185.927 133.095C185.859 132.388 185.697 131.446 185.295 130.421C185.008 129.686 184.598 128.91 184.011 128.149C183.122 126.997 182.097 126.223 181.194 125.709C181.226 125.413 181.243 125.112 181.243 124.807V121.686C182.509 122.152 183.752 122.669 184.967 123.233C184.985 123.365 184.995 123.5 184.995 123.637C184.995 124.726 184.395 125.681 183.51 126.191C183.505 126.246 183.498 126.3 183.492 126.354C184.396 126.869 185.424 127.641 186.315 128.796C186.901 129.557 187.311 130.333 187.599 131.068L187.6 131.072C187.671 131.253 187.732 131.429 187.789 131.603L187.835 131.752C187.876 131.887 187.914 132.019 187.948 132.149L187.979 132.269C188.02 132.433 188.055 132.592 188.086 132.746L188.101 132.83C188.124 132.957 188.145 133.08 188.163 133.199L188.181 133.323C188.196 133.439 188.21 133.551 188.221 133.657L188.228 133.722C188.24 133.847 188.25 133.964 188.257 134.075L188.261 134.159C188.266 134.242 188.269 134.318 188.272 134.39L188.275 134.468C188.277 134.55 188.279 134.628 188.28 134.692C188.305 136.294 187.924 137.738 187.338 139.004ZM164.389 120.464C164.253 120.463 164.118 120.462 163.982 120.462V109.052C164.037 109.052 164.092 109.052 164.147 109.052C164.364 109.052 164.58 109.053 164.796 109.055V120.462C164.66 120.462 164.524 120.463 164.389 120.464ZM169.367 120.432V112.802L171.24 119.16C171.383 119.181 171.527 119.202 171.671 119.224V120.417C170.902 120.422 170.135 120.427 169.367 120.432ZM154.409 120.4C153.641 120.394 152.873 120.389 152.105 120.385V120.13C152.867 119.94 153.634 119.768 154.409 119.613V120.4Z" fill="#35497B"/>
<path d="M22.3838 205.921C18.7219 205.921 15.1342 204.008 12.8599 200.759C12.6472 200.298 12.4368 199.835 12.2305 199.371C14.4335 201.541 17.328 202.773 20.2694 202.773C20.8438 202.773 21.4199 202.726 21.9932 202.629C25.9616 201.965 28.3218 199.19 29.1656 198.026L29.4149 198.871C29.8188 198.897 30.224 198.919 30.6303 198.939C30.9357 199.549 31.2464 200.155 31.5634 200.759C31.1304 201.422 28.6927 205.005 24.1069 205.776C23.5337 205.869 22.9582 205.921 22.3838 205.921ZM28.4962 195.753C27.3434 193.448 26.2758 191.102 25.2945 188.717C25.6052 188.769 25.917 188.818 26.2294 188.865C26.5418 189.696 26.8647 190.522 27.1973 191.345L28.4962 195.753ZM19.7362 147.069C18.6188 144.92 17.987 142.479 17.987 139.889C17.987 139.466 18.0038 139.048 18.0369 138.634C18.0681 138.334 18.1006 138.036 18.1342 137.738C18.5898 134.436 20.0799 131.466 22.2667 129.162C20.9116 134.995 20.0556 140.981 19.7362 147.069ZM27.8749 111.985C26.9452 111.03 26.2549 109.842 25.8979 108.517C27.2796 105.303 28.8179 102.168 30.5109 99.1132C31.4527 98.7203 32.4861 98.5029 33.57 98.5029C33.9734 98.5029 34.3698 98.5331 34.757 98.591C32.1471 102.882 29.8461 107.357 27.8749 111.985ZM40.4544 90.1689L39.1955 85.895C43.3275 80.5309 47.9868 75.5498 53.1139 71.0371C53.9421 71.9813 54.8058 72.893 55.703 73.7705C50.0287 78.7046 44.9213 84.2078 40.4544 90.1689Z" fill="#324D8F"/>
<path d="M30.6299 198.938C30.2236 198.919 29.8184 198.896 29.4145 198.87L29.1652 198.025C29.2962 197.844 29.3907 197.702 29.4492 197.613C29.1252 196.996 28.807 196.376 28.4958 195.753L27.1969 191.344C28.2408 193.921 29.386 196.455 30.6299 198.938ZM26.229 188.864C25.9166 188.818 25.6048 188.769 25.2941 188.716C19.6483 174.987 16.8975 160.011 17.5838 144.708C17.6748 142.671 17.8261 140.647 18.0364 138.633C18.0034 139.047 17.9866 139.465 17.9866 139.888C17.9866 142.478 18.6184 144.92 19.7358 147.069C19.7225 147.33 19.7097 147.592 19.6975 147.854C19.0611 162.051 21.3819 175.965 26.229 188.864ZM18.1338 137.738C19.2849 127.57 21.9348 117.736 25.8975 108.516C26.2545 109.842 26.9448 111.03 27.8745 111.985C25.5207 117.512 23.6376 123.259 22.2663 129.161C20.0795 131.465 18.5894 134.436 18.1338 137.738ZM30.5105 99.1127C33.0676 94.4992 35.9714 90.0798 39.1951 85.8945L40.454 90.1684C38.419 92.8844 36.5185 95.6943 34.7566 98.5905C34.3694 98.5326 33.973 98.5024 33.5696 98.5024C32.4857 98.5024 31.4523 98.7198 30.5105 99.1127Z" fill="#415893"/>
<path d="M55.7024 73.7702C54.8051 72.8926 53.9415 71.9809 53.1133 71.0368C60.2249 64.7783 68.2378 59.42 77.0059 55.1802C79.3313 54.4946 81.7267 54.1602 84.121 54.1602C90.9927 54.1602 97.8655 56.9144 103.139 62.0241C103.224 62.0108 104.462 61.7928 104.932 60.6029C105.026 60.3653 105.078 60.1155 105.092 59.8622C105.582 60.2679 106.062 60.6898 106.532 61.1286C107.157 61.8293 107.362 62.7967 107.081 63.6348L111.061 68.9044C111.474 69.451 111.364 70.2364 110.818 70.649C110.594 70.8177 110.331 70.8994 110.069 70.8994C109.692 70.8994 109.317 70.729 109.073 70.4056L104.792 64.7378C99.5817 59.9068 92.9071 57.3074 86.2337 57.3074C83.8423 57.3074 81.4514 57.6412 79.1278 58.3257C70.5533 62.4709 62.6963 67.6896 55.7024 73.7702Z" fill="#415893"/>
<path d="M79.8769 49.9324C78.9449 49.0879 78.1155 48.1327 77.4102 47.0872C78.9658 46.2491 80.624 45.5721 82.3669 45.0771C84.6163 44.4396 86.9225 44.1289 89.2258 44.1289C93.9066 44.1289 98.574 45.4104 102.732 47.8273C102.337 48.3443 101.911 48.8358 101.456 49.2989C98.2228 47.9687 94.7846 47.2749 91.3395 47.2749C89.0368 47.2749 86.7306 47.585 84.4812 48.2231C82.9818 48.648 81.5467 49.2102 80.1847 49.8924C80.0821 49.9051 79.9795 49.9185 79.8769 49.9324Z" fill="#324D8F"/>
<path d="M116.616 60.6025C116.275 60.6025 115.935 60.4639 115.69 60.1921L111.71 55.7773C111.406 55.8979 111.165 55.9309 111.129 55.935C108.332 53.0028 105.019 50.7644 101.456 49.2986C101.911 48.8355 102.337 48.344 102.732 47.827C105.006 49.1491 107.128 50.8114 109.016 52.7895C109.101 52.7797 110.349 52.6139 110.867 51.4466C110.995 51.1574 111.061 50.8461 111.067 50.532C111.581 50.9881 112.083 51.4628 112.571 51.9572C112.983 52.4574 113.189 53.0759 113.176 53.6827L117.54 58.5246C117.999 59.0329 117.958 59.8247 117.449 60.2837C117.212 60.497 116.913 60.6025 116.616 60.6025ZM78.1051 50.2289C77.8826 49.3038 77.5082 48.3197 76.8984 47.3697C77.0677 47.2735 77.2381 47.1791 77.4097 47.0869C78.115 48.1325 78.9444 49.0877 79.8764 49.9321C79.284 50.0121 78.6928 50.1112 78.1051 50.2289Z" fill="#415893"/>
<path d="M75.4523 43.0108C75.4129 42.885 75.3758 42.7587 75.3398 42.6306C79.9244 37.7915 82.7007 31.3946 83.169 24.5409C83.8483 24.1885 84.5566 23.8848 85.2898 23.6338C85.6833 29.7358 84.2436 35.654 81.3027 40.6547C80.8651 40.7753 80.4287 40.9075 79.9952 41.05C78.4077 41.5734 76.8897 42.2318 75.4523 43.0108Z" fill="#324D8F"/>
<path d="M74.3008 43.6716C74.6567 43.3331 75.0032 42.9865 75.34 42.6306C75.3759 42.7587 75.413 42.885 75.4524 43.0108C75.0624 43.2224 74.6787 43.4426 74.3008 43.6716ZM83.1691 24.5409C83.303 22.5818 83.248 20.5857 82.993 18.578C82.8052 17.7283 82.2157 17.0282 81.4507 16.7163L81.1736 13.2921C81.1185 12.6093 81.6321 12.0054 82.3148 11.9503C82.3484 11.948 82.3821 11.9463 82.4157 11.9463C83.0561 11.9463 83.6044 12.4424 83.6566 13.0916L84.2373 20.2762C84.6645 20.6408 84.9792 21.1467 85.1073 21.7234C85.1879 22.3616 85.2488 22.9986 85.2899 23.6338C84.5567 23.8848 83.8484 24.1885 83.1691 24.5409Z" fill="#415893"/>
<path d="M87.2686 253.064C84.3729 252.925 81.4837 252.253 78.6523 251.041C80.678 251.58 82.7228 251.847 84.7671 251.847C85.8109 251.847 86.8571 251.777 87.8986 251.638C87.7056 252.119 87.4952 252.595 87.2686 253.064ZM91.2267 252.913C91.5095 252.2 91.7616 251.47 91.9801 250.728C93.2373 250.334 94.4851 249.836 95.7214 249.233H95.9909C96.0008 249.187 96.01 249.134 96.0199 249.088C97.1327 248.532 98.2351 247.888 99.3242 247.164C99.1874 248.387 98.981 249.587 98.7098 250.763C96.2517 251.888 93.745 252.606 91.2267 252.913ZM112.509 239.276C112.36 237.711 112.13 236.175 111.826 234.662C117.792 226.443 122.743 214.73 125.811 199.516C126.537 200.403 127.292 201.263 128.077 202.096C124.653 218.399 119.13 230.79 112.509 239.276ZM130.741 184.7C129.877 182.959 129.147 181.142 128.561 179.26C128.899 174.897 129.107 170.33 129.172 165.559C129.045 165.369 128.951 165.154 128.913 164.915V161.892H128.54V161.275H128.913V160.94H128.54V159.686H128.848V158.375H128.739C131.153 157.823 132.945 156.302 133.545 154.867C133.604 154.725 133.649 154.59 133.683 154.461L136.035 156.156C135.724 156.883 135.441 157.623 135.186 158.377C134.397 158.93 133.423 159.38 132.322 159.629H132.448V160.94H132.07V161.275H132.448V161.362L129.972 161.353C129.793 162.256 129.649 163.171 129.541 164.098L132.07 164.909V164.915C132.031 165.156 131.937 165.374 131.808 165.566C131.78 167.602 131.729 169.602 131.652 171.568L129.541 172.245C129.649 173.172 129.793 174.088 129.972 174.991L131.494 174.985C131.313 178.332 131.06 181.568 130.741 184.7ZM136.909 152.165L133.753 151.126C133.634 151.338 133.517 151.551 133.403 151.765C133.34 151.373 133.294 150.925 133.294 150.394C133.294 150.301 133.295 150.205 133.298 150.106C133.354 148.203 133.948 146.668 134.423 145.695C134.444 145.667 134.464 145.64 134.486 145.612H137.096V142.543C138.221 141.355 139.425 140.243 140.696 139.211V142.706L140.512 142.572C139.831 143.201 139.175 143.857 138.547 144.538L140.252 146.867H138.064C137.906 147.184 137.733 147.571 137.57 148.01C137.292 148.753 137.042 149.656 136.942 150.692C136.921 150.909 136.904 151.132 136.898 151.36C136.889 151.651 136.894 151.918 136.909 152.165ZM143.797 138.475H141.635C142.181 138.06 142.74 137.659 143.31 137.274C143.45 137.691 143.614 138.091 143.797 138.475Z" fill="#304985"/>
<path d="M98.7109 250.763C98.9822 249.587 99.1886 248.387 99.3253 247.164C101.971 245.396 104.534 243.136 106.971 240.371C108.648 238.708 110.273 236.801 111.827 234.662C112.131 236.175 112.361 237.711 112.51 239.276C108.271 244.707 103.583 248.538 98.7109 250.763Z" fill="#3C538C"/>
<path d="M129.974 174.991C129.795 174.088 129.651 173.173 129.543 172.246L131.654 171.569C131.609 172.72 131.556 173.858 131.496 174.986L129.974 174.991ZM132.071 164.909L129.543 164.098C129.651 163.172 129.795 162.256 129.974 161.353L132.45 161.362V161.892H132.071V164.909ZM135.188 158.378C135.443 157.624 135.726 156.883 136.037 156.157L133.684 154.461C133.91 153.575 133.586 152.904 133.404 151.766C133.518 151.551 133.636 151.339 133.754 151.126L136.91 152.165C137.021 154.068 137.699 154.799 137.146 156.121L137.136 156.142C137.092 156.247 137.042 156.353 136.984 156.459L136.891 156.613C136.855 156.674 136.821 156.735 136.781 156.795C136.735 156.864 136.681 156.933 136.629 157.003L136.538 157.127C136.47 157.212 136.396 157.296 136.321 157.38L136.258 157.453C136.168 157.55 136.072 157.645 135.972 157.739L135.942 157.769C135.833 157.871 135.718 157.97 135.598 158.068L135.591 158.074C135.463 158.178 135.328 158.279 135.188 158.378ZM140.698 146.867H140.253L138.548 144.538C139.177 143.857 139.833 143.202 140.514 142.572L140.698 142.707V146.867Z" fill="#3C538C"/>
<path d="M128.074 202.097C127.289 201.263 126.534 200.403 125.809 199.516C127.054 193.341 127.99 186.588 128.558 179.261C129.144 181.143 129.875 182.96 130.738 184.701C130.103 190.92 129.202 196.726 128.074 202.097ZM134.42 145.695C134.434 145.667 134.447 145.639 134.461 145.612H134.483C134.462 145.64 134.442 145.667 134.42 145.695ZM137.094 142.543V137.22H141.29V136.665H143.123C143.179 136.872 143.24 137.075 143.307 137.275C142.738 137.659 142.178 138.061 141.632 138.475H140.694V139.212C139.422 140.243 138.219 141.356 137.094 142.543Z" fill="#3C538C"/>
<path d="M78.7542 247.171C77.0687 246.736 75.3984 246.104 73.75 245.269H77.7196V242.557H84.8776C86.4414 242.557 87.9507 242.314 89.3683 241.856C89.4136 242.429 89.4361 243.003 89.4361 243.589C89.4361 243.652 89.4361 243.716 89.4356 243.78C89.1191 243.803 88.7992 243.809 88.4775 243.809H81.3195V246.527H77.3736C77.8327 246.759 78.2917 246.974 78.7542 247.171ZM92.9966 243.102C92.9844 242.505 92.9514 241.908 92.8992 241.322L96.3472 240.215C96.258 239.45 96.1392 238.691 95.9908 237.943H95.5938C96.6162 236.871 97.4798 235.642 98.1469 234.304C98.6262 235.88 98.9867 237.503 99.2186 239.172C97.5238 240.957 95.3909 242.331 92.9966 243.102ZM103.287 216.023C102.17 214.58 100.967 213.212 99.6869 211.92V111.989C99.6869 106.211 96.3345 101.179 91.4786 98.7422C98.1979 100.14 103.287 106.126 103.287 113.244V216.023Z" fill="#304985"/>
<path d="M99.2162 239.171C98.9844 237.502 98.6239 235.879 98.1445 234.303C99.1298 232.326 99.6845 230.095 99.6845 227.748V211.919C100.965 213.211 102.167 214.579 103.284 216.022V229C103.284 232.929 101.735 236.511 99.2162 239.171Z" fill="#3C538C"/>
<path d="M89.4344 243.779C89.435 243.715 89.435 243.651 89.435 243.588C89.435 243.002 89.4124 242.428 89.3672 241.855C91.7615 241.09 93.895 239.728 95.5926 237.942H95.9896C96.138 238.69 96.2568 239.449 96.3461 240.214L92.8981 241.321C92.9502 241.907 92.9832 242.504 92.9954 243.101C91.8606 243.466 90.6672 243.698 89.4344 243.779Z" fill="#3C538C"/>
<path d="M69.2909 246.526H67.9903V245.547C68.421 245.888 68.8557 246.213 69.2909 246.526ZM64.3911 243.808H60.8329C57.2162 243.808 53.8911 242.498 51.3125 240.324C53.8291 241.744 56.73 242.556 59.8117 242.556H64.3911V243.808ZM116.692 138.475H116.096V137.22H120.147H116.692V138.475Z" fill="#304985"/>
<path d="M137.242 135.41H134.855V125.281C134.855 124.625 135.393 124.088 136.049 124.088C136.705 124.088 137.242 124.625 137.242 125.281V135.41Z" fill="#3C538C"/>
<path d="M126.132 135.41H123.746V125.281C123.746 124.625 124.283 124.088 124.939 124.088C125.595 124.088 126.132 124.625 126.132 125.281V135.41Z" fill="#304985"/>
<path d="M209.987 222.902H189.845C190.596 222.455 191.374 221.998 192.182 221.528H209.535L209.987 222.902ZM189.274 222.902H188.551V221.528H191.87C190.975 222.003 190.108 222.461 189.274 222.902ZM245 218.804C244.189 218.572 243.372 218.358 242.543 218.172L242.566 211.866C242.549 211.866 242.531 211.86 242.508 211.86V166.449H245V218.804Z" fill="#2F4680"/>
<path d="M245.001 222.903H209.987L209.535 221.529H242.508V211.861C242.531 211.861 242.549 211.867 242.566 211.867L242.543 218.173C243.372 218.359 244.189 218.573 245.001 218.805V222.903Z" fill="#395085"/>
<path d="M242.508 165.077H186.059V221.528H242.508V165.077Z" fill="#F8FBEF"/>
<path d="M214.282 218.161H198.059C198.233 218.063 198.412 217.964 198.586 217.866C198.412 217.964 198.233 218.063 198.059 218.161H189.426V168.444H214.282V169.604H190.585V217.002H214.282V218.161Z" fill="#A7A9B5"/>
<path d="M219.513 181.8H209.051V204.807H219.513V181.8Z" fill="#A5A8B2"/>
<path d="M199.957 193.303C199.957 194.299 199.145 195.105 198.154 195.105C197.157 195.105 196.352 194.299 196.352 193.303C196.352 192.308 197.157 191.502 198.154 191.502C199.145 191.502 199.957 192.308 199.957 193.303Z" fill="#C9CDCD"/>
<path d="M232.218 193.303C232.218 194.299 231.413 195.105 230.416 195.105C229.425 195.105 228.613 194.299 228.613 193.303C228.613 192.308 229.425 191.502 230.416 191.502C231.413 191.502 232.218 192.308 232.218 193.303Z" fill="#C9CDCD"/>
<path d="M209.464 175.808C209.464 176.995 210.108 178.057 211.238 178.057C212.374 178.057 213.017 177.011 213.017 175.75C213.017 174.647 212.438 173.494 211.244 173.494C210.055 173.494 209.464 174.589 209.464 175.808ZM213.771 175.718C213.771 177.629 212.612 178.641 211.197 178.641C209.731 178.641 208.699 177.505 208.699 175.825C208.699 174.062 209.795 172.909 211.278 172.909C212.791 172.909 213.771 174.071 213.771 175.718Z" fill="#C9CDCD"/>
<path d="M214.703 178.552V173H215.486L217.265 175.809C217.676 176.46 217.995 177.044 218.262 177.612L218.279 177.604C218.21 176.863 218.192 176.188 218.192 175.322V173H218.87V178.552H218.146L216.384 175.735C215.996 175.117 215.625 174.483 215.347 173.881L215.323 173.89C215.364 174.59 215.375 175.257 215.375 176.18V178.552H214.703Z" fill="#C9CDCD"/>
<path d="M208.55 210.719C208.55 211.907 209.194 212.968 210.318 212.968C211.454 212.968 212.097 211.925 212.097 210.661C212.097 209.56 211.524 208.407 210.33 208.407C209.141 208.407 208.55 209.502 208.55 210.719ZM212.857 210.632C212.857 212.539 211.697 213.553 210.277 213.553C208.811 213.553 207.785 212.417 207.785 210.737C207.785 208.975 208.881 207.821 210.359 207.821C211.877 207.821 212.857 208.986 212.857 210.632Z" fill="#C9CDCD"/>
<path d="M213.789 207.914H216.774V208.517H214.502V210.36H216.606V210.951H214.502V213.467H213.789V207.914Z" fill="#C9CDCD"/>
<path d="M217.793 207.914H220.784V208.517H218.512V210.36H220.616V210.951H218.512V213.467H217.793V207.914Z" fill="#C9CDCD"/>
<path d="M214.279 181.8H209.051V193.303H214.279V181.8Z" fill="#DDDEE2"/>
<path d="M242.508 221.528H214.281V218.161H239.14V217.581V168.444H214.281V165.077H242.508V221.528ZM237.987 217.002H214.281V213.466H214.501V210.951H216.605V210.36H214.501V208.517H216.774V207.914H214.281V204.807H219.515V193.303V181.8H214.281V169.603H237.987V217.002ZM217.794 207.914V213.466H218.512V210.951H220.616V210.36H218.512V208.517H220.784V207.914H217.794ZM230.417 191.501C229.426 191.501 228.615 192.308 228.615 193.303C228.615 194.298 229.426 195.105 230.417 195.105C231.414 195.105 232.22 194.298 232.22 193.303C232.22 192.308 231.414 191.501 230.417 191.501ZM215.348 173.881C215.626 174.482 215.997 175.116 216.385 175.734L218.147 178.552H218.872V173H218.194V175.322C218.194 176.187 218.211 176.863 218.28 177.604L218.263 177.612C217.996 177.044 217.678 176.459 217.266 175.808L215.487 173H214.704V178.552H215.377V176.179C215.377 175.257 215.365 174.589 215.325 173.889L215.348 173.881Z" fill="#D0D7CA"/>
<path d="M239.14 218.161H214.281V217.002H237.987V169.604H214.281V168.444H239.14V218.161ZM238.566 217.582V217.002V217.582Z" fill="#8E8F99"/>
<path d="M219.515 193.304H214.281V204.808H219.515V193.304Z" fill="#8B8E98"/>
<path d="M230.416 195.105C229.425 195.105 228.613 194.299 228.613 193.303C228.613 192.308 229.425 191.502 230.416 191.502C231.413 191.502 232.218 192.308 232.218 193.303C232.218 194.299 231.413 195.105 230.416 195.105Z" fill="#A9ACAD"/>
<path d="M218.87 178.552H218.146L216.384 175.735C215.996 175.117 215.625 174.483 215.347 173.881L215.323 173.89C215.364 174.59 215.375 175.257 215.375 176.18V178.552H214.703V173H215.486L217.265 175.809C217.676 176.46 217.995 177.044 218.262 177.612L218.279 177.604C218.21 176.863 218.192 176.188 218.192 175.322V173H218.87V178.552Z" fill="#A9ACAD"/>
<path d="M214.501 213.467H214.281V207.914H216.774V208.517H214.501V210.36H216.605V210.951H214.501V213.467Z" fill="#A9ACAD"/>
<path d="M218.512 213.467H217.793V207.914H220.784V208.517H218.512V210.36H220.616V210.951H218.512V213.467Z" fill="#A9ACAD"/>
<path d="M219.515 181.8H214.281V193.303H219.515V181.8Z" fill="#BABABE"/>
<path d="M232.087 192.641C232.063 192.588 232.052 192.534 232.023 192.482C231.976 192.404 231.924 192.337 231.878 192.268L228.754 193.957C228.783 194.037 228.812 194.118 228.852 194.195L228.945 194.338L232.087 192.641Z" fill="#7D8586"/>
<path d="M197.103 194.764L197.068 194.744C196.999 194.693 196.935 194.632 196.871 194.572L196.877 194.57C196.946 194.641 197.022 194.705 197.103 194.764Z" fill="#B0B8B1"/>
<path d="M197.217 194.831L197.101 194.764C197.02 194.705 196.945 194.641 196.875 194.57L198.944 191.686C199.02 191.726 199.095 191.764 199.164 191.815L199.298 191.93L197.217 194.831Z" fill="#9BA3A3"/>
<path d="M121.342 141.828C120.686 141.828 120.148 141.291 120.148 140.635V124.026C120.148 123.37 120.686 122.833 121.342 122.833C121.998 122.833 122.535 123.37 122.535 124.026V140.635C122.535 141.291 121.998 141.828 121.342 141.828Z" fill="#9DA0A3"/>
<path d="M132.447 141.828C131.791 141.828 131.254 141.291 131.254 140.635V124.026C131.254 123.37 131.791 122.833 132.447 122.833C133.103 122.833 133.639 123.37 133.639 124.026V140.635C133.639 141.291 133.103 141.828 132.447 141.828Z" fill="#9DA0A3"/>
<path d="M128.468 163.661C128.347 164.427 127.698 165 126.941 165.024C126.148 165.049 125.441 164.465 125.312 163.661V158.416H128.468V163.661Z" fill="white"/>
<path d="M128.849 158.375H124.941V159.687H128.849V158.375Z" fill="white"/>
<path d="M128.85 160.021H124.941V160.638H128.85V160.021Z" fill="white"/>
<path d="M133.548 154.867C132.793 156.673 130.151 158.613 126.76 158.591C123.315 158.569 120.748 156.531 120.034 154.726C119.484 153.333 120.279 152.693 120.281 150.248C120.282 148.3 119.78 146.7 119.328 145.612H134.467C133.986 146.581 133.358 148.149 133.301 150.106C133.226 152.633 134.172 153.373 133.548 154.867Z" fill="white"/>
<path d="M141.292 135.41H112.496V137.22H141.292V135.41Z" fill="white"/>
<path d="M137.095 137.22H116.691V145.612H137.095V137.22Z" fill="#C9CDCD"/>
<path d="M121.342 124.879C120.933 124.879 120.602 124.548 120.602 124.139C120.602 123.73 120.933 123.398 121.342 123.398C121.751 123.398 122.082 123.73 122.082 124.139C122.082 124.548 121.751 124.879 121.342 124.879Z" fill="#CED1D2"/>
<path d="M132.447 124.879C132.038 124.879 131.707 124.548 131.707 124.139C131.707 123.73 132.038 123.398 132.447 123.398C132.856 123.398 133.187 123.73 133.187 124.139C133.187 124.548 132.856 124.879 132.447 124.879Z" fill="#CED1D2"/>
<path d="M125.601 161.038C125.601 250.386 76.5491 270.805 54.1286 222.293H51.6016C74.6289 276.532 128.237 256.118 128.237 161.038H125.601Z" fill="white"/>
<path d="M121.343 138.167H117.75V144.708H121.343V138.167Z" fill="#C9CDCD"/>
<path d="M133.293 150.395C133.293 150.302 133.295 150.206 133.298 150.107C133.353 148.204 133.947 146.669 134.422 145.696V145.696C133.947 146.669 133.353 148.204 133.298 150.107C133.295 150.206 133.293 150.302 133.293 150.395ZM137.096 145.613H134.485H137.096V142.544V145.613Z" fill="#223460"/>
<path d="M134.422 145.695C134.436 145.667 134.449 145.639 134.463 145.612H134.485H134.463C134.449 145.639 134.436 145.667 134.422 145.695V145.695Z" fill="#2C3C65"/>
<path d="M126.895 158.587V145.612H134.464C134.45 145.64 134.437 145.667 134.423 145.696C133.948 146.669 133.354 148.204 133.298 150.106C133.296 150.205 133.294 150.301 133.294 150.395C133.295 152.693 134.145 153.431 133.545 154.867C132.801 156.648 130.22 158.556 126.895 158.587Z" fill="#B9B9BA"/>
<path d="M141.293 135.41H126.895V137.22H141.293V135.41Z" fill="#B9B9BA"/>
<path d="M137.097 145.612H134.486H134.464H126.895V137.22H137.097V145.612Z" fill="#919494"/>
<path d="M82.2962 242.556H59.8097C50.2464 242.556 42.4219 234.732 42.4219 225.168V114.567C42.4219 105.003 50.2464 97.1787 59.8097 97.1787H82.2962C91.8596 97.1787 99.6841 105.003 99.6841 114.567V225.168C99.6841 234.732 91.8596 242.556 82.2962 242.556Z" fill="white"/>
<path d="M90.5115 127.054C90.5115 137.799 81.8014 146.51 71.0568 146.51C60.3117 146.51 51.6016 137.799 51.6016 127.054C51.6016 116.31 60.3117 107.6 71.0568 107.6C81.8014 107.6 90.5115 116.31 90.5115 127.054Z" fill="#C9CDCD"/>
<path d="M90.5115 170.421C90.5115 181.167 81.8014 189.877 71.0568 189.877C60.3117 189.877 51.6016 181.167 51.6016 170.421C51.6016 159.677 60.3117 150.967 71.0568 150.967C81.8014 150.967 90.5115 159.677 90.5115 170.421Z" fill="#C9CDCD"/>
<path d="M90.5115 213.421C90.5115 224.166 81.8014 232.878 71.0568 232.878C60.3117 232.878 51.6016 224.166 51.6016 213.421C51.6016 202.677 60.3117 193.966 71.0568 193.966C81.8014 193.966 90.5115 202.677 90.5115 213.421Z" fill="#C9CDCD"/>
<path d="M71.0564 238.058H63.4127C53.5266 238.052 45.4471 229.973 45.4453 220.091V119.645C45.4471 109.759 53.5266 101.679 63.4127 101.677H71.0564V102.837H63.4127C58.7905 102.837 54.5913 104.726 51.5421 107.774C48.494 110.823 46.6045 115.022 46.6045 119.645V220.091C46.6045 224.71 48.494 228.912 51.5421 231.961C54.5913 235.01 58.7905 236.899 63.4127 236.899H71.0564V238.058Z" fill="#C9CACF"/>
<path d="M66.1747 127.054C66.1747 128.5 65.0022 129.672 63.5561 129.672C62.1094 129.672 60.9375 128.5 60.9375 127.054C60.9375 125.607 62.1094 124.436 63.5561 124.436C65.0022 124.436 66.1747 125.607 66.1747 127.054Z" fill="#7C7E80"/>
<path d="M80.7372 127.054C80.7372 128.501 79.5647 129.673 78.1186 129.673C76.6719 129.673 75.5 128.501 75.5 127.054C75.5 125.608 76.6719 124.436 78.1186 124.436C79.5647 124.436 80.7372 125.608 80.7372 127.054Z" fill="#7C7E80"/>
<path d="M66.3935 170.422C66.3935 171.868 65.221 173.041 63.7749 173.041C62.3288 173.041 61.1562 171.868 61.1562 170.422C61.1562 168.976 62.3288 167.804 63.7749 167.804C65.221 167.804 66.3935 168.976 66.3935 170.422Z" fill="#7C7E80"/>
<path d="M80.956 170.422C80.956 171.868 79.7835 173.041 78.3374 173.041C76.8913 173.041 75.7188 171.868 75.7188 170.422C75.7188 168.976 76.8913 167.804 78.3374 167.804C79.7835 167.804 80.956 168.976 80.956 170.422Z" fill="#7C7E80"/>
<path d="M66.3935 213.421C66.3935 214.87 65.221 216.04 63.7749 216.04C62.3288 216.04 61.1562 214.87 61.1562 213.421C61.1562 211.977 62.3288 210.801 63.7749 210.801C65.221 210.801 66.3935 211.977 66.3935 213.421Z" fill="#7C7E80"/>
<path d="M80.956 213.421C80.956 214.87 79.7835 216.04 78.3374 216.04C76.8913 216.04 75.7188 214.87 75.7188 213.421C75.7188 211.977 76.8913 210.801 78.3374 210.801C79.7835 210.801 80.956 211.977 80.956 213.421Z" fill="#7C7E80"/>
<path d="M75.8931 106.136H65.7734V111.987H75.8931V106.136Z" fill="white"/>
<path d="M75.8931 142.121H65.7734V147.972H75.8931V142.121Z" fill="white"/>
<path d="M75.8931 149.504H65.7734V155.355H75.8931V149.504Z" fill="white"/>
<path d="M75.8931 185.489H65.7734V191.34H75.8931V185.489Z" fill="white"/>
<path d="M76.1158 192.503H65.9961V198.354H76.1158V192.503Z" fill="white"/>
<path d="M76.1158 228.49H65.9961V234.338H76.1158V228.49Z" fill="white"/>
<path d="M91.4765 98.7413C90.6007 98.5593 89.6965 98.455 88.7727 98.4365C86.7684 97.6256 84.5828 97.1787 82.2969 97.1787H84.8755C85.3021 97.1787 85.724 97.1973 86.1419 97.2326L86.1802 97.363C86.6717 97.3949 87.1649 97.4216 87.6599 97.443C89.0039 97.7015 90.286 98.1432 91.4765 98.7413Z" fill="#355195"/>
<path d="M87.6625 97.4428C87.1675 97.4214 86.6743 97.3947 86.1828 97.3628L86.1445 97.2324C86.6581 97.2765 87.1646 97.3472 87.6625 97.4428Z" fill="#445C9A"/>
<path d="M84.8767 242.556H77.7188H82.2981C84.7823 242.556 87.1493 242.029 89.2921 241.078C89.3217 241.339 89.3472 241.594 89.3675 241.855C87.9498 242.313 86.4405 242.556 84.8767 242.556ZM94.0575 237.948C95.5552 236.569 96.8118 234.929 97.7553 233.109C97.8933 233.503 98.0237 233.903 98.146 234.303C97.4789 235.642 96.6153 236.87 95.5929 237.943L94.0575 237.948ZM99.686 211.919V114.567C99.686 107.289 95.1541 101.018 88.7739 98.4365C89.6978 98.4551 90.602 98.5594 91.4778 98.7414C96.3336 101.179 99.686 106.211 99.686 111.988V211.919Z" fill="#2B4074"/>
<path d="M98.1485 234.303C98.0262 233.903 97.8958 233.503 97.7578 233.109C98.9912 230.721 99.6884 228.026 99.6884 225.168V211.919V227.748C99.6884 230.095 99.1338 232.326 98.1485 234.303Z" fill="#344779"/>
<path d="M89.3683 241.855C89.348 241.594 89.3225 241.339 89.293 241.078C91.052 240.301 92.6604 239.235 94.0584 237.948L95.5937 237.942C93.8961 239.728 91.7626 241.09 89.3683 241.855Z" fill="#344779"/>
<path d="M82.3016 242.556H77.7222V241.443H71.0586V238.058H78.7017V237.479V236.899H71.0586V234.337H76.1179V232.21C84.4096 229.985 90.5133 222.415 90.5133 213.42C90.5133 204.425 84.4096 196.857 76.1179 194.63V192.503H71.0586V191.34H75.8982V189.27C84.3012 187.118 90.5133 179.496 90.5133 170.422C90.5133 161.348 84.3012 153.725 75.8982 151.574V149.504H71.0586V147.971H75.8982V145.902C84.3012 143.75 90.5133 136.127 90.5133 127.053C90.5133 117.98 84.3012 110.357 75.8982 108.206V106.136H71.0586V102.837H78.7017C83.324 102.837 87.5232 104.726 90.5724 107.774C93.6205 110.824 95.51 115.023 95.51 119.645V220.091C95.51 224.71 93.6205 228.912 90.5724 231.961C87.5232 235.01 83.324 236.899 78.7017 236.899V238.058C88.5879 238.053 96.6674 229.973 96.6691 220.091V119.645C96.6674 109.759 88.5879 101.679 78.7017 101.677H71.0586V97.1787H82.3016C84.5875 97.1787 86.7731 97.6256 88.7774 98.4365C95.1575 101.018 99.6894 107.289 99.6894 114.567V225.168C99.6894 228.026 98.9922 230.721 97.7588 233.109C96.8152 234.929 95.5586 236.569 94.061 237.948C92.663 239.235 91.0546 240.302 89.2956 241.078C87.1528 242.029 84.7857 242.556 82.3016 242.556Z" fill="#DFDFDF"/>
<path d="M75.8982 145.902V142.121H71.0586V111.987H75.8982V108.206C84.3012 110.358 90.5133 117.98 90.5133 127.054C90.5133 136.128 84.3012 143.751 75.8982 145.902ZM78.1198 124.435C76.6731 124.435 75.5012 125.608 75.5012 127.054C75.5012 128.501 76.6731 129.672 78.1198 129.672C79.5659 129.672 80.7384 128.501 80.7384 127.054C80.7384 125.608 79.5659 124.435 78.1198 124.435Z" fill="#AFB3B3"/>
<path d="M75.8982 189.27V185.489H71.0586V155.355H75.8982V151.574C84.3012 153.726 90.5133 161.348 90.5133 170.422C90.5133 179.496 84.3012 187.119 75.8982 189.27ZM78.3395 167.803C76.8934 167.803 75.7209 168.976 75.7209 170.422C75.7209 171.868 76.8934 173.041 78.3395 173.041C79.7856 173.041 80.9581 171.868 80.9581 170.422C80.9581 168.976 79.7856 167.803 78.3395 167.803Z" fill="#AFB3B3"/>
<path d="M76.1179 232.21V228.489H71.0586V198.354H76.1179V194.63C84.4096 196.857 90.5133 204.424 90.5133 213.42C90.5133 222.415 84.4096 229.985 76.1179 232.21ZM78.3395 210.8C76.8934 210.8 75.7209 211.977 75.7209 213.42C75.7209 214.869 76.8934 216.04 78.3395 216.04C79.7856 216.04 80.9581 214.869 80.9581 213.42C80.9581 211.977 79.7856 210.8 78.3395 210.8Z" fill="#AFB3B3"/>
<path d="M78.7017 238.058H71.0586V236.899H78.7017V238.058ZM78.7017 238.058V237.479V236.899C83.324 236.899 87.5232 235.01 90.5724 231.961C93.6205 228.912 95.51 224.71 95.51 220.091V119.645C95.51 115.022 93.6205 110.823 90.5724 107.774C87.5232 104.726 83.324 102.837 78.7017 102.837H71.0586V101.677H78.7017C88.5879 101.679 96.6674 109.759 96.6691 119.645V220.091C96.6674 229.973 88.5879 238.052 78.7017 238.058Z" fill="#B1B0B4"/>
<path d="M78.1186 129.673C76.6719 129.673 75.5 128.501 75.5 127.054C75.5 125.608 76.6719 124.436 78.1186 124.436C79.5647 124.436 80.7372 125.608 80.7372 127.054C80.7372 128.501 79.5647 129.673 78.1186 129.673Z" fill="#6C6D6F"/>
<path d="M78.3374 173.041C76.8913 173.041 75.7188 171.868 75.7188 170.422C75.7188 168.976 76.8913 167.804 78.3374 167.804C79.7835 167.804 80.956 168.976 80.956 170.422C80.956 171.868 79.7835 173.041 78.3374 173.041Z" fill="#6C6D6F"/>
<path d="M78.3374 216.04C76.8913 216.04 75.7188 214.87 75.7188 213.421C75.7188 211.977 76.8913 210.801 78.3374 210.801C79.7835 210.801 80.956 211.977 80.956 213.421C80.956 214.87 79.7835 216.04 78.3374 216.04Z" fill="#6C6D6F"/>
<path d="M75.8982 111.987H71.0586V106.136H75.8982V111.987Z" fill="#DFDFDF"/>
<path d="M75.8982 147.972H71.0586V142.121H75.8982V147.972Z" fill="#DFDFDF"/>
<path d="M75.8982 155.355H71.0586V149.504H75.8982V155.355Z" fill="#DFDFDF"/>
<path d="M75.8982 191.34H71.0586V185.489H75.8982V191.34Z" fill="#DFDFDF"/>
<path d="M76.1179 198.354H71.0586V192.503H76.1179V198.354Z" fill="#DFDFDF"/>
<path d="M76.1179 234.338H71.0586V228.49H76.1179V234.338Z" fill="#DFDFDF"/>
<path d="M115.336 57.1381C114.827 57.5972 114.035 57.556 113.577 57.0471L106.709 49.4283C106.251 48.9195 106.292 48.1283 106.801 47.6693C107.31 47.2108 108.101 47.252 108.56 47.7608L115.427 55.379C115.886 55.8879 115.845 56.6797 115.336 57.1381Z" fill="#EEDC31"/>
<path d="M108.704 67.5026C108.157 67.9153 107.372 67.8064 106.959 67.2592L100.777 59.0747C100.365 58.5282 100.474 57.7429 101.021 57.3302C101.567 56.9175 102.352 57.0271 102.765 57.5736L108.947 65.758C109.36 66.3046 109.251 67.09 108.704 67.5026Z" fill="#4CBAEA"/>
<path d="M81.2303 21.5118C80.5476 21.5669 79.9436 21.0534 79.8886 20.3706L79.0626 10.1466C79.0076 9.46379 79.5211 8.85989 80.2039 8.80483C80.8866 8.74977 81.4906 9.26328 81.5456 9.94605L82.3715 20.1701C82.4266 20.8528 81.9131 21.4568 81.2303 21.5118Z" fill="#ED1C24"/>
<path d="M68.445 42.5823C67.1931 43.4603 65.8739 44.2075 64.5078 44.8288L66.9502 48.6831C67.8382 48.2675 68.7093 47.8044 69.5578 47.2909C68.8217 47.9893 68.1262 48.7289 67.4695 49.5026L72.2964 57.1202C73.5489 56.445 74.8692 55.8724 76.2486 55.4168C85.4416 52.3815 95.8297 54.9392 103.141 62.0236C103.226 62.0103 104.464 61.7923 104.933 60.6024C105.274 59.74 105.072 58.7147 104.419 57.9827C95.9919 50.1054 84.0685 47.5813 73.7216 51.4854C72.4129 51.9792 71.1563 52.5663 69.9583 53.2369C73.1322 49.3716 77.4067 46.4847 82.368 45.0768C91.6908 42.4327 101.984 45.4176 109.017 52.7895C109.103 52.7797 110.351 52.6139 110.868 51.4466C111.244 50.6004 111.083 49.5693 110.459 48.8117C102.341 40.6023 90.509 37.5873 79.9969 41.0498C77.9787 41.7152 76.0736 42.5991 74.3024 43.6713C80.8912 37.4123 84.2071 28.1266 82.9946 18.5778C82.7836 17.6238 82.0666 16.8575 81.1619 16.6193C79.914 16.2913 79.0052 17.1508 78.9438 17.2111C80.402 27.2329 76.3507 37.0367 68.445 42.5823Z" fill="#282826"/>
<path d="M29.451 197.613C21.0301 181.578 16.748 163.388 17.5855 144.708C19.3214 105.983 42.7759 71.1792 78.2511 54.5883C78.3201 54.2504 79.2393 49.3221 75.6134 45.7965C72.9843 43.2399 69.028 42.4539 65.5018 43.7893C25.6477 63.3437 0.204078 103.91 0.00122008 148.225C-0.0781844 165.578 3.72045 182.387 10.7475 197.613C13.3782 201.373 17.7669 203.335 21.9945 202.628C26.5797 201.86 29.0175 198.274 29.451 197.613Z" fill="#ACA8AD"/>
<path d="M164.297 173.019C162.123 173.019 160.344 171.24 160.344 169.066C160.344 166.891 162.123 165.112 164.297 165.112C166.471 165.112 168.251 166.891 168.251 169.066C168.251 171.24 166.471 173.019 164.297 173.019Z" fill="#C9CDCD"/>
<path d="M173.264 157.005H155.33C153.782 157.005 152.516 155.739 152.516 154.191C152.516 152.643 153.782 151.377 155.33 151.377H173.264C174.812 151.377 176.078 152.643 176.078 154.191C176.078 155.739 174.812 157.005 173.264 157.005Z" fill="#C9CDCD"/>
<path d="M173.265 163.036H155.33C153.782 163.036 152.516 161.769 152.516 160.222C152.516 158.674 153.782 157.407 155.33 157.407H173.265C174.812 157.407 176.078 158.674 176.078 160.222C176.078 161.769 174.812 163.036 173.265 163.036Z" fill="#C9CDCD"/>
<path d="M173.265 169.066H155.33C153.782 169.066 152.516 167.8 152.516 166.251C152.516 164.704 153.782 163.438 155.33 163.438H173.265C174.812 163.438 176.078 164.704 176.078 166.251C176.078 167.8 174.812 169.066 173.265 169.066Z" fill="#C9CDCD"/>
<path d="M178.973 120.688H178.233C178.125 120.657 178.018 120.625 177.91 120.594C177.888 120.522 177.866 120.449 177.844 120.377C177.613 120.378 177.381 120.379 177.149 120.381C176.99 120.338 176.83 120.295 176.67 120.253V74.6077C176.67 73.3703 176.046 72.2708 175.097 71.6095C175.171 71.6049 175.246 71.6026 175.321 71.6026C177.33 71.6026 178.973 73.2463 178.973 75.2552V120.688ZM167.098 109.123C166.826 109.11 166.555 109.098 166.283 109.089V74.6402C166.283 73.306 165.961 72.0425 165.391 70.9256C166.613 67.9106 169.578 65.7695 173.018 65.7695C174.204 65.7695 175.334 66.0246 176.355 66.4819C176.016 66.439 175.671 66.4169 175.321 66.4169C170.798 66.4169 167.098 70.1176 167.098 74.6402V109.123Z" fill="#B0BDDD"/>
<path d="M178.235 120.688H177.94C177.93 120.657 177.921 120.625 177.912 120.594C178.02 120.625 178.127 120.656 178.235 120.688ZM166.285 120.451V109.089C166.557 109.098 166.828 109.11 167.099 109.122V120.446C166.828 120.448 166.556 120.45 166.285 120.451ZM176.672 120.384V120.253C176.832 120.295 176.992 120.338 177.151 120.381C176.992 120.382 176.832 120.383 176.672 120.384Z" fill="#B6C1DF"/>
<path d="M181.244 121.686C180.256 121.323 179.253 120.99 178.237 120.689H178.977V75.2552C178.977 73.2464 177.333 71.6026 175.324 71.6026C175.249 71.6026 175.174 71.605 175.1 71.6096C174.509 71.1975 173.792 70.9552 173.021 70.9552C171.012 70.9552 169.368 72.5995 169.368 74.6078V112.802L168.304 109.19C167.903 109.164 167.503 109.141 167.101 109.123V74.6403C167.101 70.1177 170.801 66.417 175.324 66.417C175.675 66.417 176.02 66.4391 176.359 66.4819C179.231 67.7686 181.244 70.6573 181.244 73.9935V121.686ZM166.286 109.089C165.791 109.072 165.295 109.061 164.797 109.055V73.9935C164.797 72.9102 165.009 71.8745 165.394 70.9257C165.964 72.0426 166.286 73.3061 166.286 74.6403V109.089Z" fill="#A8B1C8"/>
<path d="M181.195 125.708C180.344 125.224 179.603 124.969 179.188 124.843C178.773 123.458 178.357 122.074 177.942 120.688H178.237C179.253 120.99 180.256 121.322 181.244 121.686V124.807C181.244 125.111 181.227 125.412 181.195 125.708ZM164.797 120.461V109.055C165.295 109.06 165.791 109.072 166.286 109.089V120.451C165.79 120.455 165.294 120.458 164.797 120.461ZM167.101 120.446V109.123C167.503 109.141 167.903 109.164 168.304 109.19L169.368 112.802V120.432C168.612 120.436 167.857 120.441 167.101 120.446Z" fill="#ADB5CA"/>
<path d="M147.535 121.511V73.9934C147.535 69.4702 151.236 65.7695 155.758 65.7695C156.945 65.7695 158.075 66.0246 159.097 66.4819C158.758 66.439 158.412 66.4169 158.062 66.4169C153.539 66.4169 149.838 70.1176 149.838 74.6402V120.755C149.062 120.988 148.294 121.241 147.535 121.511ZM159.411 111.161V74.6077C159.411 73.3703 158.787 72.2708 157.838 71.6095C157.912 71.6049 157.987 71.6026 158.062 71.6026C160.071 71.6026 161.715 73.2463 161.715 75.2552V109.1C161.138 109.123 160.564 109.153 159.992 109.19L159.411 111.161Z" fill="#B0BDDD"/>
<path d="M147.584 125.709C147.552 125.413 147.535 125.112 147.535 124.808V121.511C148.294 121.241 149.062 120.989 149.838 120.755V121.006C148.876 121.493 148.21 122.49 148.21 123.637C148.21 124.204 148.373 124.733 148.653 125.183C148.333 125.317 147.97 125.49 147.584 125.709ZM161.715 120.447C160.947 120.442 160.179 120.437 159.411 120.432V111.162L159.992 109.19C160.564 109.153 161.138 109.123 161.715 109.101V120.447Z" fill="#B6C1DF"/>
<path d="M149.836 120.755V74.6403C149.836 70.1177 153.537 66.417 158.06 66.417C158.41 66.417 158.755 66.4391 159.094 66.4819C161.966 67.7686 163.98 70.6573 163.98 73.9935V109.052C163.22 109.054 162.465 109.071 161.712 109.1V75.2552C161.712 73.2464 160.069 71.6026 158.06 71.6026C157.984 71.6026 157.91 71.605 157.836 71.6096C157.244 71.1975 156.527 70.9552 155.756 70.9552C153.747 70.9552 152.103 72.5995 152.103 74.6078V120.13C151.785 120.21 151.468 120.292 151.152 120.378C151.077 120.377 151.003 120.377 150.929 120.377C150.922 120.399 150.915 120.422 150.909 120.444C150.549 120.544 150.192 120.647 149.836 120.755Z" fill="#A8B1C8"/>
<path d="M148.649 125.182C148.369 124.733 148.207 124.203 148.207 123.637C148.207 122.489 148.872 121.492 149.835 121.005V120.754C150.191 120.647 150.549 120.543 150.908 120.444C150.467 121.911 150.028 123.377 149.588 124.843C149.361 124.912 149.036 125.02 148.649 125.182ZM163.979 120.461C163.223 120.456 162.467 120.451 161.712 120.447V109.1C162.464 109.07 163.219 109.053 163.979 109.052V120.461ZM152.102 120.384C151.785 120.382 151.468 120.38 151.151 120.378C151.467 120.292 151.784 120.21 152.102 120.13V120.384Z" fill="#ADB5CA"/>
<path d="M185.977 134.046C185.963 133.167 185.885 130.581 184.012 128.149C182.286 125.91 180.042 125.104 179.188 124.844C178.741 123.355 178.294 121.866 177.847 120.377C173.362 120.406 168.876 120.435 164.39 120.464C159.903 120.435 155.417 120.406 150.932 120.377C150.485 121.866 150.038 123.355 149.592 124.844C148.737 125.104 146.492 125.91 144.767 128.149C142.894 130.581 142.816 133.167 142.802 134.046C142.705 140.194 148.6 144.033 149.056 144.319C149.324 146.076 149.592 147.833 149.86 149.59C152.27 150.887 157.378 153.22 164.243 153.253C171.275 153.287 176.503 150.89 178.919 149.59C179.188 147.833 179.456 146.076 179.723 144.319C180.179 144.033 186.074 140.194 185.977 134.046Z" fill="white"/>
<path d="M142.801 134.045C142.805 133.795 142.814 133.405 142.869 132.921C142.814 133.405 142.805 133.795 142.801 134.045Z" fill="#405792"/>
<path d="M185.974 134.033C185.974 134.032 185.973 134.031 185.973 134.029C185.973 134.031 185.974 134.032 185.974 134.033ZM185.973 134.02V134.015V134.02ZM185.973 134.012V134.006V134.012ZM185.973 134.002C185.973 133.999 185.973 133.996 185.973 133.993C185.973 133.996 185.973 133.999 185.973 134.002ZM185.973 133.992V133.984V133.992ZM185.973 133.976V133.97V133.976ZM185.971 133.907V133.905V133.907ZM185.969 133.82V133.816V133.82ZM185.969 133.805C185.968 133.802 185.968 133.801 185.968 133.799C185.968 133.801 185.968 133.802 185.969 133.805ZM185.968 133.794C185.968 133.787 185.968 133.778 185.968 133.771C185.968 133.778 185.968 133.787 185.968 133.794ZM185.967 133.766V133.761V133.766ZM185.966 133.749V133.744V133.749ZM185.966 133.736C185.966 133.736 185.966 133.735 185.966 133.734C185.966 133.735 185.966 133.736 185.966 133.736ZM185.966 133.719C185.965 133.718 185.965 133.716 185.965 133.715C185.965 133.716 185.965 133.718 185.966 133.719ZM185.965 133.71C185.965 133.707 185.965 133.705 185.965 133.702C185.965 133.705 185.965 133.707 185.965 133.71ZM185.965 133.696C185.965 133.693 185.965 133.689 185.964 133.686C185.965 133.689 185.965 133.693 185.965 133.696ZM185.964 133.68C185.964 133.678 185.964 133.675 185.964 133.673C185.964 133.675 185.964 133.678 185.964 133.68ZM185.964 133.667C185.964 133.664 185.963 133.66 185.963 133.657C185.963 133.66 185.964 133.664 185.964 133.667ZM185.963 133.65C185.962 133.648 185.962 133.646 185.962 133.644C185.962 133.646 185.962 133.648 185.963 133.65ZM185.962 133.636C185.962 133.628 185.961 133.62 185.961 133.612C185.961 133.62 185.962 133.628 185.962 133.636ZM185.961 133.606V133.599V133.606ZM185.96 133.59C185.96 133.587 185.96 133.584 185.96 133.581C185.96 133.584 185.96 133.587 185.96 133.59ZM185.96 133.575C185.959 133.572 185.959 133.57 185.959 133.567C185.959 133.57 185.959 133.572 185.96 133.575ZM185.958 133.562C185.958 133.558 185.958 133.554 185.958 133.55C185.958 133.554 185.958 133.558 185.958 133.562ZM185.958 133.544C185.958 133.541 185.957 133.538 185.957 133.534C185.957 133.538 185.958 133.541 185.958 133.544ZM185.957 133.53C185.957 133.526 185.957 133.522 185.956 133.518C185.957 133.522 185.957 133.526 185.957 133.53ZM185.956 133.511C185.955 133.509 185.955 133.507 185.955 133.504C185.955 133.507 185.955 133.509 185.956 133.511ZM185.955 133.498C185.955 133.493 185.955 133.489 185.954 133.485C185.955 133.489 185.955 133.493 185.955 133.498ZM185.954 133.481C185.954 133.477 185.954 133.473 185.953 133.47C185.954 133.473 185.954 133.477 185.954 133.481ZM185.953 133.466C185.953 133.461 185.953 133.456 185.953 133.451C185.953 133.456 185.953 133.461 185.953 133.466ZM185.952 133.45C185.952 133.445 185.951 133.441 185.951 133.436C185.951 133.441 185.952 133.445 185.952 133.45ZM185.951 133.432C185.951 133.428 185.951 133.423 185.95 133.419C185.951 133.423 185.951 133.428 185.951 133.432ZM185.95 133.417C185.95 133.412 185.95 133.407 185.949 133.402C185.95 133.407 185.95 133.412 185.95 133.417ZM185.949 133.399C185.949 133.395 185.948 133.39 185.948 133.386C185.948 133.391 185.949 133.395 185.949 133.399ZM185.948 133.383C185.947 133.378 185.947 133.373 185.947 133.368C185.947 133.373 185.947 133.378 185.948 133.383ZM185.947 133.365C185.946 133.36 185.946 133.356 185.946 133.352C185.946 133.356 185.946 133.36 185.947 133.365ZM185.946 133.348C185.945 133.343 185.944 133.337 185.944 133.332C185.944 133.337 185.945 133.343 185.946 133.348ZM185.944 133.332C185.944 133.327 185.943 133.322 185.943 133.317C185.943 133.322 185.944 133.327 185.944 133.332ZM185.943 133.314C185.943 133.308 185.942 133.303 185.942 133.297C185.942 133.303 185.943 133.308 185.943 133.314ZM185.942 133.296C185.941 133.291 185.941 133.286 185.94 133.281C185.941 133.286 185.941 133.291 185.942 133.296ZM185.94 133.278C185.939 133.268 185.939 133.257 185.937 133.246C185.939 133.257 185.939 133.268 185.94 133.278ZM185.937 133.241C185.936 133.23 185.936 133.22 185.935 133.209C185.936 133.22 185.936 133.23 185.937 133.241ZM185.935 133.205C185.933 133.194 185.932 133.183 185.931 133.172C185.932 133.183 185.933 133.194 185.935 133.205ZM185.931 133.169C185.931 133.164 185.93 133.158 185.93 133.153C185.93 133.158 185.931 133.164 185.931 133.169ZM185.929 133.151C185.929 133.146 185.929 133.14 185.928 133.133C185.929 133.14 185.929 133.146 185.929 133.151ZM185.928 133.133C185.926 133.121 185.926 133.108 185.925 133.096C185.926 133.108 185.927 133.121 185.928 133.133ZM185.924 133.095C185.857 132.389 185.695 131.446 185.293 130.421C185.695 131.446 185.857 132.388 185.924 133.095Z" fill="#2C3C65"/>
<path d="M142.867 132.92C142.868 132.914 142.868 132.909 142.869 132.903C142.868 132.909 142.868 132.914 142.867 132.92ZM142.869 132.899C142.87 132.893 142.871 132.888 142.872 132.882C142.871 132.888 142.87 132.893 142.869 132.899ZM142.872 132.877C142.872 132.873 142.873 132.868 142.874 132.863C142.873 132.868 142.872 132.873 142.872 132.877ZM142.874 132.859C142.875 132.853 142.875 132.848 142.876 132.842C142.875 132.848 142.875 132.853 142.874 132.859ZM142.877 132.835C142.878 132.831 142.878 132.827 142.879 132.823C142.878 132.827 142.878 132.831 142.877 132.835ZM142.879 132.816C142.88 132.812 142.881 132.808 142.881 132.805C142.881 132.808 142.88 132.812 142.879 132.816ZM142.882 132.794C142.883 132.79 142.883 132.786 142.883 132.782C142.883 132.786 142.883 132.79 142.882 132.794ZM142.885 132.775C142.885 132.771 142.885 132.768 142.886 132.765C142.885 132.768 142.885 132.771 142.885 132.775ZM142.889 132.745V132.742V132.745ZM142.89 132.728C142.89 132.728 142.891 132.728 142.891 132.727C142.891 132.728 142.89 132.728 142.89 132.728ZM142.896 132.686C142.896 132.685 142.897 132.684 142.897 132.684C142.897 132.684 142.896 132.685 142.896 132.686ZM143.402 130.628C143.402 130.627 143.402 130.627 143.403 130.627C143.402 130.627 143.402 130.627 143.402 130.628ZM143.415 130.591C143.416 130.59 143.416 130.59 143.416 130.59C143.416 130.59 143.416 130.59 143.415 130.591ZM143.423 130.572V130.57V130.572ZM143.436 130.536C143.436 130.535 143.437 130.534 143.437 130.533C143.437 130.534 143.436 130.535 143.436 130.536ZM143.443 130.518C143.444 130.516 143.445 130.513 143.446 130.51C143.445 130.513 143.444 130.515 143.443 130.518ZM143.455 130.485C143.457 130.482 143.458 130.479 143.459 130.477C143.458 130.479 143.457 130.482 143.455 130.485ZM143.464 130.464C143.465 130.46 143.466 130.457 143.468 130.453C143.466 130.457 143.465 130.46 143.464 130.464ZM143.473 130.441C143.475 130.434 143.478 130.427 143.48 130.421C143.478 130.427 143.475 130.434 143.473 130.441Z" fill="#405792"/>
<path d="M164.39 153.254C164.341 153.254 164.292 153.253 164.243 153.253C157.378 153.22 152.27 150.888 149.86 149.59C149.7 148.545 149.541 147.5 149.382 146.455C149.273 145.743 149.164 145.031 149.056 144.32C148.898 144.22 148.09 143.697 147.105 142.799C145.778 141.592 144.13 139.709 143.311 137.275C143.245 137.075 143.183 136.872 143.128 136.665C142.92 135.89 142.8 135.063 142.801 134.189C142.801 134.141 142.801 134.094 142.802 134.046C142.806 133.795 142.815 133.406 142.87 132.921V132.92C142.87 132.914 142.871 132.909 142.871 132.903C142.872 132.902 142.872 132.9 142.872 132.899C142.873 132.893 142.873 132.888 142.874 132.882C142.874 132.88 142.874 132.879 142.875 132.877C142.875 132.873 142.876 132.868 142.876 132.863C142.877 132.862 142.877 132.86 142.877 132.859C142.877 132.853 142.878 132.848 142.879 132.842C142.879 132.84 142.88 132.838 142.88 132.835C142.88 132.831 142.881 132.827 142.881 132.823C142.881 132.821 142.882 132.819 142.882 132.816C142.883 132.812 142.883 132.808 142.884 132.805C142.884 132.801 142.884 132.798 142.885 132.794C142.885 132.79 142.885 132.786 142.886 132.782C142.887 132.78 142.887 132.777 142.887 132.775C142.888 132.771 142.888 132.768 142.888 132.765C142.889 132.758 142.89 132.752 142.891 132.745V132.742C142.892 132.738 142.892 132.733 142.893 132.728C142.893 132.728 142.894 132.728 142.894 132.727C142.895 132.713 142.897 132.7 142.899 132.686C142.899 132.685 142.899 132.684 142.899 132.684C142.979 132.094 143.128 131.387 143.405 130.628C143.405 130.627 143.405 130.627 143.405 130.627C143.409 130.614 143.414 130.603 143.418 130.591C143.419 130.59 143.419 130.59 143.419 130.59C143.421 130.584 143.423 130.577 143.426 130.572V130.57C143.43 130.559 143.434 130.548 143.439 130.536C143.439 130.535 143.439 130.534 143.439 130.533C143.442 130.528 143.444 130.523 143.445 130.518C143.446 130.515 143.448 130.513 143.448 130.51C143.452 130.501 143.455 130.493 143.458 130.485C143.459 130.482 143.46 130.479 143.462 130.477C143.463 130.472 143.464 130.468 143.466 130.464C143.467 130.46 143.469 130.457 143.47 130.453C143.472 130.449 143.474 130.445 143.475 130.441C143.478 130.434 143.481 130.427 143.483 130.421C145.03 134.382 148.7 136.77 149.056 136.994C149.324 138.751 149.592 140.508 149.86 142.265C152.27 143.562 157.378 145.895 164.243 145.928H164.389C171.346 145.928 176.52 143.556 178.919 142.265C179.188 140.508 179.455 138.751 179.723 136.994C180.079 136.77 183.749 134.382 185.296 130.421C185.698 131.446 185.86 132.389 185.927 133.095C185.927 133.095 185.927 133.096 185.928 133.096C185.929 133.108 185.93 133.121 185.931 133.133L185.931 133.133C185.932 133.14 185.932 133.146 185.932 133.151C185.932 133.152 185.932 133.153 185.933 133.153C185.933 133.158 185.934 133.164 185.934 133.169V133.172C185.935 133.183 185.937 133.194 185.938 133.205V133.209C185.939 133.22 185.939 133.23 185.941 133.241V133.246C185.942 133.257 185.942 133.268 185.943 133.278V133.281C185.944 133.286 185.944 133.291 185.945 133.296V133.297C185.945 133.303 185.946 133.308 185.946 133.314C185.946 133.314 185.946 133.315 185.946 133.317C185.946 133.322 185.947 133.327 185.948 133.332C185.948 133.337 185.948 133.343 185.949 133.348V133.352C185.949 133.356 185.949 133.36 185.95 133.365V133.368C185.95 133.373 185.95 133.378 185.951 133.383V133.386C185.952 133.39 185.952 133.395 185.952 133.399V133.402C185.953 133.407 185.953 133.412 185.953 133.417V133.419C185.954 133.423 185.954 133.428 185.955 133.432V133.436C185.955 133.441 185.955 133.445 185.955 133.45C185.955 133.45 185.956 133.45 185.956 133.451C185.956 133.456 185.956 133.461 185.956 133.466V133.47C185.957 133.473 185.957 133.477 185.957 133.481V133.485C185.958 133.489 185.958 133.493 185.958 133.498C185.959 133.5 185.959 133.502 185.959 133.504C185.959 133.507 185.959 133.509 185.959 133.511V133.518C185.96 133.522 185.96 133.526 185.96 133.53C185.96 133.532 185.96 133.533 185.96 133.534C185.96 133.538 185.961 133.541 185.961 133.544V133.55C185.961 133.554 185.961 133.558 185.961 133.562C185.962 133.564 185.962 133.565 185.962 133.567C185.962 133.57 185.962 133.572 185.963 133.575V133.581C185.963 133.584 185.963 133.587 185.963 133.59C185.963 133.593 185.963 133.596 185.964 133.599V133.606C185.964 133.609 185.964 133.61 185.964 133.612C185.964 133.62 185.965 133.628 185.966 133.636V133.644C185.966 133.646 185.966 133.648 185.966 133.65V133.657C185.966 133.66 185.967 133.664 185.967 133.667V133.673C185.967 133.675 185.967 133.678 185.967 133.68V133.686C185.968 133.689 185.968 133.693 185.968 133.696V133.702C185.968 133.705 185.968 133.707 185.968 133.71V133.715C185.968 133.716 185.968 133.718 185.969 133.719V133.734C185.97 133.735 185.97 133.736 185.97 133.736V133.749C185.97 133.753 185.97 133.756 185.97 133.761V133.766C185.971 133.768 185.971 133.769 185.971 133.771C185.971 133.778 185.971 133.787 185.971 133.794V133.799C185.971 133.801 185.971 133.802 185.972 133.805V133.82C185.973 133.85 185.974 133.878 185.974 133.905V133.907C185.975 133.912 185.975 133.918 185.975 133.923C185.975 133.939 185.975 133.955 185.976 133.97V133.993C185.976 133.996 185.977 133.999 185.977 134.002V134.029C185.977 134.031 185.977 134.032 185.977 134.033V134.046C185.978 134.094 185.978 134.141 185.978 134.189C185.979 135.401 185.748 136.522 185.374 137.542C184.481 139.974 182.775 141.833 181.466 142.987C180.576 143.77 179.869 144.227 179.723 144.32C179.599 145.133 179.475 145.946 179.351 146.759C179.207 147.703 179.063 148.647 178.919 149.59C176.52 150.882 171.348 153.254 164.39 153.254Z" fill="#D2D2D2"/>
<path d="M179.74 125.938H148.851C147.229 125.938 145.902 124.612 145.902 122.99C145.902 121.369 147.229 120.042 148.851 120.042H179.74C181.361 120.042 182.687 121.369 182.687 122.99C182.687 124.612 181.361 125.938 179.74 125.938Z" fill="white"/>
<path d="M216.275 132.677C216.275 133.889 214.623 134.871 212.589 134.871C210.548 134.871 208.902 133.889 208.902 132.677C208.902 131.466 210.548 130.483 212.589 130.483C214.623 130.483 216.275 131.466 216.275 132.677Z" fill="#71797E"/>
<path d="M221.143 106.967H204.027V127.676H221.143V106.967Z" fill="#ACA8AD"/>
<path d="M221.284 110.125H203.896L199.422 101.877H225.759L221.284 110.125Z" fill="#C9CDCD"/>
<path d="M201.321 90.6624C201.321 85.8222 199.721 80.6556 195.913 75.9586C195.172 75.0701 194.517 74.1711 194.024 73.3145C192.778 71.971 192.291 69.9998 192.929 68.1573C193.659 66.0476 195.653 64.7168 197.774 64.7168C198.174 64.7168 198.58 64.7637 198.979 64.8617C197.339 65.2599 195.931 66.455 195.34 68.1573C194.702 69.9998 195.189 71.971 196.435 73.3145C196.928 74.1711 197.583 75.0701 198.325 75.9586C201.837 80.2951 203.466 85.0299 203.697 89.5403L201.785 89.4875C201.622 89.8759 201.472 90.2677 201.321 90.6624ZM211.939 80.1508L210.311 79.5869C210.189 79.2646 210.061 78.9424 209.928 78.6207L212.519 79.5179C212.322 79.7266 212.131 79.9375 211.939 80.1508Z" fill="#BAC4E1"/>
<path d="M201.738 94.6031H200.973C201.204 93.3262 201.326 92.0077 201.32 90.663C201.471 90.2683 201.622 89.8765 201.784 89.4882L203.697 89.5409C203.732 90.2712 203.732 90.9951 203.703 91.7109C202.735 92.3937 202.016 93.4149 201.738 94.6031ZM218.337 90.8096H215.926C216.639 88.4745 217.648 86.1497 218.969 83.8771C219.172 83.5114 219.404 83.1602 219.647 82.8217L211.939 80.1515C212.13 79.9382 212.321 79.7272 212.518 79.5186L222.058 82.8217C221.815 83.1602 221.583 83.5114 221.38 83.8771C220.053 86.1497 219.056 88.475 218.337 90.8096Z" fill="#BFCAE4"/>
<path d="M223.824 94.603H216.77C219.546 88.4756 224.728 83.6707 231.115 81.4005C230.936 81.9122 230.68 82.3771 230.367 82.7886C229.886 83.5989 229.266 84.4433 228.565 85.2791C226.148 88.2658 224.618 91.4413 223.824 94.603ZM205.775 89.5983L203.7 89.5409C203.469 85.0305 201.84 80.2957 198.328 75.9592C197.586 75.0707 196.931 74.1717 196.438 73.3151C195.192 71.9716 194.705 70.0004 195.343 68.1579C195.934 66.4556 197.342 65.2605 198.982 64.8623C199.133 64.9 199.29 64.9446 199.44 64.9979L216.863 71.0286C215.588 71.8789 214.371 72.7993 213.206 73.7834L214.539 77.5317C213.843 78.1681 213.171 78.8305 212.522 79.5185L209.931 78.6213C210.064 78.943 210.192 79.2652 210.314 79.5875L207.52 78.6213C208.215 80.3004 208.754 81.9934 209.137 83.6852C207.844 85.5394 206.714 87.5181 205.775 89.5983ZM221.175 72.7158L220.711 72.3629L221.384 72.5953C221.314 72.6353 221.245 72.6752 221.175 72.7158Z" fill="#B5BCD1"/>
<path d="M216.767 94.6027H215.017C215.237 93.3398 215.538 92.0728 215.927 90.8093H218.338C219.057 88.4747 220.053 86.1493 221.381 83.8768C221.584 83.511 221.815 83.1598 222.059 82.8213L212.519 79.5182C213.168 78.8302 213.84 78.1677 214.536 77.5314L213.203 73.7831C214.368 72.799 215.585 71.8786 216.86 71.0283L220.708 72.3625L221.172 72.7155C221.242 72.6749 221.311 72.635 221.381 72.595L227.959 74.8716C230.104 75.6152 231.448 77.6693 231.396 79.8335C231.396 79.9709 231.385 80.1129 231.367 80.2589C231.327 80.6333 231.245 81.0084 231.118 81.3781C231.118 81.3857 231.112 81.3926 231.112 81.4001C224.725 83.6704 219.543 88.4752 216.767 94.6027ZM209.667 94.6027H201.738C202.016 93.4146 202.735 92.3933 203.703 91.7106C203.732 90.9948 203.732 90.2709 203.697 89.5406L205.772 89.598C206.711 87.5178 207.841 85.539 209.134 83.6849C209.986 87.3856 210.125 91.0794 209.667 94.6027Z" fill="#B8C1D3"/>
<path d="M226.132 60.2607C225.581 60.2607 225.019 60.1702 224.474 59.9807L195.952 50.1062C193.292 49.1858 191.871 46.2577 192.793 43.5991C193.524 41.4899 195.517 40.1592 197.639 40.1592C198.033 40.1592 198.438 40.2061 198.838 40.3041C197.204 40.7023 195.79 41.8974 195.199 43.5991C194.277 46.2577 195.703 49.1858 198.357 50.1062L226.879 59.9807C227.03 60.0329 227.186 60.0781 227.337 60.1158C226.949 60.2108 226.543 60.2607 226.132 60.2607Z" fill="#BAC4E1"/>
<path d="M227.341 60.1154C227.19 60.0777 227.034 60.0325 226.883 59.9804L198.361 50.1058C195.707 49.1854 194.281 46.2573 195.202 43.5987C195.794 41.897 197.208 40.7019 198.842 40.3037C198.999 40.3414 199.149 40.386 199.3 40.4387L227.822 50.3127C230.482 51.2331 231.902 54.1612 230.981 56.8198C230.395 58.5221 228.981 59.7172 227.341 60.1154Z" fill="#B5BCD1"/>
<path d="M223.238 71.6238L196.095 62.2269C193.435 61.3065 192.015 58.3784 192.93 55.7198C193.661 53.6106 195.655 52.2793 197.776 52.2793C198.176 52.2793 198.582 52.3268 198.981 52.4242C197.341 52.8224 195.933 54.0181 195.342 55.7198C194.42 58.3784 195.84 61.3065 198.5 62.2269L224.258 71.1434C223.916 71.2987 223.574 71.4586 223.238 71.6238Z" fill="#BAC4E1"/>
<path d="M226.275 72.3806C225.725 72.3806 225.163 72.2902 224.612 72.1001L223.238 71.6231C223.574 71.4579 223.916 71.2979 224.258 71.1426L227.023 72.1001C227.174 72.1528 227.33 72.198 227.481 72.2357C227.087 72.3307 226.687 72.3806 226.275 72.3806Z" fill="#BFCAE4"/>
<path d="M224.256 71.143L198.498 62.2265C195.838 61.3061 194.418 58.378 195.34 55.7194C195.931 54.0177 197.339 52.822 198.98 52.4238C199.13 52.4615 199.287 52.5067 199.437 52.5594L227.959 62.4334C230.573 63.3393 231.993 66.1909 231.159 68.8159C228.759 69.3665 226.452 70.1507 224.256 71.143Z" fill="#B5BCD1"/>
<path d="M227.476 72.2366C227.326 72.1989 227.169 72.1537 227.019 72.101L224.254 71.1435C226.451 70.1512 228.757 69.367 231.157 68.8164C231.145 68.8581 231.128 68.8993 231.116 68.941C230.525 70.6427 229.117 71.8384 227.476 72.2366Z" fill="#B8C1D3"/>
<path d="M226.132 48.2226C225.581 48.2226 225.019 48.1322 224.474 47.9426L195.952 38.0681C193.292 37.1477 191.871 34.2196 192.793 31.561C193.182 30.4389 193.923 29.5387 194.857 28.9406L194.845 28.9192C199.87 25.288 206.217 23.0166 213.398 23.0166C213.746 23.0166 214.099 23.0224 214.458 23.0334C214.511 23.034 214.569 23.0357 214.627 23.0374C207.932 23.271 202.003 25.488 197.256 28.9192L197.268 28.9406C196.335 29.5387 195.587 30.4389 195.199 31.561C194.277 34.2196 195.703 37.1477 198.357 38.0681L226.879 47.942C227.03 47.9948 227.186 48.04 227.337 48.0777C226.949 48.1727 226.543 48.2226 226.132 48.2226ZM221.315 32.5445C220.254 32.5445 219.043 32.391 217.791 32.1382C216.597 31.9151 215.438 31.7795 214.302 31.7233C214.696 31.7036 215.096 31.6931 215.502 31.6931C217.014 31.6931 218.585 31.8351 220.202 32.1382C220.967 32.293 221.721 32.4106 222.428 32.4785C222.086 32.5237 221.709 32.5445 221.315 32.5445Z" fill="#BAC4E1"/>
<path d="M227.341 48.0783C227.19 48.0406 227.034 47.9954 226.883 47.9427L198.361 38.0687C195.707 37.1483 194.281 34.2202 195.202 31.5616C195.591 30.4395 196.338 29.5394 197.271 28.9413L197.26 28.9198C202.007 25.4886 207.936 23.2717 214.63 23.0381C219.783 23.205 224.779 27.1509 224.993 29.9358C225.133 31.5164 224.078 32.2664 222.432 32.4791C221.725 32.4113 220.971 32.2936 220.206 32.1389C218.589 31.8358 217.018 31.6938 215.506 31.6938C215.1 31.6938 214.7 31.7042 214.306 31.7239C213.894 31.7036 213.494 31.6938 213.094 31.6938C211.883 31.6938 210.706 31.7847 209.57 31.9569L227.822 38.2757C230.482 39.196 231.902 42.1247 230.981 44.7828C230.395 46.485 228.981 47.6801 227.341 48.0783Z" fill="#B5BCD1"/>
<path d="M220.356 103.478H204.991C201.792 103.478 199.195 100.883 199.195 97.682V96.6045C199.195 93.4034 201.792 90.8086 204.991 90.8086H220.356C223.561 90.8086 226.152 93.4034 226.152 96.6045V97.682C226.152 100.883 223.561 103.478 220.356 103.478Z" fill="white"/>
<path d="M218.247 132.677H206.927L204.012 127.906H221.162L218.247 132.677Z" fill="#ACA8AD"/>
<path d="M223.417 92.3389H201.938V93.2859H223.417V92.3389Z" fill="#C9CDCD"/>
<path d="M218.22 117.642L206.535 112.694L206.952 111.721L218.631 116.669L218.22 117.642Z" fill="#71797E"/>
<path d="M218.22 126.524L206.535 121.576L206.952 120.603L218.631 125.551L218.22 126.524Z" fill="#71797E"/>
<path d="M218.22 123.563L206.535 118.615L206.952 117.642L218.631 122.59L218.22 123.563Z" fill="#71797E"/>
<path d="M218.22 120.602L206.535 115.654L206.952 114.681L218.631 119.629L218.22 120.602Z" fill="#71797E"/>
<path d="M195.483 -9C202.588 38.168 193.187 31.2291 240.355 24.1215C193.187 31.2291 200.125 21.8287 207.237 68.9967C200.125 21.8287 209.526 28.767 162.359 35.8751C209.526 28.767 202.588 38.168 195.483 -9Z" fill="white"/>
<path d="M192.738 8.08008C199.844 55.2481 190.442 48.3097 237.61 41.2022C190.442 48.3097 197.38 38.9087 204.486 86.0767C197.38 38.9087 206.781 45.8476 159.613 52.9552C206.781 45.8476 199.844 55.2481 192.738 8.08008Z" fill="white"/>
<path d="M143.962 33.291C151.069 80.459 141.669 73.5207 188.838 66.4131C141.669 73.5207 148.607 64.1196 155.716 111.288C148.607 64.1196 158.008 71.0586 110.84 78.1661C158.008 71.0586 151.069 80.459 143.962 33.291Z" fill="white"/>
<path d="M34.6604 80.3238C34.4963 80.3238 34.3306 80.3111 34.1607 80.285C32.5622 80.0375 31.1376 78.6656 30.6832 77.1934C30.1679 75.523 30.6756 72.9943 39.1841 64.8289C42.8599 61.3015 48.6645 56.1112 57.9241 50.3391C63.4152 46.916 66.3694 45.627 68.238 45.627C68.9115 45.627 69.443 45.7939 69.9026 46.0889C71.227 46.9386 71.9434 48.8489 71.8344 50.5321C71.3898 57.4049 57.4587 56.2608 46.3322 67.9199C40.6963 73.826 38.3512 80.3238 34.6604 80.3238Z" fill="#CFCBCE"/>
<path d="M127.81 241.089C127.311 240.626 126.697 240.348 126.043 240.272L137.218 233.607C137.458 233.462 137.7 233.346 137.942 233.236C140.928 227.208 146.336 222.415 153.306 220.404C154.786 219.975 156.27 219.697 157.75 219.546L158.017 220.456C156.992 220.618 155.969 220.85 154.947 221.14C147.681 223.238 142.043 228.24 138.931 234.517C138.679 234.633 138.427 234.754 138.177 234.905L127.81 241.089Z" fill="#9EADD5"/>
<path d="M158.017 220.456L157.75 219.546C158.262 219.494 158.772 219.459 159.282 219.441C159.422 219.714 159.559 219.975 159.695 220.241C159.136 220.293 158.577 220.363 158.017 220.456Z" fill="#A6B4D8"/>
<path d="M160.168 269.067C155.535 269.067 151.058 267.763 147.212 265.404C146.951 265.444 146.682 265.467 146.402 265.479L133.394 265.78C134.128 265.195 134.569 264.297 134.569 263.253C134.569 262.894 134.516 262.517 134.404 262.129L132.911 256.947C141.171 256.142 149.431 255.342 157.69 254.536C158.137 254.884 158.524 254.971 158.785 254.994C158.83 255 158.875 255 158.921 255C160.158 255 161.493 253.696 162.161 251.661C161.979 251.586 161.796 251.511 161.614 251.43C161.054 253.267 159.929 254.415 158.941 254.415C158.897 254.415 158.853 254.415 158.809 254.409C158.602 254.386 158.277 254.299 157.905 253.945C149.523 254.768 141.139 255.591 132.757 256.414L128.841 242.828C128.632 242.104 128.269 241.519 127.809 241.09L138.176 234.905C138.426 234.755 138.678 234.633 138.93 234.517C142.042 228.24 147.68 223.238 154.946 221.14C155.968 220.85 156.991 220.618 158.016 220.456L159.923 226.93C158.085 228.13 156.749 229.932 156.111 231.984C153.798 233.375 151.046 235.01 147.732 236.864C150.91 235.091 153.65 233.648 155.983 232.442C155.584 234.001 155.582 235.682 156.06 237.34C156.373 238.423 156.865 239.409 157.495 240.267C152.979 242.846 146.818 246.781 137.914 251.754C146.917 246.723 153.54 243.53 158.109 241.02C159.863 242.956 162.38 244.098 165.034 244.098C165.891 244.098 166.762 243.976 167.626 243.727C169.155 243.286 170.483 242.492 171.549 241.455C173.227 245.118 176.486 250.149 180.974 257.788C177.836 262.61 173.014 266.372 167.049 268.093C164.754 268.754 162.442 269.067 160.168 269.067Z" fill="#949EBB"/>
<path d="M159.923 226.931L158.016 220.457C158.576 220.364 159.134 220.294 159.693 220.242C160.787 222.346 161.746 224.172 162.625 225.725C162.567 225.737 162.509 225.754 162.451 225.772C161.531 226.038 160.684 226.432 159.923 226.931Z" fill="#99A3BD"/>
<path d="M181.091 257.602C176.892 249.679 174.311 244.243 172.055 240.922C173.148 239.676 173.898 238.151 174.215 236.517C175.727 239.032 177.576 242.104 179.708 245.924C177.438 241.855 175.719 238.51 174.323 235.81C174.459 234.621 174.368 233.387 174.015 232.164C173.993 232.083 173.969 232.002 173.944 231.921C175.549 231.271 177.428 230.263 179.715 228.941C181.626 231.376 183.11 234.216 184.02 237.375C185.385 242.11 185.277 246.926 183.965 251.32H183.445C183.268 252.212 183.115 253.111 182.986 254.02C182.453 255.267 181.818 256.461 181.091 257.602Z" fill="#949EBB"/>
<path d="M173.77 231.422C172.969 229.312 171.467 227.643 169.613 226.6C169.657 225.55 170.143 224.681 171.125 223.8C171.703 223.626 172.339 223.371 173.047 223.029C175.319 224.409 177.374 226.147 179.116 228.205C176.899 229.399 175.128 230.431 173.77 231.422Z" fill="#949EBB"/>
<path d="M165.054 220.294C164.087 220.178 163.11 220.126 162.125 220.126C161.589 220.126 161.051 220.143 160.511 220.172C160.364 219.929 160.214 219.68 160.062 219.425H160.192C161.751 219.425 163.292 219.575 164.796 219.86C164.883 220.01 164.969 220.155 165.054 220.294Z" fill="#A6B4D8"/>
<path d="M166.556 225.528C166.06 225.447 165.554 225.406 165.043 225.406C164.568 225.406 164.088 225.441 163.607 225.516C162.761 223.963 161.723 222.207 160.508 220.172C161.047 220.143 161.585 220.126 162.121 220.126C163.107 220.126 164.083 220.178 165.051 220.294C165.611 221.216 166.129 221.958 166.645 222.531C166.993 223.714 166.978 224.658 166.556 225.528Z" fill="#99A3BD"/>
<path d="M169.088 221.088C168.004 220.781 166.896 220.543 165.773 220.387C165.715 220.265 165.656 220.149 165.594 220.027C166.787 220.294 167.954 220.648 169.088 221.088Z" fill="#A6B4D8"/>
<path d="M169.607 224.044C169.476 224.044 169.348 224.038 169.223 224.026L169.981 221.453C170.856 221.83 171.709 222.253 172.534 222.728C171.984 223.093 171.516 223.447 171.125 223.8C170.573 223.963 170.072 224.044 169.607 224.044Z" fill="#949EBB"/>
<path d="M169.222 224.027C168.272 223.922 167.463 223.441 166.644 222.531C166.456 221.888 166.162 221.187 165.77 220.387C166.892 220.543 168 220.781 169.084 221.088C169.385 221.204 169.684 221.326 169.98 221.453L169.222 224.027Z" fill="#99A3BD"/>
<path d="M165.037 244.098C162.383 244.098 159.866 242.956 158.113 241.02C160.73 239.589 162.675 238.377 164.003 237.183C164.82 236.94 165.56 236.818 166.248 236.818C167.905 236.818 169.258 237.537 170.627 239.061C170.843 239.791 171.153 240.586 171.552 241.455C170.486 242.492 169.158 243.286 167.629 243.727C166.765 243.976 165.894 244.098 165.037 244.098ZM172.059 240.922C171.571 240.203 171.098 239.583 170.627 239.061C169.868 236.482 170.274 234.662 172.053 232.865C172.669 233.938 173.394 235.143 174.219 236.517C173.903 238.151 173.153 239.676 172.059 240.922ZM157.499 240.267C156.869 239.409 156.376 238.424 156.063 237.34C155.586 235.682 155.587 234.001 155.986 232.442C159.604 230.564 162.243 229.237 164.018 228.049H164.02C162.406 229.063 161.587 231.057 162.141 232.981C162.574 234.482 163.736 235.572 165.132 235.984C164.823 236.383 164.447 236.783 164.003 237.183C162.257 237.699 160.165 238.748 157.499 240.267ZM174.328 235.81C173.669 234.54 173.082 233.41 172.543 232.425C172.987 232.292 173.456 232.123 173.948 231.921C173.973 232.002 173.997 232.083 174.02 232.164C174.373 233.387 174.464 234.621 174.328 235.81ZM170.632 232.79C170.803 232.071 170.798 231.306 170.58 230.553C170.026 228.629 168.269 227.377 166.363 227.377C165.96 227.377 165.55 227.429 165.144 227.545C165.003 227.585 164.865 227.632 164.732 227.69C164.714 227.649 164.697 227.614 164.679 227.579C164.811 227.481 164.936 227.382 165.056 227.284C166.146 227.266 167.228 227.226 168.304 227.156L168.328 227.075C168.858 227.319 169.357 227.719 169.859 228.281C170.202 229.44 170.895 230.831 171.899 232.593C171.456 232.697 171.035 232.761 170.632 232.79Z" fill="#BFC4D6"/>
<path d="M165.055 227.284C165.168 227.192 165.275 227.099 165.378 227.012C165.929 226.85 166.431 226.763 166.896 226.763C167.409 226.763 167.878 226.867 168.327 227.076L168.303 227.157C167.227 227.226 166.144 227.267 165.055 227.284Z" fill="#C2C7D7"/>
<path d="M172.533 232.407C171.527 230.564 170.688 229.202 169.858 228.28C169.676 227.66 169.594 227.11 169.615 226.6C171.469 227.643 172.97 229.312 173.771 231.422C173.312 231.752 172.9 232.083 172.533 232.407ZM156.113 231.984C156.751 229.932 158.087 228.13 159.925 226.93L159.991 227.156C161.167 227.231 162.351 227.278 163.544 227.289C163.615 227.405 163.686 227.521 163.756 227.637C161.87 228.501 159.446 229.984 156.113 231.984Z" fill="#BFC4D6"/>
<path d="M163.541 227.289C162.348 227.278 161.165 227.232 159.989 227.156L159.922 226.93C160.683 226.432 161.53 226.038 162.45 225.771C162.508 225.754 162.566 225.736 162.624 225.725C162.94 226.281 163.244 226.803 163.541 227.289Z" fill="#C2C7D7"/>
<path d="M164.539 227.301C164.538 227.295 164.537 227.295 164.535 227.289H164.561C164.554 227.295 164.547 227.295 164.539 227.301Z" fill="#BFC4D6"/>
<path d="M164.533 227.289C164.256 226.733 163.946 226.141 163.605 225.515C164.087 225.44 164.566 225.405 165.042 225.405C165.553 225.405 166.059 225.446 166.555 225.527C166.306 226.037 165.916 226.524 165.374 227.011C165.114 227.086 164.843 227.179 164.559 227.289H164.533Z" fill="#C2C7D7"/>
<path d="M165.129 235.984C163.733 235.572 162.57 234.483 162.138 232.982C161.583 231.057 162.403 229.064 164.016 228.049C164.659 229.052 165.269 229.881 165.876 230.559C166.527 232.767 166.321 234.425 165.129 235.984ZM170.255 232.802C168.599 232.802 167.246 232.083 165.876 230.559C165.622 229.695 165.236 228.751 164.728 227.69C164.862 227.632 165 227.586 165.141 227.545C165.547 227.429 165.956 227.377 166.359 227.377C168.266 227.377 170.022 228.629 170.576 230.553C170.795 231.307 170.8 232.072 170.628 232.79C170.502 232.796 170.378 232.802 170.255 232.802Z" fill="#F0F3F7"/>
<path d="M129.211 247.511C136.917 243.657 144.623 239.797 152.329 235.937C152.523 235.404 152.803 235.125 153.013 234.969C154.039 234.204 155.935 234.575 157.646 235.995C157.532 236.157 157.417 236.314 157.303 236.476C155.788 235.166 154.15 234.818 153.345 235.45C153.181 235.577 152.953 235.827 152.825 236.325C145.005 240.232 137.185 244.138 129.365 248.05C129.314 247.871 129.262 247.691 129.211 247.511Z" fill="#928F91"/>
<path d="M117.068 263.931L113.204 250.525C112.737 248.902 113.244 247.053 114.395 246.375L123.916 240.759C125.88 239.6 128.167 240.492 128.84 242.828L134.403 262.128C135.076 264.464 133.613 266.435 131.334 266.499L120.285 266.812C118.95 266.852 117.535 265.554 117.068 263.931Z" fill="#928F91"/>
<path d="M157.307 253.87C157.035 253.087 161.312 251.731 161.082 250.931C160.852 250.131 156.581 251.366 156.351 250.566C156.12 249.766 160.391 248.531 160.161 247.732C159.93 246.932 155.659 248.166 155.429 247.366C155.198 246.567 159.469 245.332 159.239 244.532C159.007 243.732 154.736 244.961 154.505 244.161C154.274 243.361 158.546 242.127 158.315 241.327C158.084 240.527 153.812 241.756 153.582 240.956C153.35 240.15 157.621 238.922 157.39 238.116C157.158 237.316 152.823 238.458 152.629 237.641L155.481 239.241L154.325 234.946L155.634 239.194L154.483 234.899L155.795 239.148L154.644 234.853L155.955 239.101L154.805 234.807L156.122 239.055L157.691 236.169C157.964 236.951 153.686 238.307 153.916 239.107C154.146 239.907 158.417 238.673 158.647 239.472C158.878 240.272 154.607 241.507 154.838 242.307C155.068 243.106 159.339 241.872 159.57 242.672C159.801 243.472 155.529 244.706 155.76 245.506C155.991 246.306 160.262 245.077 160.493 245.877C160.724 246.677 156.453 247.911 156.684 248.711C156.914 249.511 161.186 248.282 161.417 249.082C161.649 249.888 157.378 251.116 157.609 251.922C157.841 252.722 162.175 251.58 162.37 252.397L159.518 250.798L160.674 255.092L159.365 250.844L160.515 255.139L159.203 250.89L160.354 255.185L159.044 250.937L160.194 255.232L158.733 251.029C157.637 251.429 157.322 253.916 157.307 253.87Z" fill="white"/>
<path d="M151.311 204.471C171.803 241.165 161.899 238.36 198.589 217.865C161.899 238.36 164.705 228.454 185.197 265.143C164.705 228.454 174.609 231.26 137.918 251.754C174.609 231.26 171.803 241.165 151.311 204.471Z" fill="white"/>
<path d="M173.535 222.793C173.326 222.688 173.114 222.59 172.902 222.491C175.529 220.822 179.815 218.822 186.059 215.438V215.478C180.171 218.863 176.309 221.39 173.535 222.793Z" fill="#C4CEE6"/>
<path d="M173.048 223.029C172.878 222.931 172.707 222.826 172.535 222.728C172.655 222.647 172.777 222.571 172.903 222.49C173.115 222.589 173.327 222.687 173.536 222.792C173.369 222.873 173.207 222.954 173.048 223.029Z" fill="#BFC4D6"/>
<path d="M186.059 215.477V215.437C186.925 214.967 187.826 214.469 188.769 213.941C187.821 214.475 186.918 214.985 186.059 215.477Z" fill="#FFFFFC"/>
<path d="M165.592 220.028C165.328 219.964 165.062 219.912 164.795 219.86C162.986 216.782 160.712 211.902 156.793 204.889C160.911 212.261 163.974 216.852 165.592 220.028Z" fill="#C9D2E8"/>
<path d="M179.712 245.924C177.579 242.104 175.731 239.033 174.218 236.517C174.263 236.285 174.3 236.048 174.327 235.81C175.722 238.511 177.441 241.855 179.712 245.924ZM147.734 236.865C151.048 235.01 153.8 233.376 156.114 231.985C156.067 232.135 156.024 232.286 155.985 232.443C153.653 233.648 150.912 235.091 147.734 236.865ZM169.615 226.6C169.29 226.421 168.954 226.258 168.609 226.113L169.225 224.027C169.35 224.038 169.478 224.044 169.609 224.044C170.074 224.044 170.575 223.963 171.127 223.801C170.145 224.682 169.659 225.551 169.615 226.6Z" fill="#DFE2EC"/>
<path d="M168.605 226.113C167.95 225.841 167.262 225.644 166.555 225.528C166.977 224.658 166.992 223.714 166.643 222.531C167.461 223.441 168.271 223.922 169.221 224.027L168.605 226.113Z" fill="#E0E3EC"/>
<path d="M171.125 223.801C171.515 223.447 171.983 223.094 172.533 222.729C172.706 222.827 172.877 222.931 173.046 223.03C172.338 223.372 171.703 223.627 171.125 223.801Z" fill="#DFE2EC"/>
<path d="M165.77 220.387C165.531 220.352 165.291 220.317 165.051 220.294C164.966 220.155 164.88 220.01 164.793 219.859C165.06 219.912 165.326 219.964 165.59 220.027C165.653 220.149 165.712 220.265 165.77 220.387Z" fill="#E4E8F4"/>
<path d="M166.645 222.531C166.129 221.957 165.611 221.216 165.051 220.294C165.291 220.317 165.531 220.352 165.77 220.387C166.163 221.186 166.457 221.888 166.645 222.531Z" fill="#E0E3EC"/>
<path d="M174.218 236.517C173.392 235.143 172.667 233.938 172.051 232.866C172.193 232.721 172.343 232.576 172.502 232.437C172.516 232.431 172.528 232.431 172.542 232.425C173.081 233.41 173.668 234.541 174.326 235.81C174.299 236.048 174.262 236.285 174.218 236.517ZM171.898 232.593C170.894 230.831 170.2 229.44 169.858 228.281C170.688 229.203 171.527 230.565 172.533 232.408C172.523 232.419 172.513 232.425 172.502 232.437C172.296 232.495 172.095 232.553 171.898 232.593ZM155.984 232.442C156.024 232.286 156.067 232.135 156.113 231.985C159.446 229.985 161.87 228.501 163.756 227.638C163.844 227.777 163.93 227.91 164.016 228.049C162.241 229.237 159.602 230.565 155.984 232.442ZM169.858 228.281C169.355 227.719 168.856 227.319 168.326 227.075L168.609 226.113C168.953 226.258 169.29 226.42 169.615 226.6C169.593 227.11 169.676 227.661 169.858 228.281Z" fill="#ECEFF4"/>
<path d="M168.324 227.075C167.876 226.866 167.406 226.762 166.894 226.762C166.428 226.762 165.927 226.849 165.375 227.011C165.916 226.524 166.307 226.037 166.556 225.527C167.263 225.643 167.951 225.84 168.606 226.113L168.324 227.075Z" fill="#EEF0F4"/>
<path d="M164.676 227.58C164.632 227.487 164.585 227.394 164.539 227.302C164.547 227.296 164.554 227.296 164.561 227.29C164.725 227.29 164.889 227.29 165.053 227.284C164.933 227.383 164.808 227.481 164.676 227.58Z" fill="#ECEFF4"/>
<path d="M164.562 227.29C164.847 227.18 165.117 227.087 165.377 227.012C165.275 227.099 165.168 227.191 165.055 227.284C164.891 227.29 164.727 227.29 164.562 227.29Z" fill="#EEF0F4"/>
<path d="M172.049 232.865C171.997 232.772 171.946 232.685 171.895 232.592C172.093 232.552 172.294 232.494 172.5 232.436C172.341 232.575 172.19 232.72 172.049 232.865ZM172.5 232.436C172.51 232.424 172.52 232.419 172.531 232.407C172.534 232.413 172.537 232.419 172.539 232.424C172.526 232.43 172.513 232.43 172.5 232.436ZM164.014 228.048C163.928 227.909 163.841 227.776 163.754 227.637C164.026 227.509 164.287 227.399 164.538 227.301C164.584 227.394 164.631 227.486 164.675 227.579C164.47 227.735 164.25 227.886 164.014 228.048Z" fill="white"/>
</g>
<defs>
<clipPath id="clip0">
<rect width="245" height="241" fill="white"/>
</clipPath>
</defs>
</svg>
