<svg width="279" height="232" viewBox="0 0 279 232" fill="none" xmlns="http://www.w3.org/2000/svg">
<path d="M193.237 150.082C183.316 150.044 172.897 149.53 162.048 148.387C161.065 148.284 160.087 148.176 159.115 148.064C159.696 146.786 160.419 145.584 161.265 144.481C171.719 145.516 181.77 145.97 191.348 145.981C192.138 147.254 192.776 148.63 193.237 150.082ZM203.016 149.965C202.813 148.543 202.501 147.154 202.088 145.808C211.264 145.503 219.951 144.809 228.091 143.862C228.175 143.872 228.257 143.876 228.339 143.876C228.555 143.876 228.764 143.844 228.961 143.785H230.8C230.884 143.776 230.966 143.771 231.048 143.771C232.239 143.771 233.219 144.746 233.219 145.875C233.219 147.004 232.239 147.979 231.048 147.979C230.966 147.979 230.883 147.974 230.8 147.965C222.135 148.973 212.851 149.694 203.016 149.965ZM140.41 147.965H137.707V145.33V141.229C141.828 141.96 146.07 142.627 150.432 143.215C149.948 144.361 149.54 145.546 149.215 146.763C146.221 146.32 143.285 145.841 140.41 145.33V147.965ZM237.609 142.546H230.352C230.454 142.305 230.51 142.043 230.51 141.772C230.511 140.644 229.53 139.668 228.34 139.668C228.258 139.668 228.175 139.673 228.091 139.682H204.71V138.444H234.9C236.781 138.324 238.282 136.904 238.518 135.178C240.225 135.712 241.385 137.354 241.248 139.081C241.105 140.896 239.562 142.422 237.609 142.546ZM243.106 133.381C242.943 133.381 242.778 133.374 242.611 133.358H238.288C237.759 132.038 236.479 131.015 234.9 130.904H204.71V129.256H239.902C240.069 129.271 240.234 129.279 240.397 129.279C242.899 129.279 244.879 127.495 245.086 125.591C245.09 125.551 245.094 125.51 245.097 125.47C246.872 126.296 247.971 128.075 247.795 129.694C247.588 131.598 245.608 133.381 243.106 133.381ZM239.902 120.909H204.71V119.088H232.399C232.646 119.121 232.889 119.136 233.128 119.136C235.788 119.136 237.84 117.2 238.033 115.271C239.728 116.069 240.814 117.693 240.754 119.195C240.731 119.774 240.536 120.359 240.204 120.898C240.104 120.899 240.004 120.902 239.902 120.909ZM210.024 110.705H204.71C194.305 109.928 191.47 109.574 191.478 109.41C191.481 109.354 191.816 109.336 192.388 109.336C192.86 109.336 193.493 109.348 194.233 109.36C194.974 109.372 195.823 109.384 196.723 109.384C200.856 109.384 206.091 109.131 207.14 107.465C207.615 107.664 208.086 107.94 208.515 108.325C209.058 108.811 209.908 109.806 210.024 110.705Z" fill="#3C1C13"/>
<path d="M225.06 202.56C217.861 202.56 210.393 202.31 202.689 201.752C202.923 200.657 203.091 199.538 203.188 198.399C209.749 198.806 216.131 198.99 222.316 198.99C235.371 198.99 247.549 198.168 258.7 196.871C258.784 196.88 258.867 196.885 258.949 196.885C259.542 196.885 260.082 196.643 260.476 196.261H261.444C261.528 196.252 261.61 196.247 261.692 196.247C262.883 196.247 263.864 197.222 263.864 198.351C263.864 199.48 262.883 200.455 261.693 200.455C261.611 200.455 261.528 200.45 261.444 200.441C250.293 201.738 238.115 202.56 225.06 202.56ZM194.086 201.007C193.623 200.96 193.157 200.913 192.693 200.864C185.151 200.069 177.933 199.028 171.054 197.807V200.441H168.352V197.807V194.244C175.218 195.462 182.423 196.501 189.949 197.293C191.336 197.439 192.713 197.575 194.086 197.701V201.007ZM268.253 195.023H261.105C261.115 194.943 261.12 194.863 261.12 194.781C261.12 193.652 260.139 192.677 258.949 192.677C258.867 192.677 258.784 192.682 258.7 192.691H235.319V191.452H265.509C267.462 191.328 269.005 189.802 269.149 187.988C269.157 187.876 269.161 187.764 269.159 187.653C270.868 188.186 272.029 189.829 271.892 191.558C271.749 193.372 270.206 194.898 268.253 195.023ZM273.75 185.857C273.587 185.857 273.422 185.85 273.255 185.834H268.634C268.006 184.779 266.869 184.008 265.509 183.912H235.319V182.264H270.512C270.678 182.28 270.843 182.287 271.006 182.287C273.508 182.287 275.488 180.504 275.695 178.6C275.719 178.377 275.719 178.152 275.697 177.926C277.498 178.742 278.617 180.537 278.439 182.17C278.232 184.074 276.252 185.857 273.75 185.857ZM270.453 173.918H235.319V172.097H263.008C263.255 172.129 263.499 172.145 263.737 172.145C266.479 172.145 268.575 170.087 268.655 168.101C268.66 167.979 268.657 167.856 268.647 167.733C270.359 168.527 271.459 170.16 271.398 171.671C271.367 172.452 271.024 173.244 270.453 173.918ZM240.639 163.714H235.319C224.914 162.937 222.079 162.583 222.088 162.419C222.09 162.362 222.426 162.345 222.997 162.345C223.47 162.345 224.103 162.357 224.843 162.369C225.584 162.381 226.432 162.393 227.332 162.393C231.732 162.393 237.38 162.107 237.898 160.134C237.909 160.091 237.918 160.047 237.925 160.003C238.352 160.196 238.773 160.455 239.16 160.801C239.81 161.384 240.905 162.701 240.642 163.704C240.641 163.707 240.64 163.71 240.639 163.714Z" fill="#3C1C13"/>
<path d="M239.904 129.255C242.635 129.509 244.867 127.618 245.088 125.59C245.336 123.307 243.05 120.706 239.904 120.908H204.712V119.087H232.401C235.492 119.494 237.961 117.25 238.047 115.091C238.137 112.84 235.651 110.316 232.401 110.704H204.712C194.307 109.927 191.472 109.573 191.48 109.409C191.485 109.306 192.6 109.333 194.235 109.359C198.598 109.43 206.667 109.5 207.291 107.124C207.554 106.121 206.459 104.805 205.808 104.221C204.294 102.864 202.257 102.854 201.361 102.862C187.857 102.985 181.106 103.047 178.387 103.789C169.596 106.189 163.162 110.397 159.21 113.516C152.041 113.503 144.872 113.489 137.703 113.476V111.644H135V143.861H137.703V141.227C144.581 142.448 151.8 143.49 159.341 144.284C184.953 146.98 208.167 146.179 228.093 143.861C229.393 144.008 230.512 142.978 230.512 141.771C230.513 140.565 229.393 139.534 228.093 139.681H204.712V138.443H234.902C236.855 138.318 238.398 136.792 238.541 134.978C238.701 132.958 237.089 131.056 234.902 130.903H204.712V129.255H239.904Z" fill="#FFC50A"/>
<path d="M270.513 182.264C273.244 182.519 275.476 180.628 275.696 178.6C275.944 176.316 273.658 173.715 270.513 173.918H235.32V172.097H263.009C266.1 172.503 268.569 170.26 268.656 168.101C268.746 165.849 266.26 163.325 263.009 163.714H235.32C224.915 162.937 222.08 162.583 222.089 162.419C222.094 162.316 223.208 162.342 224.844 162.369C229.206 162.439 237.275 162.51 237.899 160.134C238.163 159.131 237.068 157.814 236.417 157.231C234.902 155.874 232.865 155.864 231.97 155.872C218.466 155.995 211.714 156.057 208.995 156.799C200.205 159.198 193.771 163.407 189.819 166.526C182.65 166.513 175.481 166.499 168.311 166.486V164.654H165.609V196.871H168.311V194.236C175.19 195.458 182.408 196.499 189.95 197.293C215.561 199.99 238.776 199.189 258.701 196.871C260.001 197.018 261.121 195.987 261.121 194.781C261.121 193.575 260.001 192.544 258.701 192.691H235.32V191.452H265.51C267.463 191.328 269.006 189.802 269.15 187.988C269.309 185.968 267.697 184.066 265.51 183.912H235.32V182.264H270.513Z" fill="#F99E1B"/>
<path d="M197.144 213.314H192.723C193.599 211.181 194.085 208.851 194.085 206.412V201.007C196.985 201.299 199.851 201.546 202.688 201.752C201.769 206.06 199.832 210.002 197.144 213.314Z" fill="#3B1D12"/>
<path d="M202.689 201.752C199.852 201.546 196.986 201.299 194.086 201.007V197.701C197.155 197.982 200.192 198.214 203.188 198.399C203.091 199.538 202.923 200.657 202.689 201.752Z" fill="#28140E"/>
<path d="M158.854 213.314H154.432C150.596 208.587 148.289 202.576 148.289 196.049V153.824C148.289 151.385 148.611 149.018 149.215 146.763C152.447 147.241 155.748 147.677 159.115 148.064C158.073 150.359 157.492 152.903 157.492 155.577V206.412C157.492 208.851 157.977 211.181 158.854 213.314ZM194.085 163.474V155.577C194.085 153.664 193.787 151.818 193.237 150.082C193.63 150.083 194.024 150.084 194.416 150.084C197.326 150.084 200.194 150.043 203.016 149.965C203.195 151.227 203.288 152.515 203.288 153.824V158.713C199.696 160.15 196.625 161.835 194.085 163.474ZM165.371 109.297L162.581 94.028L170.502 75L172.543 75.593L171.273 92.439L168.552 96.045C168.03 97.524 168.326 99.163 169.334 100.328C170.477 101.649 172.048 101.797 172.699 101.797C172.844 101.797 172.944 101.79 172.982 101.786L173.383 105.428C170.355 106.59 167.681 107.935 165.371 109.297ZM178.351 103.799L178.57 101.895C178.609 101.899 178.716 101.907 178.872 101.907C179.534 101.907 181.086 101.756 182.224 100.453C183.237 99.293 183.541 97.656 183.026 96.175L180.321 92.556L179.13 75.705L181.174 75.121L189.006 94.184L187.344 103.05C182.743 103.169 179.921 103.371 178.385 103.79C178.374 103.793 178.362 103.796 178.351 103.799Z" fill="#3B1D12"/>
<path d="M194.416 150.084C194.024 150.084 193.63 150.083 193.237 150.082C192.776 148.63 192.138 147.254 191.348 145.981H191.707C195.232 145.981 198.693 145.922 202.088 145.808C202.501 147.154 202.813 148.543 203.016 149.965C200.194 150.043 197.326 150.084 194.416 150.084ZM159.115 148.064C155.748 147.677 152.447 147.241 149.215 146.763C149.54 145.546 149.948 144.361 150.432 143.215C153.348 143.609 156.318 143.966 159.339 144.285C159.983 144.352 160.624 144.418 161.265 144.481C160.419 145.584 159.696 146.786 159.115 148.064Z" fill="#28140E"/>
<path d="M191.709 145.981H191.35C188.117 140.769 182.342 137.281 175.791 137.281C169.89 137.281 164.619 140.111 161.267 144.481C160.626 144.418 159.985 144.352 159.341 144.285C156.32 143.966 153.35 143.609 150.434 143.215C151.789 140.003 153.739 137.097 156.144 134.636C155.925 132.716 155.706 130.795 155.487 128.875C157.925 128.503 160.364 128.131 162.802 127.759L166.461 122.744C166.429 122.432 166.412 122.115 166.412 121.795C166.412 119.072 167.58 116.627 169.434 114.914L165.828 111.787L165.373 109.297C167.683 107.935 170.357 106.59 173.385 105.428L174.173 112.566C174.699 112.475 175.238 112.417 175.791 112.417C176.322 112.417 176.839 112.472 177.346 112.557L178.353 103.799C178.364 103.796 178.376 103.793 178.387 103.79C179.923 103.371 182.745 103.169 187.346 103.05L185.681 111.929L182.175 114.94C184.013 116.652 185.168 119.086 185.168 121.795C185.168 122.115 185.152 122.432 185.12 122.744L189.059 128.143C191.502 128.515 193.945 128.886 196.388 129.258C196.236 131.225 196.085 133.192 195.934 135.159C198.726 138.168 200.857 141.796 202.09 145.808C198.695 145.922 195.234 145.981 191.709 145.981Z" fill="#AB852E"/>
<path d="M203.188 198.399C200.192 198.214 197.155 197.982 194.086 197.701V163.474C196.626 161.835 199.697 160.15 203.289 158.713V196.049C203.289 196.841 203.255 197.624 203.188 198.399Z" fill="#AB6C28"/>
<path d="M193.268 135.159C193.419 133.192 193.571 131.225 193.722 129.258C191.279 128.886 188.836 128.515 186.393 128.143L179.808 119.116H166.441L160.137 127.759C157.698 128.131 155.26 128.503 152.821 128.875C153.04 130.795 153.259 132.716 153.478 134.637C148.627 139.601 145.625 146.378 145.625 153.824V196.049C145.625 202.576 147.933 208.587 151.769 213.314H156.19C155.314 211.181 154.828 208.851 154.828 206.412V155.577C154.828 145.514 163.062 137.281 173.125 137.281C183.188 137.281 191.421 145.514 191.421 155.577V206.412C191.421 208.851 190.936 211.181 190.059 213.314H194.481C198.317 208.587 200.624 202.576 200.624 196.049V153.824C200.624 146.635 197.826 140.071 193.268 135.159Z" fill="#D44327"/>
<path d="M168.346 116.284L163.159 111.787L159.914 94.028L167.835 75L169.875 75.594L168.607 92.439L165.885 96.045C165.363 97.524 165.66 99.163 166.667 100.328C168.066 101.945 170.106 101.804 170.315 101.786L171.933 116.455L168.346 116.284Z" fill="#CECDCD"/>
<path d="M177.807 116.402L183.014 111.929L186.342 94.1851L178.509 75.1211L176.466 75.7051L177.656 92.5561L180.361 96.1751C180.876 97.6561 180.572 99.2931 179.559 100.453C178.153 102.064 176.114 101.914 175.905 101.895L174.219 116.556L177.807 116.402Z" fill="#CECDCD"/>
<path d="M182.502 121.795C182.502 126.974 178.303 131.173 173.124 131.173C167.944 131.173 163.746 126.974 163.746 121.795C163.746 116.616 167.944 112.417 173.124 112.417C178.303 112.417 182.502 116.616 182.502 121.795Z" fill="#CECDCD"/>
<path d="M177.896 121.794C177.896 124.43 175.759 126.566 173.124 126.566C170.488 126.566 168.352 124.43 168.352 121.794C168.352 119.159 170.488 117.022 173.124 117.022C175.759 117.022 177.896 119.159 177.896 121.794Z" fill="#9A9A9B"/>
<path d="M156.363 135.777C152.763 137.239 151.041 140.25 149.79 142.515C146.105 149.181 146.665 156.17 147.16 159.442C147.373 156.723 148.037 152.742 150.118 148.431C153.815 140.774 159.738 136.731 162.444 135.12C161.108 134.92 158.813 134.782 156.363 135.777Z" fill="#F99F1B"/>
<path d="M198.595 195.103C200.413 196.77 198.913 200.939 197.938 203.648C197.24 205.586 195.924 208.526 193.336 211.701C194.616 208.378 194.984 205.491 194.98 203.155C194.972 198.809 193.676 195.905 195.144 194.774C196.055 194.072 197.715 194.295 198.595 195.103Z" fill="#F99F1B"/>
<g clip-path="url(#clip0)">
<path d="M65.0096 137.344C57.4851 144.083 49.7242 148.024 43.7305 150.371L91.5009 165.777V167.137L93.6098 166.458L95.7177 167.137V165.777L143.489 150.372C137.495 148.024 129.733 144.083 122.21 137.344C119.583 134.992 117.343 132.617 115.44 130.348C114.845 121.887 114.251 113.425 113.657 104.964H73.5627C72.9681 113.425 72.3745 121.887 71.7799 130.348C69.8764 132.617 67.6361 134.992 65.0096 137.344Z" fill="#FCC298"/>
<path d="M178.865 163.93C172.642 157.275 163.918 155.578 158.756 155.066C148.001 150.011 137.245 144.957 126.49 139.902C115.53 148.772 104.571 157.642 93.6109 166.512C82.6512 157.642 71.6914 148.772 60.7317 139.902C49.9763 144.957 39.2209 150.011 28.4656 155.065C23.303 155.578 14.5796 157.274 8.35718 163.93C4.20373 168.372 1.94406 174.335 0.640994 200.786C0.250757 208.728 -0.105417 219.602 0.0288786 232.628C12.2352 232.609 24.4425 232.589 36.6489 232.57C37.117 241.59 37.5841 250.609 38.0522 259.63C56.3855 259.528 74.7199 259.427 93.0542 259.326V259.338C93.2401 259.336 93.425 259.334 93.6109 259.332C93.7968 259.334 93.9816 259.336 94.1675 259.338V259.326C112.249 259.194 130.33 259.062 148.412 258.93C148.646 250.143 148.88 241.356 149.114 232.57C161.769 232.628 174.425 232.686 187.081 232.745C187.289 219.616 186.957 208.692 186.58 200.786C185.309 174.162 182.9 168.247 178.865 163.93Z" fill="#20488D"/>
<path d="M4.22694 182.847C4.18315 181.484 4.01771 170.539 12.8783 163.252C18.8681 158.327 25.5683 157.88 28.1939 157.88C28.4197 157.88 28.6153 157.883 28.7778 157.887C24.9377 159.265 16.9169 162.763 10.5408 170.95C7.12597 175.335 5.26822 179.672 4.22694 182.847Z" fill="#778EB9"/>
<path d="M134.064 69.5687C133.795 68.157 133.012 65.9443 131.788 64.9336C133.028 55.2227 132.804 48.4584 130.136 42.4602C129.663 41.397 118.024 16.308 94.0934 15.8653C75.4632 15.5206 61.7747 30.3414 56.5479 42.4602C54.2824 47.7118 54.2386 54.4178 55.5426 64.5918C54.0138 65.3219 53.0406 67.9618 52.735 69.5687C51.9127 73.8862 54.2386 79.3951 58.1604 81.3166C58.5049 83.3292 58.8699 85.4322 59.2513 87.6381C60.2566 93.4373 61.7952 100.801 67.6234 107.379C70.5984 110.737 74.0034 113.102 77.3317 114.77C75.7561 117.678 73.8526 122.219 73.7115 127.88C73.3806 141.184 82.8787 156.888 93.4345 156.732C103.782 156.58 112.286 141.232 112.526 128.639C112.634 122.921 111.029 118.265 109.684 115.29C112.471 113.967 115.282 112.153 117.853 109.657C124.536 103.167 126.475 95.1295 127.746 88.3973C128.236 85.806 128.697 83.3622 129.128 81.0379C132.748 78.9136 134.851 73.7008 134.064 69.5687Z" fill="#FCC298"/>
<path d="M54.2152 68.3738C51.1409 54.9114 56.6091 38.1352 56.6091 38.1352C59.5967 28.965 61.7318 22.7212 67.2156 20.9755C69.6339 20.2065 71.9315 20.5561 73.4973 20.9755C74.0812 19.4473 75.1303 17.3696 77.0863 15.6045C82.9808 10.2869 92.2326 12.2034 97.1266 13.217C101.021 14.0239 124.877 19.5036 132.122 40.6712C132.122 40.6712 135.972 51.919 132.383 65.9864C131.693 68.6904 130.389 70.7613 130.389 70.7613C129.173 72.6944 127.773 73.9769 126.8 74.74C127.193 49.0471 122.594 41.7324 118.026 40.1246C111.691 37.8954 106.849 47.1451 94.0972 47.684C87.7901 47.95 83.0703 45.9198 79.167 43.8897C74.5104 41.4673 71.0158 39.0449 67.3771 40.5216C62.9259 42.3285 58.5885 49.8248 60.3363 76.1828C59.3456 75.7206 57.7808 74.8323 56.4466 73.1983C54.909 71.3128 54.4419 69.3651 54.2152 68.3738Z" fill="#915725"/>
<path d="M35.8984 151.209C38.5104 173.295 41.1224 195.381 43.7343 217.466L36.6517 232.571L38.0549 264.853C74.4317 265.661 110.809 266.47 147.186 267.278C147.829 255.709 148.473 244.14 149.117 232.571L140.326 219.367C144.011 196.521 147.694 173.676 151.378 150.83C146.474 148.294 141.568 145.757 136.663 143.221C133.945 164.42 131.228 185.62 128.511 206.82C105.008 206.566 81.5056 206.313 58.0028 206.059C55.0269 185.362 52.0529 164.663 49.0779 143.965C44.6841 146.38 40.2913 148.795 35.8984 151.209Z" fill="#F99E1B"/>
<path d="M108.292 260.046C112.813 262.457 117.333 264.868 121.853 267.279C126.374 265.567 130.894 263.856 135.414 262.146C137.207 250.249 138.999 238.353 140.792 226.455C129.335 225.677 117.879 224.901 106.422 224.123C107.045 236.097 107.668 248.072 108.292 260.046Z" fill="#A2B1C9"/>
<path d="M143.352 206.878L126.852 203.504C125.501 203.228 124.621 201.899 124.899 200.55L124.921 200.444C125.198 199.095 126.53 198.218 127.882 198.494L144.381 201.868C145.733 202.145 146.612 203.474 146.335 204.821L146.313 204.929C146.036 206.277 144.704 207.154 143.352 206.878Z" fill="#A2B1C9"/>
<path d="M41.6546 206.878L58.1546 203.504C59.5053 203.228 60.3851 201.899 60.1087 200.55L60.0863 200.444C59.8089 199.095 58.4767 198.218 57.126 198.494L40.626 201.868C39.2743 202.145 38.3955 203.474 38.6719 204.821L38.6943 204.929C38.9717 206.277 40.3039 207.154 41.6546 206.878Z" fill="#A2B1C9"/>
<path d="M136.079 233.509L109.597 229.822C108.852 229.719 108.327 229.026 108.431 228.282L108.44 228.223C108.543 227.48 109.238 226.957 109.983 227.061L136.465 230.747C137.21 230.85 137.735 231.544 137.631 232.286L137.622 232.346C137.518 233.089 136.824 233.612 136.079 233.509Z" fill="#255676"/>
<path d="M112.184 232.434C112.184 233.067 111.67 233.58 111.035 233.58C110.402 233.58 109.887 233.067 109.887 232.434C109.887 231.802 110.402 231.288 111.035 231.288C111.67 231.288 112.184 231.802 112.184 232.434Z" fill="#255676"/>
<path d="M36.6655 232.525C35.4997 219.244 34.3338 205.963 33.168 192.682C35.9386 202.539 38.7101 212.398 41.4817 222.255L36.6655 232.525Z" fill="#1F3C74"/>
<path d="M41.7926 259.001C40.7095 253.439 39.6274 247.879 38.5442 242.318C37.9224 239.088 37.2996 235.858 36.6767 232.629C36.6738 232.594 36.6709 232.56 36.668 232.525L41.4841 222.255C44.6722 233.595 47.8593 244.934 51.0484 256.274C54.3756 255.575 58.4405 254.802 63.0601 254.064C63.1175 254.736 63.1759 255.405 63.2333 256.078C63.1642 256.085 63.0941 256.092 63.0241 256.099C58.277 256.592 54.3046 257.14 51.4415 257.571C48.1727 258.007 44.9554 258.486 41.7926 259.001Z" fill="#D58628"/>
<path d="M93.2401 206.44C81.8006 206.316 70.3591 206.193 58.9186 206.07C58.8398 205.158 58.762 204.243 58.6831 203.332C59.7215 202.859 60.3394 201.712 60.101 200.552L60.0786 200.445C59.8821 199.49 59.1561 198.77 58.2686 198.531C56.8721 182.357 55.4775 166.182 54.082 150.008C67.1876 161.148 80.2931 172.289 93.3987 183.429V192.177C93.3461 196.931 93.2926 201.685 93.2401 206.44Z" fill="#4967A0"/>
<path d="M63.0636 254.065C61.6827 238.065 60.3028 222.069 58.9219 206.069C70.3623 206.193 81.8038 206.316 93.2433 206.44C93.0788 221.3 92.9134 236.158 92.7489 251.018C92.6243 251.023 92.4988 251.029 92.3733 251.034C81.5021 251.517 71.3822 252.736 63.0636 254.065Z" fill="#FBAE27"/>
<path d="M58.688 203.33C58.5498 201.729 58.4116 200.131 58.2734 198.53C59.161 198.769 59.8869 199.489 60.0835 200.444L60.1059 200.551C60.3443 201.711 59.7264 202.858 58.688 203.33Z" fill="#B2BDD1"/>
<path d="M93.6112 166.513C93.5946 166.501 93.579 166.487 93.5625 166.475L93.6112 166.459L93.6588 166.475C93.6433 166.487 93.6267 166.501 93.6112 166.513ZM136.467 144.592C136.418 144.569 136.369 144.547 136.319 144.524C136.376 144.085 136.432 143.646 136.489 143.206C136.543 143.234 136.597 143.262 136.651 143.291C136.598 143.711 136.544 144.133 136.49 144.554L136.467 144.592Z" fill="#3D1E14"/>
<path d="M136.482 144.599C136.477 144.597 136.47 144.594 136.465 144.591L136.487 144.552C136.485 144.567 136.484 144.583 136.482 144.599Z" fill="#492A1A"/>
<path d="M125.875 140.403C125.842 140.377 125.81 140.353 125.777 140.328C125.957 140.181 126.138 140.035 126.318 139.89C126.358 139.908 126.399 139.928 126.439 139.946C126.251 140.098 126.062 140.251 125.875 140.403Z" fill="#3D1E14"/>
<path d="M93.6563 166.475L93.6086 166.459L93.56 166.475C93.5064 166.431 93.452 166.388 93.3984 166.344V156.734C93.4101 156.734 93.4227 156.733 93.4335 156.733C103.781 156.581 112.285 141.233 112.525 128.64C112.633 122.921 111.028 118.266 109.683 115.291C111.139 114.6 112.603 113.775 114.034 112.788C114.445 118.637 114.856 124.485 115.266 130.335C117.17 132.604 119.41 134.978 122.037 137.33C123.256 138.423 124.481 139.434 125.704 140.384C125.728 140.366 125.751 140.346 125.774 140.328C125.808 140.353 125.839 140.377 125.872 140.403C115.134 149.094 104.395 157.784 93.6563 166.475Z" fill="#E4AD86"/>
<path d="M186.906 232.731C175.352 232.678 163.798 232.624 152.243 232.571H157.598C155.047 215.871 152.497 199.169 149.948 182.469C149.806 189.532 149.664 196.595 149.521 203.659L145.489 227.129L140.321 219.368C141.003 215.139 141.686 210.907 142.368 206.678L143.348 206.879C143.516 206.913 143.685 206.93 143.85 206.93C145.015 206.93 146.067 206.111 146.309 204.931L146.331 204.823C146.608 203.475 145.729 202.146 144.377 201.869L143.182 201.625C145.871 184.95 148.56 168.28 151.249 151.606C153.693 152.754 156.137 153.903 158.582 155.052C163.744 155.564 172.468 157.26 178.69 163.916C182.726 168.233 185.134 174.148 186.405 200.773C186.783 208.678 187.116 219.603 186.906 232.731ZM128.506 206.82C116.804 206.694 105.101 206.567 93.3984 206.441V192.177C93.4306 189.289 93.4627 186.399 93.4948 183.512C93.4627 183.484 93.4306 183.456 93.3984 183.429V166.467L93.4364 166.498L93.4841 166.459L93.4364 166.443L93.3984 166.456V166.343C93.452 166.387 93.5064 166.43 93.56 166.474C93.5765 166.487 93.5921 166.5 93.6086 166.513C93.6242 166.5 93.6407 166.487 93.6563 166.474C104.395 157.784 115.134 149.093 125.872 140.403C126.06 140.25 126.248 140.098 126.436 139.945C129.727 141.492 133.018 143.039 136.309 144.585C136.312 144.564 136.314 144.543 136.317 144.523C136.366 144.546 136.415 144.569 136.465 144.592C136.47 144.595 136.476 144.598 136.481 144.6C134.164 162.679 131.847 180.755 129.53 198.833L127.877 198.495C127.709 198.461 127.542 198.445 127.376 198.445C126.21 198.445 125.159 199.264 124.917 200.445L124.895 200.552C124.617 201.9 125.497 203.23 126.848 203.505L128.878 203.921C128.754 204.887 128.63 205.854 128.506 206.82Z" fill="#1E407D"/>
<path d="M157.599 232.571H152.244C151.201 232.566 150.157 232.561 149.113 232.557L149.845 201.779L149.522 203.659C149.665 196.595 149.807 189.532 149.949 182.469C152.499 199.169 155.049 215.871 157.599 232.571Z" fill="#6B7FA5"/>
<path d="M93.3984 156.733V52.2695H125.267C126.341 57.4541 126.951 64.6912 126.797 74.74C127.77 73.9769 129.17 72.6943 130.386 70.7613C130.386 70.7613 131.69 68.6903 132.38 65.9864C132.393 65.9378 132.405 65.8893 132.417 65.8398C133.182 66.9573 133.687 68.4816 133.891 69.5525C134.678 73.6847 132.575 78.8974 128.955 81.0227C128.524 83.3461 128.062 85.7898 127.573 88.3812C126.302 95.1134 124.362 103.151 117.68 109.641C116.503 110.784 115.276 111.776 114.025 112.651C114.027 112.696 114.031 112.741 114.034 112.787C112.603 113.773 111.139 114.598 109.683 115.29C111.028 118.264 112.633 122.92 112.525 128.639C112.285 141.231 103.781 156.579 93.4335 156.732C93.4227 156.732 93.4101 156.733 93.3984 156.733Z" fill="#E4AD86"/>
<path d="M126.795 74.74C126.949 64.6912 126.339 57.4541 125.266 52.2695H133.715C133.821 56.1269 133.508 60.7115 132.283 65.6543C132.328 65.7145 132.372 65.7767 132.415 65.8398C132.403 65.8893 132.391 65.9378 132.378 65.9864C131.688 68.6903 130.384 70.7613 130.384 70.7613C129.168 72.6943 127.769 73.9769 126.795 74.74Z" fill="#814F21"/>
<path d="M140.88 253.958C139.539 253.737 138.16 253.52 136.741 253.31C138.09 244.359 139.439 235.407 140.787 226.455C129.33 225.678 117.874 224.901 106.417 224.123C106.882 233.036 107.345 241.949 107.809 250.863C106.121 250.825 104.404 250.806 102.663 250.806C99.65 250.806 96.5612 250.864 93.3984 250.991V206.441C105.101 206.567 116.804 206.694 128.506 206.82C128.63 205.854 128.754 204.887 128.878 203.921L142.368 206.678C141.686 210.907 141.003 215.139 140.321 219.368L145.489 227.129L140.88 253.958ZM143.182 201.625L129.53 198.833C131.847 180.755 134.164 162.679 136.481 144.6C136.483 144.584 136.485 144.569 136.487 144.553C136.542 144.133 136.595 143.71 136.649 143.29C141.5 145.799 146.351 148.307 151.201 150.815C151.163 151.052 151.125 151.291 151.086 151.529C151.141 151.554 151.194 151.58 151.249 151.606C148.56 168.28 145.871 184.95 143.182 201.625Z" fill="#E38E25"/>
<path d="M136.746 253.31C128.368 252.075 118.641 251.102 107.813 250.863C107.349 241.949 106.886 233.036 106.422 224.123C117.879 224.901 129.335 225.677 140.792 226.455C139.443 235.407 138.094 244.359 136.746 253.31ZM113.687 245.094L112.206 234.43H109.878L108.396 245.094H113.687ZM111.041 231.287C110.408 231.287 109.893 231.801 109.893 232.433C109.893 233.066 110.408 233.58 111.041 233.58C111.676 233.58 112.191 233.066 112.191 232.433C112.191 231.801 111.676 231.287 111.041 231.287ZM109.796 227.046C109.125 227.046 108.536 227.543 108.441 228.222L108.432 228.281C108.328 229.025 108.853 229.718 109.598 229.821L136.08 233.508C136.143 233.516 136.206 233.52 136.269 233.52C136.939 233.52 137.529 233.024 137.623 232.345L137.632 232.285C137.736 231.543 137.212 230.849 136.466 230.746L109.985 227.06C109.921 227.051 109.858 227.046 109.796 227.046Z" fill="#909EB2"/>
<path d="M143.854 206.928C143.689 206.928 143.52 206.912 143.352 206.878L142.372 206.677L128.882 203.919L126.852 203.504C125.501 203.228 124.621 201.899 124.899 200.55L124.921 200.443C125.163 199.263 126.214 198.443 127.38 198.443C127.546 198.443 127.713 198.46 127.882 198.494L129.534 198.832L143.186 201.623L144.381 201.868C145.733 202.144 146.612 203.474 146.335 204.821L146.313 204.929C146.071 206.11 145.019 206.928 143.854 206.928Z" fill="#909EB2"/>
<path d="M136.267 233.52C136.205 233.52 136.142 233.516 136.079 233.507L109.597 229.821C108.852 229.718 108.327 229.025 108.431 228.281L108.44 228.222C108.534 227.542 109.124 227.046 109.795 227.046C109.857 227.046 109.92 227.051 109.983 227.059L136.465 230.745C137.21 230.849 137.735 231.542 137.631 232.285L137.622 232.344C137.528 233.024 136.938 233.52 136.267 233.52Z" fill="#214D69"/>
<path d="M111.035 233.58C110.402 233.58 109.887 233.067 109.887 232.434C109.887 231.802 110.402 231.288 111.035 231.288C111.67 231.288 112.184 231.802 112.184 232.434C112.184 233.067 111.67 233.58 111.035 233.58Z" fill="#214D69"/>
<path d="M148.948 232.319L145.492 227.129L149.524 203.658C149.332 213.212 149.14 222.765 148.948 232.319Z" fill="#1E3667"/>
<path d="M149.109 232.57L149.099 232.556H149.109V232.57ZM149.109 232.556H149.099L148.941 232.319C149.133 222.764 149.326 213.212 149.518 203.658L149.841 201.778L149.109 232.556Z" fill="#586989"/>
<path d="M146.103 258.699C142.838 258.172 139.519 257.691 136.146 257.256C136.345 255.941 136.543 254.626 136.741 253.311C138.16 253.521 139.539 253.737 140.88 253.959L145.489 227.13L148.944 232.32L149.102 232.557H148.949H149.102L149.112 232.572C148.805 235.229 148.5 237.886 148.193 240.544L146.235 257.55V257.552C146.19 257.934 146.147 258.316 146.103 258.699ZM108.019 254.891C103.696 254.719 99.4281 254.637 95.2202 254.637C94.611 254.637 94.0047 254.638 93.3984 254.642V250.992C96.5612 250.864 99.65 250.806 102.663 250.806C104.404 250.806 106.121 250.826 107.809 250.864C107.879 252.205 107.949 253.548 108.019 254.891Z" fill="#BC7829"/>
<path d="M93.3984 192.178V183.43C93.4306 183.457 93.4627 183.485 93.4948 183.512C93.4627 186.4 93.4306 189.29 93.3984 192.178Z" fill="#405D90"/>
<path d="M135.835 43.3455H133.538C132.912 21.7663 115.183 4.46289 93.4007 4.46289C71.6185 4.46289 53.8895 21.7663 53.2637 43.3455H50.9661C48.8572 43.3455 47.1328 45.0669 47.1328 47.1708V48.4456C47.1328 50.5496 48.8572 52.27 50.9661 52.27H135.835C137.944 52.27 139.669 50.5496 139.669 48.4456V47.1708C139.669 45.0669 137.944 43.3455 135.835 43.3455Z" fill="#FFC50A"/>
<path d="M93.4872 24.8605C91.1351 20.0176 89.2871 16.2845 88.1631 14.0243C85.7321 9.13871 84.9652 7.68236 85.4508 5.73765C86.206 2.71718 89.6247 -0.0469688 93.5437 0.000605268C96.9643 0.0433249 100.09 2.223 101.424 5.52503C100.633 8.24743 99.6561 11.1698 98.4425 14.2359C96.8689 18.2137 95.1659 21.7585 93.4872 24.8605Z" fill="#F7931D"/>
<path d="M106.48 29.5346C108.075 26.9772 110.462 23.7539 113.935 20.6101C116.267 18.5003 118.552 16.911 120.537 15.7235C120.832 15.6488 124.839 14.7041 127.778 17.4236C130.224 19.6858 130.876 23.5092 129.269 26.7724C127.111 26.2801 124.444 25.8898 121.388 25.9228C114.754 25.9928 109.554 28.019 106.48 29.5346Z" fill="#F7931D"/>
<path d="M79.8865 29.5347C78.2934 26.9773 75.9063 23.7539 72.4321 20.6102C70.1014 18.5004 67.8154 16.911 65.8302 15.7236C65.5363 15.6489 61.5288 14.7042 58.5889 17.4227C56.1443 19.6849 55.4904 23.5093 57.099 26.7725C59.2565 26.2792 61.9239 25.8899 64.9787 25.922C71.6137 25.9919 76.8142 28.0191 79.8865 29.5347Z" fill="#F7931D"/>
<path d="M139.669 48.4435V47.1696C139.669 45.0657 137.944 43.3443 135.835 43.3443H133.538C133.536 43.2831 133.534 43.221 133.532 43.1588C133.534 43.221 133.536 43.2822 133.538 43.3443H135.835C137.944 43.3443 139.669 45.0647 139.669 47.1687V48.4435ZM133.531 43.154C133.531 43.1355 133.53 43.1171 133.53 43.0986C133.53 43.1171 133.531 43.1355 133.531 43.154ZM133.529 43.088C133.529 43.0695 133.528 43.0511 133.527 43.0326C133.528 43.0511 133.529 43.0695 133.529 43.088ZM133.527 43.0249C133.526 43.0064 133.525 42.988 133.525 42.9695C133.525 42.988 133.526 43.0064 133.527 43.0249ZM133.524 42.9608C133.524 42.9404 133.523 42.9229 133.522 42.9025C133.523 42.9219 133.524 42.9414 133.524 42.9608ZM133.522 42.9016C133.517 42.7753 133.512 42.6511 133.506 42.5258C133.512 42.6511 133.517 42.7763 133.522 42.9016ZM133.506 42.5248C133.505 42.5045 133.504 42.487 133.503 42.4666C133.504 42.486 133.505 42.5054 133.506 42.5248ZM133.502 42.4588C133.501 42.4404 133.5 42.421 133.499 42.4025C133.5 42.421 133.501 42.4404 133.502 42.4588ZM133.499 42.3957C133.498 42.3773 133.497 42.3598 133.496 42.3413C133.497 42.3588 133.498 42.3773 133.499 42.3957ZM133.495 42.3277C133.494 42.3093 133.493 42.2928 133.492 42.2744C133.493 42.2918 133.494 42.3103 133.495 42.3277ZM133.492 42.2695C133.486 42.1705 133.48 42.0714 133.475 41.9724C133.48 42.0714 133.486 42.1705 133.492 42.2695ZM133.474 41.9569C133.473 41.9423 133.472 41.9287 133.471 41.9151C133.472 41.9287 133.473 41.9423 133.474 41.9569ZM133.469 41.8889C133.469 41.8773 133.468 41.8675 133.467 41.8559C133.468 41.8666 133.469 41.8773 133.469 41.8889ZM133.465 41.819C133.464 41.8103 133.463 41.8006 133.463 41.7908C133.463 41.8006 133.464 41.8093 133.465 41.819ZM133.46 41.7501C133.459 41.7423 133.459 41.7336 133.458 41.7258C133.459 41.7345 133.459 41.7413 133.46 41.7501ZM133.455 41.6821C133.454 41.6743 133.454 41.6666 133.453 41.6588C133.454 41.6666 133.454 41.6743 133.455 41.6821ZM133.449 41.6064V41.5947V41.6064Z" fill="#391B11"/>
<path d="M129.114 19.0957C129.11 19.0898 129.107 19.085 129.104 19.0792C129.107 19.085 129.11 19.0898 129.114 19.0957ZM129.102 19.0762C128.747 18.4675 128.305 17.9112 127.781 17.4257C126.083 15.8558 124.031 15.5072 122.542 15.5072C122.002 15.5072 121.536 15.5529 121.188 15.6033C121.092 15.5111 120.994 15.4189 120.898 15.3276C120.995 15.4189 121.091 15.5101 121.188 15.6024C121.536 15.5519 122.002 15.5063 122.543 15.5063C124.031 15.5063 126.083 15.8548 127.781 17.4248C128.305 17.9102 128.747 18.4675 129.102 19.0762ZM120.891 15.3218C120.878 15.3101 120.865 15.2975 120.853 15.2859C120.865 15.2975 120.878 15.3101 120.891 15.3218ZM120.834 15.2694C120.819 15.2538 120.802 15.2383 120.786 15.2237C120.801 15.2383 120.819 15.2538 120.834 15.2694ZM120.753 15.1926C120.745 15.1859 120.739 15.18 120.731 15.1732C120.738 15.1791 120.746 15.1859 120.753 15.1926ZM120.677 15.1227L120.676 15.1218C120.677 15.1218 120.677 15.1218 120.677 15.1227ZM120.616 15.0664C120.613 15.0635 120.611 15.0616 120.608 15.0596C120.611 15.0616 120.613 15.0635 120.616 15.0664ZM95.7102 0.318463H95.7092H95.7102ZM95.6839 0.31167C95.6771 0.309729 95.6713 0.307783 95.6644 0.305841C95.6713 0.307783 95.6771 0.309729 95.6839 0.31167ZM95.6557 0.3039C94.9764 0.114575 94.2689 0.0106912 93.5488 0.00195312H93.5352H93.5488C94.2689 0.0106912 94.9764 0.114575 95.6557 0.3039Z" fill="#4A2417"/>
<path d="M135.833 52.2687H93.3984V24.6786C93.4276 24.7388 93.4568 24.799 93.487 24.8602C95.1657 21.7582 96.8687 18.2134 98.4423 14.2356C99.6558 11.1695 100.633 8.24712 101.424 5.52471C101.385 5.42957 101.345 5.33441 101.303 5.24023C108.66 6.70532 115.294 10.1763 120.603 15.058C120.606 15.0599 120.608 15.0619 120.611 15.0648C120.63 15.0832 120.651 15.1017 120.67 15.1201L120.671 15.1211C120.69 15.1376 120.708 15.1541 120.726 15.1716C120.734 15.1784 120.739 15.1842 120.747 15.191C120.759 15.2017 120.769 15.2114 120.78 15.2221C120.797 15.2366 120.813 15.2522 120.829 15.2677C120.836 15.2735 120.842 15.2784 120.847 15.2842C120.86 15.2958 120.873 15.3085 120.885 15.3201C120.887 15.3221 120.889 15.324 120.892 15.3259C120.988 15.4172 121.087 15.5094 121.183 15.6017C120.829 15.6522 120.596 15.7075 120.534 15.724C118.549 16.9114 116.264 18.5008 113.932 20.6105C110.459 23.7543 108.072 26.9777 106.478 29.5351C109.551 28.0195 114.752 25.9932 121.386 25.9233C121.505 25.9214 121.623 25.9214 121.741 25.9214C124.648 25.9214 127.192 26.3 129.266 26.7729C129.289 26.7262 129.312 26.6796 129.333 26.6321C131.619 31.1934 133.06 36.2479 133.447 41.5956V41.6072C133.449 41.6247 133.45 41.6422 133.451 41.6597C133.452 41.6674 133.452 41.6752 133.453 41.683C133.454 41.6975 133.455 41.7121 133.456 41.7266C133.457 41.7344 133.457 41.7431 133.458 41.7509C133.459 41.7645 133.46 41.7781 133.461 41.7917C133.461 41.8014 133.462 41.8111 133.462 41.8199C133.462 41.8325 133.463 41.8441 133.464 41.8567C133.465 41.8684 133.466 41.8781 133.466 41.8898C133.467 41.8985 133.468 41.9072 133.468 41.916C133.469 41.9296 133.47 41.9432 133.471 41.9577C133.471 41.9626 133.472 41.9684 133.472 41.9733C133.478 42.0723 133.484 42.1713 133.49 42.2704V42.2752C133.491 42.2937 133.492 42.3102 133.493 42.3286C133.494 42.3335 133.494 42.3373 133.494 42.3422C133.495 42.3606 133.496 42.3781 133.497 42.3966V42.4034C133.497 42.4218 133.498 42.4412 133.499 42.4597C133.499 42.4626 133.5 42.4645 133.5 42.4674C133.501 42.4878 133.502 42.5053 133.503 42.5257V42.5267C133.509 42.6519 133.515 42.7762 133.52 42.9024V42.9034C133.521 42.9238 133.522 42.9412 133.522 42.9616C133.522 42.9646 133.523 42.9675 133.523 42.9704C133.523 42.9888 133.524 43.0073 133.525 43.0257V43.0335C133.526 43.0519 133.527 43.0704 133.527 43.0888C133.527 43.0927 133.527 43.0956 133.528 43.0995C133.528 43.118 133.529 43.1364 133.529 43.1549C133.53 43.1558 133.53 43.1578 133.53 43.1597C133.532 43.2218 133.534 43.284 133.535 43.3451H135.833C137.942 43.3451 139.666 45.0665 139.666 47.1705V48.4443C139.666 50.5483 137.942 52.2687 135.833 52.2687Z" fill="#D5A529"/>
<path d="M93.487 24.8618C93.4568 24.8007 93.4276 24.7405 93.3984 24.6803V0.00583459L93.5298 0.00195312H93.5434C94.2636 0.0106912 94.9711 0.114575 95.6503 0.3039C95.6532 0.3039 95.6562 0.30487 95.6591 0.305841C95.6659 0.307783 95.6717 0.309729 95.6785 0.31167C95.6873 0.313612 95.6951 0.316521 95.7038 0.318463H95.7048C98.1348 1.01266 100.212 2.80008 101.297 5.23995C101.299 5.24093 101.3 5.24092 101.303 5.2419C101.345 5.33607 101.385 5.43123 101.424 5.52638C100.633 8.24878 99.6558 11.1712 98.4423 14.2373C96.8687 18.2151 95.1657 21.7598 93.487 24.8618Z" fill="#D47C28"/>
<path d="M106.48 29.5344C108.075 26.977 110.462 23.7536 113.935 20.6099C116.267 18.5001 118.552 16.9107 120.537 15.7233C120.599 15.7068 120.832 15.6515 121.186 15.601C121.533 15.5505 121.999 15.5049 122.54 15.5049C124.028 15.5049 126.081 15.8534 127.778 17.4234C128.303 17.9088 128.744 18.4652 129.1 19.0739C129.101 19.0749 129.101 19.0759 129.102 19.0768C129.104 19.0826 129.107 19.0875 129.111 19.0933C130.374 21.2749 130.518 24.1061 129.333 26.6256C129.334 26.6275 129.335 26.6304 129.336 26.6314C129.315 26.679 129.291 26.7256 129.269 26.7722C127.195 26.2993 124.65 25.9207 121.743 25.9207C121.626 25.9207 121.508 25.9207 121.388 25.9226C114.754 25.9925 109.554 28.0188 106.48 29.5344Z" fill="#D47C28"/>
<path d="M131.276 43.3464H55.53C53.9486 43.3464 52.6562 42.0551 52.6562 40.4774C52.6562 38.8997 53.9486 37.6094 55.53 37.6094H131.276C132.857 37.6094 134.151 38.8997 134.151 40.4774C134.151 42.0551 132.857 43.3464 131.276 43.3464Z" fill="#20488D"/>
<path d="M101.863 40.4776C101.863 45.4661 97.8103 49.5099 92.8111 49.5099C87.811 49.5099 83.7578 45.4661 83.7578 40.4776C83.7578 35.4901 87.811 31.4463 92.8111 31.4463C97.8103 31.4463 101.863 35.4901 101.863 40.4776Z" fill="#20488D"/>
<path d="M99.3081 40.4778C99.3081 44.0575 96.3993 46.9586 92.8123 46.9586C89.2242 46.9586 86.3164 44.0575 86.3164 40.4778C86.3164 36.8991 89.2242 33.998 92.8123 33.998C96.3993 33.998 99.3081 36.8991 99.3081 40.4778Z" fill="white"/>
</g>
<defs>
<clipPath id="clip0">
<rect width="195" height="232" fill="white"/>
</clipPath>
</defs>
</svg>
