<svg width="143" height="46" viewBox="0 0 143 46" fill="none" xmlns="http://www.w3.org/2000/svg">
<path fill-rule="evenodd" clip-rule="evenodd" d="M12.8791 2.36744C7.72166 3.66866 3.35058 6.71962 2.07526 11.676C-0.0460739 19.9187 0.31685 27.6764 2.07526 34.9477C3.2779 39.923 7.7832 42.7317 12.8791 44.2562C17.76 45.7165 22.884 45.716 28.2494 44.2562C33.3812 42.8602 38.2383 40.051 39.0668 35.0003C40.3393 27.243 40.7031 19.4848 39.0668 11.728C38.0105 6.72059 33.4403 3.52273 28.2494 2.36744C23.1263 1.22722 18.0022 1.07448 12.8791 2.36744ZM13.3414 32.5252H27.8278V35.2751H13.3414V32.5252ZM15.0455 36.497H26.1237V39.2469H15.0455V36.497ZM13.7673 28.5535H27.4019V26.3538H30.2627V31.3028H10.9066V28.9198V28.5535V26.3538H13.7673V28.5535ZM20.5844 7.59423C15.1706 7.59423 10.7544 12.0276 10.7544 17.4626C10.7544 22.8981 15.1706 27.331 20.5844 27.331C25.9982 27.331 30.4148 22.8981 30.4148 17.4626C30.4148 12.0276 25.9982 7.59423 20.5844 7.59423ZM22.0758 10.2531C25.4046 10.9482 27.9189 13.9199 27.9189 17.4626C27.9189 21.0054 25.4046 23.9775 22.0758 24.6722V10.2531ZM49.2006 38.1908V29.1192H46.7028V25.6392H56.2338V29.1192H53.735V38.1908H49.2006ZM58.2437 38.1908V25.6392H66.3481V29.1192H62.7785V30.4214H65.991V33.2622H62.7785V34.7108H66.3481V38.1908H58.2437ZM67.8556 38.1908H72.8178L74.5563 34.8577L76.1524 38.1908H81.2334L77.0537 31.404L80.6044 25.6392H75.679L74.551 28.2368L73.4244 25.6392H68.28L72.0164 31.5869L67.8556 38.1908ZM89.4222 38.2779L89.3742 38.2935L89.3277 38.3076L89.2807 38.3217L89.2327 38.3353L89.1852 38.3489L89.1372 38.3606L89.0898 38.3732L89.0418 38.3849L88.9938 38.3971L88.9444 38.4078L88.8964 38.4185L88.848 38.4292L88.7986 38.4394L88.7496 38.4491L88.7002 38.4588L88.6503 38.4676L88.5999 38.4764L88.5505 38.4837L88.5001 38.4929L88.4492 38.4997L88.3978 38.507L88.347 38.5138L88.2956 38.5206L88.2437 38.5269L88.1924 38.5318L88.1396 38.5376L88.0877 38.542L88.0344 38.5474L87.9821 38.5513L87.9288 38.5552L87.876 38.5586L87.8222 38.562L87.7679 38.5649L87.7146 38.5678L87.6608 38.5693L87.6061 38.5717L87.5518 38.5722L87.4956 38.5727L87.4409 38.5732L87.3861 38.5736L87.2049 38.5717L87.0271 38.5663L86.8507 38.5581L86.6767 38.5449L86.5052 38.5284L86.3356 38.5094L86.1684 38.4861L86.0037 38.4593L85.8404 38.4282L85.6795 38.3941L85.5206 38.3572L85.3636 38.3158L85.21 38.2711L85.0574 38.2229L84.9077 38.1714L84.7599 38.1159L84.614 38.0575L84.4701 37.9943L84.3291 37.9286L84.19 37.8595L84.0529 37.7856L83.9172 37.7092L83.7845 37.6285L83.6541 37.5448L83.5248 37.4573L83.3983 37.3668L83.2733 37.2719L83.1502 37.1746L83.03 37.0725L82.9118 36.9669L82.7955 36.8575L82.6802 36.7451L82.5697 36.6303L82.4617 36.5116L82.357 36.392L82.2567 36.2703L82.1588 36.1453L82.0658 36.0189L81.9757 35.8904L81.8885 35.7586L81.8061 35.6253L81.7261 35.4901L81.6501 35.3515L81.5779 35.2114L81.5091 35.0688L81.4441 34.9234L81.3811 34.776L81.323 34.6272L81.2682 34.4749L81.2169 34.3207L81.1689 34.1636L81.1248 34.005L81.0841 33.8445L81.0468 33.6805L81.0129 33.5152L80.9833 33.3468L80.9567 33.1761L80.9339 33.0024L80.9136 32.8273L80.8985 32.6498L80.8854 32.4688L80.8762 32.2869L80.8719 32.102L80.8695 31.9143L80.8719 31.7362L80.8762 31.5611L80.8854 31.3865L80.8981 31.2143L80.9136 31.0436L80.9339 30.8757L80.9567 30.7084L80.9828 30.544L81.0129 30.381L81.0468 30.2195L81.0841 30.0609L81.1248 29.9043L81.1689 29.7496L81.2169 29.5959L81.2682 29.4451L81.323 29.2953L81.3811 29.1474L81.4432 29.0015L81.5091 28.8575L81.5779 28.7164L81.6501 28.5763L81.7261 28.4387L81.8061 28.3015L81.8889 28.1672L81.9762 28.0344L82.0658 27.9036L82.1603 27.7742L82.2572 27.6472L82.358 27.5217L82.4622 27.3982L82.5707 27.2756L82.6826 27.1559L82.796 27.0392L82.9128 26.9258L83.031 26.8164L83.1512 26.7103L83.2733 26.6082L83.3978 26.5109L83.5228 26.4156L83.6512 26.3241L83.7806 26.238L83.9134 26.1548L84.0466 26.0741L84.1828 25.9982L84.3199 25.9262L84.4595 25.8581L84.6019 25.7929L84.7453 25.7316L84.8897 25.6737L85.0385 25.6207L85.1877 25.5701L85.3394 25.5244L85.493 25.4811L85.649 25.4427L85.806 25.4067L85.9659 25.3751L86.1273 25.3473L86.291 25.3235L86.4577 25.3031L86.6254 25.286L86.7954 25.2729L86.967 25.2646L87.1409 25.2583L87.3173 25.2559H87.374L87.4302 25.2578L87.4869 25.2583L87.5426 25.2612L87.5979 25.2627L87.6541 25.2656L87.7098 25.269L87.766 25.2724L87.8212 25.2768L87.8769 25.2817L87.9322 25.2865L87.9879 25.2929L88.0431 25.2997L88.0979 25.3065L88.1531 25.3133L88.2079 25.3211L88.2631 25.3298L88.3189 25.3381L88.3736 25.3478L88.4284 25.358L88.4826 25.3687L88.5374 25.379L88.5921 25.3911L88.6464 25.4023L88.7012 25.4154L88.7549 25.4276L88.8082 25.4407L88.8625 25.4548L88.9168 25.4699L88.971 25.4845L89.0248 25.5006L89.0781 25.5161L89.1319 25.5327L89.1852 25.5497L89.2889 25.5838L89.3398 25.6013L89.4415 25.6382L89.49 25.6562L89.5399 25.6762L89.5884 25.6961L89.6358 25.7146L89.6838 25.7345L89.7308 25.755L89.7768 25.7754L89.8229 25.7963L89.8679 25.8177L89.912 25.8401L89.9561 25.8615L90.0002 25.8844L90.0424 25.9063L90.0855 25.9296L90.1267 25.953L90.1679 25.9768L90.2091 26.0001L90.2493 26.0245L90.288 26.0488L90.3278 26.0731L90.3661 26.0979L90.4038 26.1237L90.4412 26.1495L90.4683 26.1689V30.2794L90.4436 30.2526L90.4092 30.2166L90.3753 30.1821L90.3394 30.148L90.3045 30.114L90.2696 30.0814L90.2328 30.0483L90.1955 30.0162L90.1582 29.9836L90.1209 29.9525L90.0831 29.9213L90.0448 29.8907L90.0055 29.8605L89.9663 29.8313L89.9266 29.8022L89.8859 29.7739L89.8456 29.7462L89.804 29.719L89.7628 29.6912L89.7211 29.6645L89.679 29.6382L89.6358 29.6129L89.5922 29.5881L89.5481 29.5628L89.5045 29.5385L89.4599 29.5147L89.4149 29.4923L89.3698 29.4694L89.3252 29.448L89.2787 29.4271L89.2337 29.4067L89.1886 29.3867L89.1421 29.3673L89.0965 29.3493L89.0495 29.3318L89.0045 29.3147L88.9575 29.2982L88.9105 29.2831L88.8645 29.2676L88.817 29.2539L88.77 29.2403L88.7225 29.2272L88.675 29.2155L88.6275 29.2048L88.58 29.1931L88.532 29.1844L88.4841 29.1746L88.4366 29.1654L88.3881 29.1576L88.3402 29.1508L88.2917 29.1445L88.2437 29.1382L88.1943 29.1338L88.1459 29.1294L88.0974 29.1265L88.0475 29.1231L87.9986 29.1207L87.9477 29.1192L87.8629 29.1202L87.781 29.1226L87.6996 29.1265L87.6206 29.1314L87.5421 29.1387L87.4641 29.1474L87.3885 29.1576L87.3134 29.1698L87.2393 29.1824L87.1666 29.1985L87.0954 29.215L87.0246 29.2335L86.9553 29.2535L86.8875 29.2749L86.8216 29.2982L86.7552 29.323L86.6913 29.3498L86.6283 29.3775L86.5667 29.4077L86.5062 29.4388L86.4471 29.4723L86.3889 29.5069L86.3322 29.5439L86.277 29.5818L86.2227 29.6202L86.1709 29.6616L86.118 29.7054L86.0686 29.7496L86.0192 29.7953L85.9717 29.843L85.9257 29.8931L85.8806 29.9427L85.8375 29.9948L85.7963 30.0478L85.7556 30.1008L85.7168 30.1543L85.6795 30.2113L85.6427 30.2672L85.6083 30.3246L85.5749 30.3825L85.5424 30.4413L85.5119 30.5012L85.4823 30.562L85.4542 30.6238L85.4281 30.687L85.4019 30.7497L85.3781 30.8149L85.3563 30.8801L85.335 30.9458L85.3152 31.0134L85.2972 31.0815L85.2803 31.1501L85.2648 31.2196L85.2502 31.2907L85.2371 31.3622L85.226 31.4342L85.2158 31.5071L85.2066 31.5811L85.1994 31.6565L85.193 31.7319L85.1887 31.8077L85.1858 31.8861L85.1829 31.9639L85.1824 32.0427L85.1829 32.1191L85.1858 32.195L85.1892 32.2704L85.1935 32.3448L85.2003 32.4173L85.209 32.4893L85.2173 32.5608L85.2284 32.6303L85.2405 32.7004L85.2541 32.768L85.2866 32.9003L85.305 32.9655L85.3248 33.0302L85.3457 33.0939L85.368 33.1552L85.3927 33.217L85.4179 33.2763L85.445 33.3347L85.4731 33.3931L85.5036 33.4505L85.5347 33.5059L85.5681 33.5604L85.6025 33.6149L85.6388 33.6669L85.6766 33.7185L85.7149 33.7691L85.7556 33.8182L85.7968 33.8673L85.8409 33.9135L85.885 33.9602L85.932 34.005L85.979 34.0488L86.0274 34.0906L86.0764 34.1315L86.1273 34.1704L86.1781 34.2098L86.23 34.2458L86.2842 34.2818L86.3385 34.3149L86.3938 34.3475L86.4504 34.3786L86.5081 34.4087L86.5663 34.437L86.6254 34.4637L86.6859 34.489L86.747 34.5128L86.8085 34.5362L86.8715 34.5571L86.9355 34.5771L87.0004 34.596L87.0673 34.613L87.1332 34.6286L87.2015 34.6427L87.2698 34.6559L87.3401 34.6675L87.4098 34.6777L87.4816 34.6865L87.5533 34.6938L87.6274 34.7006L87.7015 34.7045L87.7771 34.7079L87.8527 34.7108H87.9724L88.0155 34.7103L88.0582 34.7079L88.1013 34.7069L88.1449 34.704L88.1875 34.7006L88.2311 34.6967L88.2748 34.6933L88.3169 34.6875L88.361 34.6826L88.4041 34.6768L88.4477 34.6695L88.4909 34.6627L88.5345 34.6554L88.5786 34.6466L88.6222 34.6383L88.6648 34.6286L88.7089 34.6184L88.7525 34.6082L88.7966 34.5975L88.8402 34.5853L88.8833 34.5732L88.9274 34.56L88.9715 34.5469L89.0151 34.5328L89.0597 34.5187L89.1033 34.5041L89.1479 34.488L89.1915 34.4715L89.2346 34.4545L89.2787 34.4374L89.3233 34.4194L89.3674 34.4014L89.4115 34.382L89.4556 34.362L89.4997 34.3411L89.5438 34.3202L89.5874 34.2988L89.63 34.2764L89.6736 34.2526L89.7172 34.2297L89.7589 34.2049L89.8025 34.1801L89.8447 34.1553L89.8878 34.1286L89.9295 34.1013L89.9712 34.0741L90.0138 34.0463L90.055 34.0176L90.0962 33.988L90.1373 33.9573L90.1785 33.9267L90.2197 33.896L90.2604 33.8644L90.3011 33.8313L90.3418 33.7987L90.382 33.7647L90.4227 33.7306L90.4615 33.6946L90.4683 33.6898V37.8343L90.4368 37.8503L90.3922 37.8741L90.3462 37.898L90.3011 37.9208L90.2561 37.9427L90.21 37.9656L90.1645 37.987L90.1194 38.0079L90.0734 38.0288L90.0278 38.0493L89.9808 38.0692L89.9353 38.0891L89.8888 38.1091L89.8432 38.1266L89.7962 38.1451L89.7492 38.1641L89.7037 38.1816L89.6567 38.1991L89.6097 38.2151L89.5636 38.2322L89.5162 38.2472L89.4692 38.2633L89.4222 38.2779ZM92.955 38.1908V25.6392H97.4893V30.0386H100.094V25.6392H104.627V38.1908H100.094V33.5181H97.4893V38.1908H92.955ZM106.444 38.1908L110.602 25.6392H115.675L119.832 38.1908H115.197L114.721 36.3287H111.555L111.079 38.1908H106.444ZM113.138 29.5448L112.16 33.361H114.116L113.138 29.5448ZM121.649 38.1908V25.6392H131.298V29.1192H126.182V30.4953H127.926L128.072 30.4958L128.216 30.4992L128.357 30.5036L128.496 30.5104L128.631 30.5201L128.765 30.5308L128.896 30.5435L129.025 30.5581L129.151 30.5751L129.274 30.5946L129.396 30.6155L129.514 30.6374L129.63 30.6622L129.744 30.6884L129.855 30.7181L129.964 30.7483L130.07 30.7804L130.174 30.8149L130.276 30.8514L130.375 30.8898L130.471 30.9302L130.564 30.9716L130.656 31.0163L130.745 31.0616L130.832 31.1092L130.915 31.1598L130.997 31.2114L131.076 31.2639L131.154 31.3199L131.228 31.3768L131.3 31.4361L131.369 31.4969L131.437 31.5601L131.502 31.6253L131.566 31.691L131.627 31.7586L131.686 31.8277L131.743 31.8973L131.798 31.9692L131.85 32.0432L131.901 32.1181L131.949 32.1945L131.996 32.2723L132.039 32.3516L132.081 32.4333L132.121 32.5155L132.159 32.5992L132.194 32.6843L132.227 32.7719L132.258 32.8609L132.288 32.9509L132.315 33.0433L132.34 33.1362L132.363 33.2316L132.383 33.3279L132.401 33.4266L132.418 33.5263L132.432 33.628L132.443 33.7306L132.453 33.8347L132.461 33.9413L132.466 34.0498L132.47 34.1587L132.471 34.2696L132.47 34.3854L132.466 34.4992L132.46 34.6116L132.453 34.722L132.443 34.831L132.431 34.939L132.417 35.0435L132.401 35.1481L132.381 35.2508L132.361 35.3505L132.339 35.4497L132.314 35.5465L132.286 35.6424L132.257 35.7367L132.225 35.8291L132.192 35.9191L132.156 36.0082L132.118 36.0962L132.078 36.1818L132.036 36.2655L131.991 36.3477L131.944 36.4294L131.896 36.5082L131.845 36.5865L131.792 36.6624L131.736 36.7373L131.679 36.8098L131.62 36.8813L131.558 36.9523L131.494 37.0209L131.428 37.0871L131.36 37.1523L131.289 37.216L131.217 37.2778L131.142 37.3366L131.065 37.394L130.985 37.4495L130.904 37.503L130.819 37.5546L130.733 37.6032L130.643 37.6509L130.552 37.6966L130.458 37.7404L130.362 37.7817L130.263 37.8216L130.161 37.8595L130.058 37.8946L129.953 37.9286L129.844 37.9598L129.734 37.9899L129.619 38.0172L129.504 38.0424L129.386 38.0658L129.265 38.0877L129.142 38.1067L129.018 38.1247L128.889 38.1402L128.759 38.1538L128.626 38.1645L128.49 38.1743L128.353 38.1816L128.214 38.1859L128.071 38.1889L127.926 38.1908H121.649ZM126.182 35.3505H126.788L126.826 35.351H126.864L126.901 35.3505L126.938 35.3495L126.972 35.3471L127.007 35.3447L127.043 35.3422L127.077 35.3388L127.111 35.334L127.143 35.3301L127.176 35.3247L127.208 35.3194L127.24 35.3125L127.272 35.3062L127.302 35.2984L127.331 35.2902L127.361 35.2819L127.391 35.2722L127.419 35.2624L127.447 35.2517L127.474 35.241L127.501 35.2299L127.528 35.2172L127.553 35.2041L127.579 35.1905L127.603 35.1763L127.627 35.1618L127.651 35.1457L127.674 35.1301L127.696 35.1136L127.717 35.0966L127.739 35.0776L127.759 35.0596L127.778 35.0401L127.798 35.0212L127.816 35.0007L127.834 34.9803L127.851 34.9584L127.866 34.9365L127.883 34.9146L127.897 34.8918L127.912 34.8679L127.926 34.8436L127.939 34.8198L127.951 34.795L127.962 34.7687L127.973 34.7434L127.983 34.7171L127.993 34.6899L128.002 34.6627L128.01 34.6349L128.017 34.6072L128.023 34.578L128.03 34.5493L128.036 34.5197L128.04 34.4905L128.044 34.4603L128.048 34.4297L128.051 34.3985L128.053 34.3669L128.054 34.3348L128.056 34.3027L128.056 34.2696L128.056 34.2385L128.054 34.2088L128.053 34.1791L128.051 34.149L128.048 34.1208L128.044 34.0911L128.04 34.0629L128.036 34.0352L128.03 34.0074L128.025 33.9797L128.019 33.953L128.011 33.9257L128.003 33.8994L127.995 33.8737L127.985 33.8479L127.975 33.8231L127.965 33.7973L127.954 33.7735L127.941 33.7496L127.928 33.7268L127.916 33.7034L127.901 33.6805L127.887 33.6587L127.872 33.6363L127.856 33.6154L127.839 33.5949L127.822 33.5745L127.804 33.5541L127.787 33.5356L127.767 33.5166L127.747 33.4986L127.727 33.4811L127.706 33.4636L127.684 33.4466L127.661 33.43L127.638 33.414L127.614 33.3994L127.59 33.3853L127.566 33.3712L127.539 33.358L127.514 33.3454L127.487 33.3337L127.46 33.3211L127.432 33.3108L127.403 33.3006L127.375 33.2904L127.345 33.2821L127.314 33.2729L127.283 33.2656L127.252 33.2578L127.221 33.251L127.188 33.2447L127.155 33.2379L127.122 33.2325L127.087 33.2282L127.052 33.2243L127.017 33.2204L126.982 33.217L126.945 33.214L126.907 33.2111L126.87 33.2102L126.832 33.2082L126.793 33.2077H126.754H126.182V35.3505ZM47.8594 17.6217L47.9069 17.646L48.0018 17.6937L48.0488 17.717L48.0968 17.7384L48.1448 17.7608L48.1932 17.7817L48.2407 17.8022L48.2887 17.8221L48.3371 17.8411L48.3851 17.8605L48.4336 17.8785L48.483 17.8961L48.5314 17.9141L48.5794 17.9301L48.6293 17.9462L48.6783 17.9622L48.7262 17.9768L48.7766 17.9914L48.8256 18.0055L48.876 18.0186L48.9259 18.0318L48.9763 18.0449L49.0262 18.0566L49.077 18.0687L49.1284 18.0794L49.1793 18.0901L49.2302 18.1004L49.2815 18.1096L49.3329 18.1184L49.3847 18.1276L49.4375 18.1354L49.4889 18.1427L49.5412 18.1509L49.5945 18.1568L49.6464 18.1626L49.7002 18.1685L49.7525 18.1733L49.8063 18.1787L49.8601 18.1826L49.9134 18.186L49.9671 18.1894L50.0214 18.1923L50.0757 18.1942L50.1304 18.1962L50.1852 18.1972L50.24 18.1986L50.2952 18.1991L50.3587 18.1976L50.4202 18.1962L50.4817 18.1938L50.5433 18.1908L50.6038 18.1865L50.663 18.1821L50.7216 18.1758L50.7812 18.1689L50.8393 18.1612L50.8955 18.1519L50.9527 18.1422L51.008 18.132L51.0642 18.1208L51.1189 18.1077L51.1732 18.094L51.226 18.0799L51.2793 18.0653L51.3311 18.0488L51.382 18.0313L51.4334 18.0128L51.4838 17.9938L51.5327 17.9739L51.5821 17.953L51.6306 17.9311L51.6781 17.9082L51.7241 17.8844L51.7706 17.8601L51.8162 17.8338L51.8608 17.8065L51.9048 17.7788L51.9485 17.7511L51.9921 17.7209L52.0337 17.6903L52.0749 17.6592L52.1156 17.6251L52.1554 17.5925L52.1936 17.5565L52.2314 17.5215L52.2683 17.484L52.3036 17.4461L52.338 17.4077L52.3715 17.3678L52.4054 17.3264L52.4364 17.2851L52.4674 17.2413L52.4979 17.197L52.527 17.1528L52.5546 17.1075L52.5818 17.0599L52.6069 17.0122L52.6331 16.964L52.6569 16.9149L52.6791 16.8638L52.7019 16.8128L52.7228 16.7592L52.7431 16.7062L52.763 16.6522L52.7804 16.5968L52.7974 16.5399L52.8143 16.4839L52.8289 16.4255L52.8444 16.3657L52.8579 16.3064L52.8972 16.1108H49.2006V13.5439H52.7135L52.6709 13.3556L52.6578 13.3046L52.6438 13.2544L52.6283 13.2048L52.6123 13.1562L52.5944 13.108L52.5755 13.0604L52.5556 13.0127L52.5352 12.966L52.5134 12.9203L52.4897 12.8755L52.4659 12.8308L52.4398 12.787L52.4127 12.7427L52.385 12.7009L52.3564 12.6581L52.3264 12.6167L52.2954 12.5754L52.2624 12.5365L52.2285 12.4966L52.1941 12.4581L52.1592 12.4207L52.1219 12.3827L52.0841 12.3458L52.0449 12.3103L52.0051 12.2743L51.964 12.2397L51.9213 12.2057L51.8777 12.1731L51.8331 12.14L51.7881 12.1089L51.7416 12.0773L51.695 12.0471L51.6471 12.0169L51.5981 11.9892L51.5497 11.962L51.5002 11.9347L51.4503 11.909L51.3995 11.8841L51.3486 11.8603L51.2972 11.8384L51.2454 11.816L51.1921 11.7951L51.1398 11.7766L51.086 11.7572L51.0317 11.7397L50.9769 11.7226L50.9217 11.7061L50.8665 11.692L50.8098 11.6779L50.7541 11.6648L50.6969 11.6536L50.6387 11.6414L50.5806 11.6322L50.522 11.6229L50.4624 11.6142L50.4037 11.6069L50.3432 11.6015L50.2826 11.5957L50.222 11.5918L50.1595 11.5884L50.097 11.586L50.035 11.585H49.9715H49.9284L49.8843 11.5855L49.8402 11.5864L49.7961 11.5889L49.751 11.5918L49.706 11.5947L49.6609 11.5986L49.6163 11.6025L49.5713 11.6069L49.5267 11.6127L49.4821 11.619L49.4356 11.6254L49.3905 11.6331L49.3455 11.6404L49.2994 11.6482L49.2534 11.657L49.2069 11.6667L49.1618 11.676L49.1153 11.6871L49.0693 11.6978L49.0223 11.709L48.9758 11.7217L48.9297 11.7338L48.8827 11.7475L48.8357 11.7611L48.7892 11.7766L48.7422 11.7908L48.6947 11.8063L48.6473 11.8219L48.5998 11.8389L48.5523 11.8559L48.5043 11.8734L48.4568 11.8929L48.4098 11.9109L48.3633 11.9299L48.3163 11.9488L48.2698 11.9688L48.2242 11.9887L48.1777 12.0096L48.1327 12.0301L48.0876 12.0505L48.0411 12.0719L47.9965 12.0928L47.9524 12.1157L47.9078 12.1371L47.8637 12.1604L47.8206 12.1838L47.777 12.2062L47.7339 12.23L47.6903 12.2543L47.6481 12.2796L47.6055 12.3039L47.5633 12.3288L47.5217 12.355L47.4805 12.3798L47.4388 12.4066L47.3971 12.4338L47.3569 12.4596L47.3167 12.4868L47.2968 12.5V9.13722L47.3424 9.11339L47.3962 9.08614L47.4495 9.0589L47.5023 9.03264L47.5565 9.00734L47.6108 8.98107L47.6651 8.95627L47.7198 8.93243L47.7746 8.90762L47.8298 8.88379L47.886 8.86044L47.9418 8.83709L47.997 8.81422L48.0537 8.79233L48.1113 8.77142L48.1676 8.74856L48.2247 8.72764L48.2824 8.70721L48.3401 8.68678L48.3982 8.66683L48.4563 8.64786L48.515 8.6284L48.5736 8.61041L48.6337 8.59144L48.6923 8.57392L48.7529 8.55641L48.8125 8.53939L48.873 8.52285L48.9341 8.50728L48.9947 8.49074L49.0562 8.47518L49.1173 8.4601L49.1788 8.44648L49.2398 8.43188L49.3019 8.41875L49.3629 8.40562L49.424 8.39248L49.4855 8.38081L49.5471 8.36865L49.6086 8.35794L49.6701 8.34724L49.7312 8.33703L49.7927 8.3273L49.8543 8.31854L49.9158 8.3093L49.9773 8.30152L50.0389 8.29276L50.1004 8.28595L50.1619 8.27865L50.2235 8.27233L50.285 8.26649L50.3461 8.26163L50.4086 8.25579L50.4711 8.25141L50.5326 8.24752L50.5937 8.24412L50.6552 8.2412L50.7172 8.23828L50.7792 8.23682L50.8403 8.23439L50.9018 8.2339L50.9634 8.23342L51.0249 8.23244L51.1955 8.23439L51.3641 8.24023L51.5293 8.2485L51.6936 8.26114L51.8559 8.27768L52.0163 8.29665L52.1738 8.32L52.3303 8.34676L52.4844 8.37692L52.637 8.41048L52.7877 8.44696L52.9364 8.48831L53.0833 8.53258L53.2277 8.58073L53.3706 8.63181L53.5126 8.68726L53.6511 8.74564L53.7888 8.80839L53.9235 8.87406L54.0582 8.94313L54.1895 9.01561L54.3188 9.09198L54.4472 9.17176L54.5732 9.25494L54.6973 9.3425L54.8203 9.43249L54.9415 9.52735L55.0597 9.62415L55.177 9.7263L55.2928 9.8304L55.4057 9.93887L55.5181 10.0512L55.6266 10.1656L55.7318 10.2823L55.8335 10.4015L55.9319 10.5216L56.0273 10.6447L56.1194 10.7687L56.2076 10.8952L56.2924 11.0241L56.3743 11.1545L56.4523 11.2873L56.5274 11.4211L56.5977 11.5577L56.665 11.6959L56.7295 11.836L56.7905 11.979L56.8482 12.123L56.9029 12.2699L56.9538 12.4178L57.0013 12.5681L57.0439 12.7213L57.0846 12.8755L57.1214 13.0312L57.1554 13.1907L57.1859 13.3512L57.2125 13.5132L57.2363 13.6781L57.2547 13.845L57.2717 14.0133L57.2852 14.184L57.2949 14.3582L57.3012 14.5328L57.3041 14.7089L57.3022 14.8937L57.2969 15.0771L57.2886 15.2581L57.2775 15.4366L57.2615 15.6142L57.2436 15.7888L57.2213 15.961L57.1961 16.1317L57.1684 16.3005L57.1355 16.4669L57.1011 16.6313L57.0628 16.7933L57.0197 16.9538L56.9751 17.1114L56.9267 17.2685L56.8748 17.4228L56.8191 17.5755L56.7605 17.7248L56.6989 17.8737L56.634 18.0191L56.5652 18.1631L56.4935 18.3056L56.4184 18.4462L56.3399 18.5834L56.258 18.7196L56.1727 18.8539L56.084 18.9862L55.992 19.1165L55.8965 19.244L55.7982 19.37L55.6959 19.494L55.5903 19.6166L55.4818 19.7363L55.3722 19.8506L55.2593 19.9625L55.144 20.0695L55.0277 20.1741L54.9085 20.2743L54.7874 20.3701L54.6629 20.4625L54.5374 20.5515L54.4099 20.6362L54.2791 20.7169L54.1473 20.7943L54.0116 20.8672L53.8745 20.9382L53.735 21.0034L53.5925 21.0657L53.4491 21.1241L53.3028 21.179L53.1545 21.2301L53.0028 21.2773L52.8497 21.3211L52.6947 21.3605L52.5357 21.3965L52.3753 21.4281L52.2135 21.4573L52.0478 21.4821L51.8806 21.5025L51.711 21.5195L51.539 21.5332L51.3651 21.5419L51.1877 21.5478L51.008 21.5502H50.9406L50.8733 21.5487L50.8054 21.5478L50.7381 21.5468L50.6707 21.5444L50.6043 21.5419L50.537 21.539L50.4711 21.5361L50.4042 21.5312L50.3388 21.5278L50.2739 21.5234L50.2085 21.5176L50.144 21.5127L50.0791 21.5069L50.0146 21.5001L49.9502 21.4933L49.8857 21.4865L49.8232 21.4787L49.7593 21.4699L49.6968 21.4621L49.6333 21.4524L49.5713 21.4441L49.5093 21.4339L49.4463 21.4237L49.3847 21.412L49.3232 21.4009L49.2621 21.3897L49.2025 21.377L49.141 21.3653L49.0809 21.3522L49.0204 21.3386L48.9608 21.325L48.9007 21.3109L48.842 21.2953L48.7839 21.2807L48.7253 21.2656L48.6671 21.2496L48.6095 21.2325L48.5518 21.216L48.4946 21.199L48.4384 21.182L48.3822 21.164L48.327 21.1464L48.2717 21.127L48.216 21.1085L48.1608 21.089L48.1075 21.0686L48.0537 21.0482L47.9994 21.0278L47.9456 21.0064L47.8938 20.9854L47.8405 20.9626L47.7886 20.9412L47.7368 20.9183L47.6854 20.895L47.6346 20.8726L47.5832 20.8487L47.5328 20.8239L47.4839 20.7986L47.434 20.7738L47.385 20.749L47.3356 20.7228L47.2968 20.7018V17.2822L47.3002 17.2846L47.3458 17.3162L47.3923 17.3464L47.4388 17.377L47.4848 17.4057L47.5313 17.4354L47.5774 17.4636L47.6244 17.4909L47.6714 17.5186L47.7174 17.5453L47.7644 17.5706L47.8119 17.5969L47.8594 17.6217ZM64.3683 18.471L64.3431 18.5892L64.3155 18.7035L64.2854 18.8164L64.252 18.9258L64.2186 19.0324L64.1827 19.137L64.144 19.2377L64.1042 19.3364L64.0611 19.4317L64.0165 19.5247L63.97 19.6142L63.9216 19.7022L63.8707 19.7864L63.8183 19.8676L63.7636 19.9474L63.7064 20.0237L63.6478 20.0967L63.5867 20.1682L63.5242 20.2368L63.4588 20.3025L63.3924 20.3657L63.3217 20.4255L63.2495 20.4854L63.1744 20.5418L63.0964 20.5968L63.0164 20.6513L62.9321 20.7023L62.8459 20.7524L62.7557 20.8001L62.6632 20.8458L62.5682 20.8896L62.4708 20.9314L62.37 20.9718L62.2668 21.0102L62.1588 21.0472L62.0498 21.0813L61.9369 21.1134L61.8215 21.144L61.7038 21.1727L61.5827 21.199L61.4586 21.2248L61.3321 21.2471L61.2023 21.2676L61.0695 21.287L60.9338 21.3041L60.7948 21.3182L60.6538 21.3318L60.5104 21.3425L60.3616 21.3517L60.2114 21.3585L60.0597 21.3634L59.9037 21.3663L59.7448 21.3668H59.7205H59.6968H59.6726L59.6483 21.3663H59.6241L59.6004 21.3658L59.5757 21.3653L59.5514 21.3644L59.5262 21.3634L59.502 21.3629L59.4773 21.3624L59.4531 21.3605L59.4284 21.3595L59.4037 21.359L59.3789 21.3571L59.3542 21.3561L59.3286 21.3551L59.3043 21.3532L59.2796 21.3517L59.2539 21.3493L59.2292 21.3483L59.2045 21.3459L59.1783 21.3449L59.1536 21.3425L59.1289 21.3396L59.1027 21.3376L59.078 21.3352L59.0519 21.3328L59.0267 21.3308L59.001 21.3279L58.9734 21.325L58.9244 21.3191L58.8978 21.3162L58.8711 21.3138L58.8445 21.3104L58.8183 21.307L58.7912 21.3041L58.7631 21.3002L58.735 21.2958L58.7069 21.2914L58.6793 21.288L58.6502 21.2841L58.6216 21.2802L58.5916 21.2754L58.5625 21.271L58.5324 21.2666L58.4719 21.2569L58.4414 21.252L58.4099 21.2462L58.3793 21.2418L58.3473 21.236L58.3159 21.2301L58.2839 21.2252L58.2509 21.2189L58.2189 21.2131L58.1855 21.2077L58.1516 21.2014L58.1186 21.1951L58.0852 21.1883L58.0726 21.1854V17.861L58.091 17.8674L58.1162 17.8742L58.1647 17.8878L58.1894 17.8946L58.2136 17.9009L58.2388 17.9058L58.2635 17.9121L58.2877 17.9179L58.3125 17.9223L58.3381 17.9267L58.3629 17.9316L58.389 17.9355L58.4137 17.9389L58.4399 17.9418L58.4646 17.9437L58.4903 17.9457L58.5155 17.9471L58.5407 17.9491H58.6177L58.6429 17.9471L58.6691 17.9462L58.6938 17.9442L58.7142 17.9428L58.7641 17.9423L58.8193 17.9398L58.8736 17.9374L58.9264 17.9335L58.9792 17.9286L59.0306 17.9228L59.0814 17.915L59.1309 17.9063L59.1803 17.8975L59.2282 17.8858L59.2762 17.8742L59.3213 17.861L59.3659 17.8469L59.4104 17.8304L59.4545 17.8134L59.4972 17.7963L59.5388 17.7779L59.5795 17.7574L59.6188 17.7346L59.6576 17.7127L59.6958 17.6888L59.7327 17.6626L59.768 17.6373L59.8024 17.6081L59.8359 17.5804L59.8693 17.5497L59.9003 17.5191L59.9308 17.487L59.9599 17.4534L59.989 17.4189L60.0156 17.3819L60.0413 17.3464L60.0675 17.3065L60.0917 17.2651L60.1155 17.2214L60.1382 17.1761L60.16 17.128L60.1804 17.0793L60.2007 17.0263L60.2206 16.9733L60.2385 16.9169L60.2555 16.859L60.2724 16.7991L60.2889 16.7374L60.3035 16.6727L60.3175 16.606L60.3311 16.5369L60.3442 16.4669L60.3568 16.3939L60.3679 16.3195L60.3786 16.2412L60.3887 16.1624L60.3984 16.0802L60.4062 15.997L60.4144 15.9099L60.4217 15.8228L60.428 15.7319L60.4333 15.6395L60.4386 15.5451L60.4425 15.4478L60.4459 15.3486L60.4493 15.2479L60.4508 15.1433L60.4527 15.0372V8.61527H71.1737V21.1669H66.6389V12.0953H64.5108V16.9888L64.5083 17.1382L64.504 17.2841L64.4972 17.4266L64.4894 17.5672L64.4778 17.7049L64.4657 17.8401L64.4497 17.971L64.4327 18.1004L64.4134 18.2268L64.392 18.3504L64.3683 18.471ZM73.5402 21.1669V8.61527H81.6428V12.0953H78.0732V13.3975H81.2857V16.2383H78.0732V17.6869H81.6428V21.1669H73.5402ZM83.6522 21.1669V8.61527H88.1866V13.5137L91.0095 8.61527H95.9403L91.9723 14.5605L96.0677 21.1669H90.8666L88.1866 15.96V21.1669H83.6522ZM98.881 21.1669V12.0953H96.3826V8.61527H105.914V12.0953H103.415V21.1669H98.881ZM107.328 21.1669V8.61527H113.418L113.56 8.6177L113.7 8.62208L113.837 8.62938L113.971 8.63862L114.104 8.65078L114.235 8.6644L114.363 8.67997L114.489 8.69894L114.614 8.71986L114.735 8.74223L114.854 8.76801L114.972 8.79574L115.088 8.82541L115.2 8.85752L115.311 8.89206L115.419 8.92902L115.526 8.96745L115.631 9.00831L115.733 9.05258L115.833 9.09782L115.931 9.14549L116.026 9.19657L116.119 9.24862L116.211 9.30358L116.3 9.36098L116.388 9.41984L116.473 9.48113L116.555 9.54534L116.637 9.6115L116.715 9.6796L116.793 9.75062L116.867 9.82359L116.94 9.8985L117.01 9.97584L117.078 10.0527L117.144 10.1315L117.207 10.2127L117.268 10.2945L117.328 10.3772L117.384 10.4623L117.438 10.5474L117.49 10.634L117.54 10.723L117.587 10.8125L117.632 10.904L117.674 10.9964L117.715 11.0903L117.752 11.1856L117.789 11.2819L117.822 11.3802L117.854 11.4794L117.882 11.5806L117.909 11.6823L117.933 11.7869L117.956 11.891L117.974 11.9975L117.992 12.106L118.008 12.2154L118.02 12.3258L118.031 12.4382L118.038 12.5515L118.044 12.6673L118.048 12.7836L118.049 12.9013L118.048 13.0229L118.044 13.1401L118.038 13.2574L118.031 13.3731L118.02 13.4884L118.008 13.6008L117.992 13.7117L117.974 13.8211L117.956 13.9301L117.933 14.0366L117.909 14.1422L117.882 14.2453L117.854 14.3475L117.822 14.4482L117.789 14.5474L117.752 14.6457L117.714 14.742L117.674 14.8373L117.632 14.9302L117.587 15.0222L117.539 15.1126L117.49 15.2017L117.438 15.2897L117.384 15.3758L117.328 15.4609L117.268 15.5441L117.207 15.6258L117.144 15.7071L117.078 15.7864L117.01 15.8647L116.94 15.9411L116.867 16.016L116.793 16.0884L116.715 16.1595L116.637 16.2281L116.555 16.2932L116.473 16.3574L116.388 16.4187L116.3 16.4776L116.211 16.535L116.12 16.5895L116.027 16.6415L115.931 16.6907L115.833 16.7383L115.733 16.7841L115.631 16.8269L115.527 16.8677L115.42 16.9062L115.311 16.9426L115.201 16.9767L115.088 17.0078L114.973 17.0365L114.856 17.0638L114.737 17.0876L114.615 17.1109L114.491 17.1309L114.365 17.1484L114.236 17.163L114.106 17.1761L113.973 17.1868L113.837 17.1956L113.701 17.2009L113.561 17.2043L113.418 17.2058H111.862V21.1669H107.328ZM111.862 11.7119V14.1096H112.501L112.536 14.1111L112.573 14.1116L112.61 14.1106L112.646 14.1091L112.681 14.1081L112.716 14.1052L112.752 14.1018L112.786 14.0984L112.818 14.0945L112.852 14.0887L112.885 14.0843L112.916 14.0775L112.948 14.0702L112.979 14.0634L113.009 14.0542L113.039 14.0444L113.069 14.0362L113.097 14.0245L113.127 14.0133L113.154 14.0016L113.181 13.989L113.208 13.9754L113.234 13.9612L113.26 13.9471L113.285 13.9306L113.309 13.9141L113.332 13.897L113.356 13.8795L113.378 13.8615L113.4 13.8421L113.421 13.8216L113.441 13.8012L113.461 13.7808L113.479 13.7594L113.498 13.7375L113.516 13.7151L113.533 13.6918L113.548 13.6679L113.564 13.6446L113.579 13.6198L113.595 13.5954L113.608 13.5706L113.621 13.5439L113.633 13.5176L113.646 13.4918L113.656 13.4646L113.667 13.4369L113.677 13.4077L113.687 13.3795L113.694 13.3512L113.704 13.3216L113.71 13.2914L113.718 13.2617L113.724 13.2311L113.729 13.199L113.735 13.1679L113.739 13.1362L113.742 13.1041L113.746 13.0715L113.749 13.038L113.751 13.0049L113.752 12.9713L113.753 12.9368V12.9013V12.8663L113.752 12.8312L113.751 12.7948L113.749 12.7607L113.745 12.7276L113.742 12.6941L113.739 12.661L113.734 12.6289L113.728 12.5963L113.723 12.5652L113.717 12.534L113.71 12.5039L113.701 12.4732L113.693 12.444L113.684 12.4149L113.674 12.3866L113.663 12.3589L113.653 12.3317L113.642 12.3044L113.629 12.2777L113.615 12.2524L113.602 12.2266L113.588 12.2018L113.572 12.178L113.557 12.1546L113.54 12.1308L113.523 12.1089L113.505 12.0865L113.487 12.0651L113.468 12.0452L113.448 12.0247L113.427 12.0062L113.407 11.9868L113.385 11.9693L113.363 11.9518L113.34 11.9352L113.318 11.9187L113.294 11.9041L113.27 11.8895L113.244 11.8744L113.22 11.8608L113.193 11.8486L113.168 11.836L113.141 11.8248L113.113 11.8122L113.086 11.8019L113.057 11.7917L113.028 11.7835L112.999 11.7742L112.969 11.7664L112.94 11.7586L112.909 11.7513L112.876 11.746L112.845 11.7397L112.814 11.7334L112.78 11.7295L112.747 11.7256L112.714 11.7217L112.68 11.7188L112.644 11.7163L112.61 11.7149L112.575 11.7124H112.538L112.503 11.7119H111.862ZM126.065 21.5502L125.882 21.5473L125.7 21.5405L125.52 21.5307L125.342 21.5176L125.167 21.5006L124.994 21.4816L124.823 21.4578L124.653 21.4305L124.486 21.4004L124.321 21.3663L124.158 21.3289L123.997 21.288L123.838 21.2437L123.682 21.1961L123.527 21.1464L123.374 21.0915L123.224 21.0336L123.075 20.9723L122.928 20.9076L122.783 20.8395L122.641 20.768L122.5 20.6926L122.361 20.6143L122.225 20.5335L122.09 20.4484L121.957 20.3589L121.827 20.267L121.698 20.1711L121.572 20.0724L121.448 19.9698L121.325 19.8642L121.203 19.7543L121.087 19.6419L120.973 19.5281L120.862 19.4108L120.756 19.2912L120.654 19.1686L120.556 19.0445L120.46 18.9166L120.37 18.7872L120.282 18.6549L120.198 18.5197L120.118 18.3815L120.041 18.2414L119.969 18.0999L119.9 17.9539L119.834 17.8065L119.773 17.6558L119.715 17.503L119.661 17.3474L119.61 17.1897L119.563 17.0287L119.521 16.8643L119.481 16.6984L119.446 16.5296L119.414 16.3584L119.386 16.1838L119.362 16.0082L119.341 15.8277L119.324 15.6458L119.311 15.4614L119.302 15.2737L119.296 15.0839L119.294 14.8918L119.296 14.7001L119.302 14.5104L119.311 14.3241L119.324 14.1403L119.341 13.9588L119.362 13.7808L119.386 13.6052L119.414 13.4315L119.446 13.2603L119.481 13.0925L119.521 12.9276L119.563 12.7641L119.61 12.6031L119.661 12.4455L119.715 12.2908L119.773 12.1376L119.834 11.9868L119.9 11.8394L119.969 11.6949L120.041 11.5524L120.118 11.4118L120.198 11.2746L120.282 11.1399L120.37 11.0071L120.46 10.8772L120.556 10.7498L120.654 10.6243L120.757 10.5017L120.862 10.3815L120.974 10.2643L121.087 10.1485L121.204 10.0362L121.325 9.92623L121.448 9.82018L121.572 9.71706L121.699 9.61734L121.827 9.52151L121.957 9.42908L122.09 9.34007L122.225 9.25445L122.362 9.17224L122.501 9.09344L122.641 9.01804L122.784 8.94605L122.928 8.87746L123.075 8.81277L123.224 8.75147L123.374 8.6931L123.527 8.63813L123.682 8.58706L123.839 8.53939L123.998 8.49512L124.158 8.45426L124.322 8.41632L124.486 8.38227L124.653 8.35259L124.823 8.32584L124.994 8.302L125.167 8.28157L125.342 8.26455L125.52 8.25141L125.7 8.2412L125.882 8.23488L126.065 8.23244L126.247 8.23488L126.428 8.2412L126.607 8.25141L126.782 8.26455L126.958 8.28157L127.13 8.302L127.3 8.32584L127.47 8.35259L127.637 8.38227L127.8 8.41632L127.962 8.45426L128.124 8.49512L128.282 8.53939L128.438 8.58706L128.593 8.63813L128.745 8.6931L128.896 8.75147L129.045 8.81277L129.191 8.87746L129.336 8.94605L129.478 9.01804L129.619 9.09344L129.758 9.17224L129.894 9.25445L130.028 9.34007L130.161 9.42908L130.293 9.52151L130.421 9.61734L130.549 9.71706L130.673 9.82018L130.796 9.92623L130.918 10.0366L131.036 10.1485L131.15 10.2643L131.26 10.382L131.367 10.5027L131.47 10.6243L131.569 10.7503L131.665 10.8772L131.756 11.0071L131.845 11.1399L131.928 11.2746L132.009 11.4118L132.085 11.5524L132.159 11.6949L132.228 11.8394L132.293 11.9868L132.356 12.1376L132.414 12.2908L132.469 12.4455L132.518 12.6031L132.565 12.7641L132.609 12.9276L132.647 13.0925L132.684 13.2608L132.716 13.4315L132.743 13.6052L132.769 13.7808L132.789 13.9588L132.806 14.1403L132.819 14.3241L132.829 14.5104L132.834 14.7001L132.836 14.8918L132.834 15.0839L132.829 15.2737L132.819 15.4614L132.806 15.6458L132.789 15.8277L132.769 16.0082L132.743 16.1838L132.716 16.3579L132.684 16.5296L132.647 16.698L132.609 16.8643L132.565 17.0287L132.518 17.1893L132.468 17.3474L132.414 17.5025L132.356 17.6558L132.293 17.8061L132.228 17.9539L132.159 18.0994L132.085 18.2414L132.009 18.3815L131.928 18.5192L131.845 18.6549L131.756 18.7872L131.665 18.9161L131.569 19.0441L131.47 19.1686L131.367 19.2912L131.26 19.4108L131.15 19.5281L131.036 19.6419L130.918 19.7543L130.796 19.8637L130.673 19.9698L130.549 20.0724L130.421 20.1711L130.293 20.267L130.161 20.3589L130.028 20.4484L129.894 20.5335L129.758 20.6143L129.619 20.6926L129.478 20.768L129.336 20.8395L129.192 20.9076L129.045 20.9723L128.896 21.0336L128.745 21.0915L128.593 21.1464L128.439 21.1961L128.282 21.2437L128.124 21.288L127.963 21.3289L127.801 21.3663L127.637 21.4004L127.47 21.4305L127.3 21.4578L127.13 21.4816L126.958 21.5006L126.783 21.5176L126.607 21.5307L126.428 21.5405L126.247 21.5473L126.065 21.5502ZM126.065 17.6869L126.127 17.6864L126.191 17.6849L126.252 17.6806L126.314 17.6757L126.375 17.6694L126.435 17.6616L126.495 17.6519L126.553 17.6416L126.612 17.629L126.67 17.6154L126.728 17.6008L126.785 17.5838L126.842 17.5658L126.897 17.5458L126.953 17.5254L127.007 17.502L127.062 17.4787L127.115 17.4534L127.168 17.4266L127.221 17.3989L127.272 17.3688L127.324 17.3376L127.375 17.306L127.425 17.272L127.474 17.2369L127.522 17.2004L127.57 17.162L127.618 17.1221L127.665 17.0813L127.712 17.0394L127.757 16.9957L127.802 16.9509L127.847 16.9047L127.89 16.8565L127.931 16.8069L127.972 16.7558L128.011 16.7043L128.049 16.6522L128.084 16.5982L128.119 16.5433L128.153 16.4873L128.184 16.4299L128.214 16.3716L128.244 16.3122L128.271 16.2514L128.296 16.1896L128.322 16.1259L128.344 16.0627L128.367 15.998L128.387 15.9308L128.405 15.8642L128.423 15.7961L128.439 15.7256L128.453 15.6555L128.467 15.584L128.479 15.5115L128.49 15.4376L128.498 15.3622L128.506 15.2868L128.512 15.2104L128.517 15.1321L128.521 15.0528L128.522 14.9721L128.523 14.8918L128.522 14.8111L128.521 14.7318L128.517 14.6534L128.512 14.5771L128.506 14.5007L128.498 14.4263L128.49 14.3519L128.479 14.2789L128.467 14.2069L128.453 14.1359L128.439 14.0653L128.423 13.9963L128.405 13.9282L128.387 13.862L128.367 13.7963L128.344 13.7316L128.322 13.6674L128.296 13.6052L128.271 13.5434L128.244 13.4826L128.214 13.4232L128.184 13.3654L128.153 13.3075L128.119 13.251L128.085 13.1956L128.049 13.1426L128.012 13.0891L127.972 13.037L127.932 12.9859L127.89 12.9373L127.848 12.8891L127.803 12.8415L127.757 12.7952L127.712 12.7515L127.665 12.7087L127.619 12.6673L127.572 12.6269L127.523 12.589L127.474 12.5515L127.425 12.516L127.375 12.482L127.324 12.4484L127.273 12.4173L127.221 12.3871L127.169 12.3589L127.116 12.3322L127.062 12.3064L127.007 12.2816L126.953 12.2597L126.897 12.2388L126.843 12.2188L126.785 12.2003L126.728 12.1838L126.671 12.1677L126.612 12.1541L126.554 12.1415L126.495 12.1308L126.435 12.121L126.375 12.1133L126.314 12.1064L126.252 12.1021L126.191 12.0987L126.127 12.0957L126.065 12.0953L126.001 12.0957L125.938 12.0987L125.875 12.1021L125.813 12.1064L125.751 12.1133L125.69 12.121L125.63 12.1308L125.57 12.141L125.51 12.1541L125.451 12.1677L125.394 12.1838L125.336 12.1998L125.278 12.2183L125.223 12.2388L125.167 12.2597L125.111 12.2816L125.057 12.3059L125.004 12.3322L124.95 12.3589L124.898 12.3871L124.845 12.4173L124.794 12.4484L124.744 12.482L124.694 12.516L124.644 12.5515L124.596 12.589L124.548 12.6274L124.501 12.6678L124.453 12.7087L124.408 12.752L124.363 12.7967L124.319 12.8419L124.274 12.8896L124.231 12.9378L124.19 12.9864L124.15 13.0375L124.112 13.0891L124.075 13.1426L124.04 13.197L124.006 13.252L123.973 13.308L123.942 13.3658L123.912 13.4237L123.883 13.4831L123.856 13.5439L123.831 13.6057L123.805 13.6674L123.784 13.7316L123.761 13.7968L123.742 13.8625L123.723 13.9296L123.706 13.9963L123.69 14.0658L123.676 14.1359L123.662 14.2069L123.651 14.2794L123.641 14.3519L123.631 14.4263L123.624 14.5012L123.618 14.5771L123.614 14.6534L123.61 14.7318L123.608 14.8111L123.607 14.8918L123.608 14.9721L123.61 15.0528L123.614 15.1321L123.618 15.2104L123.624 15.2863L123.631 15.3622L123.641 15.4371L123.651 15.5115L123.662 15.584L123.676 15.6555L123.69 15.7256L123.706 15.7956L123.723 15.8642L123.742 15.9304L123.761 15.9975L123.784 16.0627L123.805 16.1259L123.831 16.1896L123.856 16.2514L123.883 16.3107L123.912 16.3711L123.942 16.4294L123.973 16.4873L124.006 16.5428L124.04 16.5977L124.075 16.6522L124.112 16.7043L124.151 16.7558L124.19 16.8064L124.232 16.8551L124.275 16.9032L124.319 16.9504L124.364 16.9952L124.409 17.0389L124.455 17.0813L124.501 17.1221L124.548 17.162L124.596 17.2L124.645 17.2369L124.694 17.272L124.745 17.306L124.794 17.3376L124.846 17.3688L124.899 17.3989L124.95 17.4266L125.004 17.4534L125.057 17.4792L125.111 17.5025L125.167 17.5254L125.223 17.5458L125.279 17.5658L125.336 17.5838L125.394 17.6008L125.451 17.6154L125.511 17.629L125.57 17.6416L125.63 17.6519L125.69 17.6616L125.751 17.6694L125.813 17.6757L125.875 17.6806L125.938 17.6849L126.001 17.6864L126.065 17.6869Z" fill="#00507C"/>
<path fill-rule="evenodd" clip-rule="evenodd" d="M12.8791 2.36744C7.72166 3.66866 3.35058 6.71962 2.07526 11.676C-0.0460739 19.9187 0.31685 27.6764 2.07526 34.9477C3.2779 39.923 7.7832 42.7317 12.8791 44.2562C17.76 45.7165 22.884 45.716 28.2494 44.2562C33.3812 42.8602 38.2383 40.051 39.0668 35.0003C40.3393 27.243 40.7031 19.4848 39.0668 11.728C38.0105 6.72059 33.4403 3.52273 28.2494 2.36744C23.1263 1.22722 18.0022 1.07448 12.8791 2.36744ZM13.3414 32.5252H27.8278V35.2751H13.3414V32.5252ZM15.0455 36.497H26.1237V39.2469H15.0455V36.497ZM13.7673 28.5535H27.4019V26.3538H30.2627V31.3028H10.9066V28.9198V28.5535V26.3538H13.7673V28.5535ZM20.5844 7.59423C15.1706 7.59423 10.7544 12.0276 10.7544 17.4626C10.7544 22.8981 15.1706 27.331 20.5844 27.331C25.9982 27.331 30.4148 22.8981 30.4148 17.4626C30.4148 12.0276 25.9982 7.59423 20.5844 7.59423ZM22.0758 10.2531C25.4046 10.9482 27.9189 13.9199 27.9189 17.4626C27.9189 21.0054 25.4046 23.9775 22.0758 24.6722V10.2531ZM49.2006 38.1908V29.1192H46.7028V25.6392H56.2338V29.1192H53.735V38.1908H49.2006ZM58.2437 38.1908V25.6392H66.3481V29.1192H62.7785V30.4214H65.991V33.2622H62.7785V34.7108H66.3481V38.1908H58.2437ZM67.8556 38.1908H72.8178L74.5563 34.8577L76.1524 38.1908H81.2334L77.0537 31.404L80.6044 25.6392H75.679L74.551 28.2368L73.4244 25.6392H68.28L72.0164 31.5869L67.8556 38.1908ZM89.4222 38.2779L89.3742 38.2935L89.3277 38.3076L89.2807 38.3217L89.2327 38.3353L89.1852 38.3489L89.1372 38.3606L89.0898 38.3732L89.0418 38.3849L88.9938 38.3971L88.9444 38.4078L88.8964 38.4185L88.848 38.4292L88.7986 38.4394L88.7496 38.4491L88.7002 38.4588L88.6503 38.4676L88.5999 38.4764L88.5505 38.4837L88.5001 38.4929L88.4492 38.4997L88.3978 38.507L88.347 38.5138L88.2956 38.5206L88.2437 38.5269L88.1924 38.5318L88.1396 38.5376L88.0877 38.542L88.0344 38.5474L87.9821 38.5513L87.9288 38.5552L87.876 38.5586L87.8222 38.562L87.7679 38.5649L87.7146 38.5678L87.6608 38.5693L87.6061 38.5717L87.5518 38.5722L87.4956 38.5727L87.4409 38.5732L87.3861 38.5736L87.2049 38.5717L87.0271 38.5663L86.8507 38.5581L86.6767 38.5449L86.5052 38.5284L86.3356 38.5094L86.1684 38.4861L86.0037 38.4593L85.8404 38.4282L85.6795 38.3941L85.5206 38.3572L85.3636 38.3158L85.21 38.2711L85.0574 38.2229L84.9077 38.1714L84.7599 38.1159L84.614 38.0575L84.4701 37.9943L84.3291 37.9286L84.19 37.8595L84.0529 37.7856L83.9172 37.7092L83.7845 37.6285L83.6541 37.5448L83.5248 37.4573L83.3983 37.3668L83.2733 37.2719L83.1502 37.1746L83.03 37.0725L82.9118 36.9669L82.7955 36.8575L82.6802 36.7451L82.5697 36.6303L82.4617 36.5116L82.357 36.392L82.2567 36.2703L82.1588 36.1453L82.0658 36.0189L81.9757 35.8904L81.8885 35.7586L81.8061 35.6253L81.7261 35.4901L81.6501 35.3515L81.5779 35.2114L81.5091 35.0688L81.4441 34.9234L81.3811 34.776L81.323 34.6272L81.2682 34.4749L81.2169 34.3207L81.1689 34.1636L81.1248 34.005L81.0841 33.8445L81.0468 33.6805L81.0129 33.5152L80.9833 33.3468L80.9567 33.1761L80.9339 33.0024L80.9136 32.8273L80.8985 32.6498L80.8854 32.4688L80.8762 32.2869L80.8719 32.102L80.8695 31.9143L80.8719 31.7362L80.8762 31.5611L80.8854 31.3865L80.8981 31.2143L80.9136 31.0436L80.9339 30.8757L80.9567 30.7084L80.9828 30.544L81.0129 30.381L81.0468 30.2195L81.0841 30.0609L81.1248 29.9043L81.1689 29.7496L81.2169 29.5959L81.2682 29.4451L81.323 29.2953L81.3811 29.1474L81.4432 29.0015L81.5091 28.8575L81.5779 28.7164L81.6501 28.5763L81.7261 28.4387L81.8061 28.3015L81.8889 28.1672L81.9762 28.0344L82.0658 27.9036L82.1603 27.7742L82.2572 27.6472L82.358 27.5217L82.4622 27.3982L82.5707 27.2756L82.6826 27.1559L82.796 27.0392L82.9128 26.9258L83.031 26.8164L83.1512 26.7103L83.2733 26.6082L83.3978 26.5109L83.5228 26.4156L83.6512 26.3241L83.7806 26.238L83.9134 26.1548L84.0466 26.0741L84.1828 25.9982L84.3199 25.9262L84.4595 25.8581L84.6019 25.7929L84.7453 25.7316L84.8897 25.6737L85.0385 25.6207L85.1877 25.5701L85.3394 25.5244L85.493 25.4811L85.649 25.4427L85.806 25.4067L85.9659 25.3751L86.1273 25.3473L86.291 25.3235L86.4577 25.3031L86.6254 25.286L86.7954 25.2729L86.967 25.2646L87.1409 25.2583L87.3173 25.2559H87.374L87.4302 25.2578L87.4869 25.2583L87.5426 25.2612L87.5979 25.2627L87.6541 25.2656L87.7098 25.269L87.766 25.2724L87.8212 25.2768L87.8769 25.2817L87.9322 25.2865L87.9879 25.2929L88.0431 25.2997L88.0979 25.3065L88.1531 25.3133L88.2079 25.3211L88.2631 25.3298L88.3189 25.3381L88.3736 25.3478L88.4284 25.358L88.4826 25.3687L88.5374 25.379L88.5921 25.3911L88.6464 25.4023L88.7012 25.4154L88.7549 25.4276L88.8082 25.4407L88.8625 25.4548L88.9168 25.4699L88.971 25.4845L89.0248 25.5006L89.0781 25.5161L89.1319 25.5327L89.1852 25.5497L89.2889 25.5838L89.3398 25.6013L89.4415 25.6382L89.49 25.6562L89.5399 25.6762L89.5884 25.6961L89.6358 25.7146L89.6838 25.7345L89.7308 25.755L89.7768 25.7754L89.8229 25.7963L89.8679 25.8177L89.912 25.8401L89.9561 25.8615L90.0002 25.8844L90.0424 25.9063L90.0855 25.9296L90.1267 25.953L90.1679 25.9768L90.2091 26.0001L90.2493 26.0245L90.288 26.0488L90.3278 26.0731L90.3661 26.0979L90.4038 26.1237L90.4412 26.1495L90.4683 26.1689V30.2794L90.4436 30.2526L90.4092 30.2166L90.3753 30.1821L90.3394 30.148L90.3045 30.114L90.2696 30.0814L90.2328 30.0483L90.1955 30.0162L90.1582 29.9836L90.1209 29.9525L90.0831 29.9213L90.0448 29.8907L90.0055 29.8605L89.9663 29.8313L89.9266 29.8022L89.8859 29.7739L89.8456 29.7462L89.804 29.719L89.7628 29.6912L89.7211 29.6645L89.679 29.6382L89.6358 29.6129L89.5922 29.5881L89.5481 29.5628L89.5045 29.5385L89.4599 29.5147L89.4149 29.4923L89.3698 29.4694L89.3252 29.448L89.2787 29.4271L89.2337 29.4067L89.1886 29.3867L89.1421 29.3673L89.0965 29.3493L89.0495 29.3318L89.0045 29.3147L88.9575 29.2982L88.9105 29.2831L88.8645 29.2676L88.817 29.2539L88.77 29.2403L88.7225 29.2272L88.675 29.2155L88.6275 29.2048L88.58 29.1931L88.532 29.1844L88.4841 29.1746L88.4366 29.1654L88.3881 29.1576L88.3402 29.1508L88.2917 29.1445L88.2437 29.1382L88.1943 29.1338L88.1459 29.1294L88.0974 29.1265L88.0475 29.1231L87.9986 29.1207L87.9477 29.1192L87.8629 29.1202L87.781 29.1226L87.6996 29.1265L87.6206 29.1314L87.5421 29.1387L87.4641 29.1474L87.3885 29.1576L87.3134 29.1698L87.2393 29.1824L87.1666 29.1985L87.0954 29.215L87.0246 29.2335L86.9553 29.2535L86.8875 29.2749L86.8216 29.2982L86.7552 29.323L86.6913 29.3498L86.6283 29.3775L86.5667 29.4077L86.5062 29.4388L86.4471 29.4723L86.3889 29.5069L86.3322 29.5439L86.277 29.5818L86.2227 29.6202L86.1709 29.6616L86.118 29.7054L86.0686 29.7496L86.0192 29.7953L85.9717 29.843L85.9257 29.8931L85.8806 29.9427L85.8375 29.9948L85.7963 30.0478L85.7556 30.1008L85.7168 30.1543L85.6795 30.2113L85.6427 30.2672L85.6083 30.3246L85.5749 30.3825L85.5424 30.4413L85.5119 30.5012L85.4823 30.562L85.4542 30.6238L85.4281 30.687L85.4019 30.7497L85.3781 30.8149L85.3563 30.8801L85.335 30.9458L85.3152 31.0134L85.2972 31.0815L85.2803 31.1501L85.2648 31.2196L85.2502 31.2907L85.2371 31.3622L85.226 31.4342L85.2158 31.5071L85.2066 31.5811L85.1994 31.6565L85.193 31.7319L85.1887 31.8077L85.1858 31.8861L85.1829 31.9639L85.1824 32.0427L85.1829 32.1191L85.1858 32.195L85.1892 32.2704L85.1935 32.3448L85.2003 32.4173L85.209 32.4893L85.2173 32.5608L85.2284 32.6303L85.2405 32.7004L85.2541 32.768L85.2866 32.9003L85.305 32.9655L85.3248 33.0302L85.3457 33.0939L85.368 33.1552L85.3927 33.217L85.4179 33.2763L85.445 33.3347L85.4731 33.3931L85.5036 33.4505L85.5347 33.5059L85.5681 33.5604L85.6025 33.6149L85.6388 33.6669L85.6766 33.7185L85.7149 33.7691L85.7556 33.8182L85.7968 33.8673L85.8409 33.9135L85.885 33.9602L85.932 34.005L85.979 34.0488L86.0274 34.0906L86.0764 34.1315L86.1273 34.1704L86.1781 34.2098L86.23 34.2458L86.2842 34.2818L86.3385 34.3149L86.3938 34.3475L86.4504 34.3786L86.5081 34.4087L86.5663 34.437L86.6254 34.4637L86.6859 34.489L86.747 34.5128L86.8085 34.5362L86.8715 34.5571L86.9355 34.5771L87.0004 34.596L87.0673 34.613L87.1332 34.6286L87.2015 34.6427L87.2698 34.6559L87.3401 34.6675L87.4098 34.6777L87.4816 34.6865L87.5533 34.6938L87.6274 34.7006L87.7015 34.7045L87.7771 34.7079L87.8527 34.7108H87.9724L88.0155 34.7103L88.0582 34.7079L88.1013 34.7069L88.1449 34.704L88.1875 34.7006L88.2311 34.6967L88.2748 34.6933L88.3169 34.6875L88.361 34.6826L88.4041 34.6768L88.4477 34.6695L88.4909 34.6627L88.5345 34.6554L88.5786 34.6466L88.6222 34.6383L88.6648 34.6286L88.7089 34.6184L88.7525 34.6082L88.7966 34.5975L88.8402 34.5853L88.8833 34.5732L88.9274 34.56L88.9715 34.5469L89.0151 34.5328L89.0597 34.5187L89.1033 34.5041L89.1479 34.488L89.1915 34.4715L89.2346 34.4545L89.2787 34.4374L89.3233 34.4194L89.3674 34.4014L89.4115 34.382L89.4556 34.362L89.4997 34.3411L89.5438 34.3202L89.5874 34.2988L89.63 34.2764L89.6736 34.2526L89.7172 34.2297L89.7589 34.2049L89.8025 34.1801L89.8447 34.1553L89.8878 34.1286L89.9295 34.1013L89.9712 34.0741L90.0138 34.0463L90.055 34.0176L90.0962 33.988L90.1373 33.9573L90.1785 33.9267L90.2197 33.896L90.2604 33.8644L90.3011 33.8313L90.3418 33.7987L90.382 33.7647L90.4227 33.7306L90.4615 33.6946L90.4683 33.6898V37.8343L90.4368 37.8503L90.3922 37.8741L90.3462 37.898L90.3011 37.9208L90.2561 37.9427L90.21 37.9656L90.1645 37.987L90.1194 38.0079L90.0734 38.0288L90.0278 38.0493L89.9808 38.0692L89.9353 38.0891L89.8888 38.1091L89.8432 38.1266L89.7962 38.1451L89.7492 38.1641L89.7037 38.1816L89.6567 38.1991L89.6097 38.2151L89.5636 38.2322L89.5162 38.2472L89.4692 38.2633L89.4222 38.2779ZM92.955 38.1908V25.6392H97.4893V30.0386H100.094V25.6392H104.627V38.1908H100.094V33.5181H97.4893V38.1908H92.955ZM106.444 38.1908L110.602 25.6392H115.675L119.832 38.1908H115.197L114.721 36.3287H111.555L111.079 38.1908H106.444ZM113.138 29.5448L112.16 33.361H114.116L113.138 29.5448ZM121.649 38.1908V25.6392H131.298V29.1192H126.182V30.4953H127.926L128.072 30.4958L128.216 30.4992L128.357 30.5036L128.496 30.5104L128.631 30.5201L128.765 30.5308L128.896 30.5435L129.025 30.5581L129.151 30.5751L129.274 30.5946L129.396 30.6155L129.514 30.6374L129.63 30.6622L129.744 30.6884L129.855 30.7181L129.964 30.7483L130.07 30.7804L130.174 30.8149L130.276 30.8514L130.375 30.8898L130.471 30.9302L130.564 30.9716L130.656 31.0163L130.745 31.0616L130.832 31.1092L130.915 31.1598L130.997 31.2114L131.076 31.2639L131.154 31.3199L131.228 31.3768L131.3 31.4361L131.369 31.4969L131.437 31.5601L131.502 31.6253L131.566 31.691L131.627 31.7586L131.686 31.8277L131.743 31.8973L131.798 31.9692L131.85 32.0432L131.901 32.1181L131.949 32.1945L131.996 32.2723L132.039 32.3516L132.081 32.4333L132.121 32.5155L132.159 32.5992L132.194 32.6843L132.227 32.7719L132.258 32.8609L132.288 32.9509L132.315 33.0433L132.34 33.1362L132.363 33.2316L132.383 33.3279L132.401 33.4266L132.418 33.5263L132.432 33.628L132.443 33.7306L132.453 33.8347L132.461 33.9413L132.466 34.0498L132.47 34.1587L132.471 34.2696L132.47 34.3854L132.466 34.4992L132.46 34.6116L132.453 34.722L132.443 34.831L132.431 34.939L132.417 35.0435L132.401 35.1481L132.381 35.2508L132.361 35.3505L132.339 35.4497L132.314 35.5465L132.286 35.6424L132.257 35.7367L132.225 35.8291L132.192 35.9191L132.156 36.0082L132.118 36.0962L132.078 36.1818L132.036 36.2655L131.991 36.3477L131.944 36.4294L131.896 36.5082L131.845 36.5865L131.792 36.6624L131.736 36.7373L131.679 36.8098L131.62 36.8813L131.558 36.9523L131.494 37.0209L131.428 37.0871L131.36 37.1523L131.289 37.216L131.217 37.2778L131.142 37.3366L131.065 37.394L130.985 37.4495L130.904 37.503L130.819 37.5546L130.733 37.6032L130.643 37.6509L130.552 37.6966L130.458 37.7404L130.362 37.7817L130.263 37.8216L130.161 37.8595L130.058 37.8946L129.953 37.9286L129.844 37.9598L129.734 37.9899L129.619 38.0172L129.504 38.0424L129.386 38.0658L129.265 38.0877L129.142 38.1067L129.018 38.1247L128.889 38.1402L128.759 38.1538L128.626 38.1645L128.49 38.1743L128.353 38.1816L128.214 38.1859L128.071 38.1889L127.926 38.1908H121.649ZM126.182 35.3505H126.788L126.826 35.351H126.864L126.901 35.3505L126.938 35.3495L126.972 35.3471L127.007 35.3447L127.043 35.3422L127.077 35.3388L127.111 35.334L127.143 35.3301L127.176 35.3247L127.208 35.3194L127.24 35.3125L127.272 35.3062L127.302 35.2984L127.331 35.2902L127.361 35.2819L127.391 35.2722L127.419 35.2624L127.447 35.2517L127.474 35.241L127.501 35.2299L127.528 35.2172L127.553 35.2041L127.579 35.1905L127.603 35.1763L127.627 35.1618L127.651 35.1457L127.674 35.1301L127.696 35.1136L127.717 35.0966L127.739 35.0776L127.759 35.0596L127.778 35.0401L127.798 35.0212L127.816 35.0007L127.834 34.9803L127.851 34.9584L127.866 34.9365L127.883 34.9146L127.897 34.8918L127.912 34.8679L127.926 34.8436L127.939 34.8198L127.951 34.795L127.962 34.7687L127.973 34.7434L127.983 34.7171L127.993 34.6899L128.002 34.6627L128.01 34.6349L128.017 34.6072L128.023 34.578L128.03 34.5493L128.036 34.5197L128.04 34.4905L128.044 34.4603L128.048 34.4297L128.051 34.3985L128.053 34.3669L128.054 34.3348L128.056 34.3027L128.056 34.2696L128.056 34.2385L128.054 34.2088L128.053 34.1791L128.051 34.149L128.048 34.1208L128.044 34.0911L128.04 34.0629L128.036 34.0352L128.03 34.0074L128.025 33.9797L128.019 33.953L128.011 33.9257L128.003 33.8994L127.995 33.8737L127.985 33.8479L127.975 33.8231L127.965 33.7973L127.954 33.7735L127.941 33.7496L127.928 33.7268L127.916 33.7034L127.901 33.6805L127.887 33.6587L127.872 33.6363L127.856 33.6154L127.839 33.5949L127.822 33.5745L127.804 33.5541L127.787 33.5356L127.767 33.5166L127.747 33.4986L127.727 33.4811L127.706 33.4636L127.684 33.4466L127.661 33.43L127.638 33.414L127.614 33.3994L127.59 33.3853L127.566 33.3712L127.539 33.358L127.514 33.3454L127.487 33.3337L127.46 33.3211L127.432 33.3108L127.403 33.3006L127.375 33.2904L127.345 33.2821L127.314 33.2729L127.283 33.2656L127.252 33.2578L127.221 33.251L127.188 33.2447L127.155 33.2379L127.122 33.2325L127.087 33.2282L127.052 33.2243L127.017 33.2204L126.982 33.217L126.945 33.214L126.907 33.2111L126.87 33.2102L126.832 33.2082L126.793 33.2077H126.754H126.182V35.3505ZM47.8594 17.6217L47.9069 17.646L48.0018 17.6937L48.0488 17.717L48.0968 17.7384L48.1448 17.7608L48.1932 17.7817L48.2407 17.8022L48.2887 17.8221L48.3371 17.8411L48.3851 17.8605L48.4336 17.8785L48.483 17.8961L48.5314 17.9141L48.5794 17.9301L48.6293 17.9462L48.6783 17.9622L48.7262 17.9768L48.7766 17.9914L48.8256 18.0055L48.876 18.0186L48.9259 18.0318L48.9763 18.0449L49.0262 18.0566L49.077 18.0687L49.1284 18.0794L49.1793 18.0901L49.2302 18.1004L49.2815 18.1096L49.3329 18.1184L49.3847 18.1276L49.4375 18.1354L49.4889 18.1427L49.5412 18.1509L49.5945 18.1568L49.6464 18.1626L49.7002 18.1685L49.7525 18.1733L49.8063 18.1787L49.8601 18.1826L49.9134 18.186L49.9671 18.1894L50.0214 18.1923L50.0757 18.1942L50.1304 18.1962L50.1852 18.1972L50.24 18.1986L50.2952 18.1991L50.3587 18.1976L50.4202 18.1962L50.4817 18.1938L50.5433 18.1908L50.6038 18.1865L50.663 18.1821L50.7216 18.1758L50.7812 18.1689L50.8393 18.1612L50.8955 18.1519L50.9527 18.1422L51.008 18.132L51.0642 18.1208L51.1189 18.1077L51.1732 18.094L51.226 18.0799L51.2793 18.0653L51.3311 18.0488L51.382 18.0313L51.4334 18.0128L51.4838 17.9938L51.5327 17.9739L51.5821 17.953L51.6306 17.9311L51.6781 17.9082L51.7241 17.8844L51.7706 17.8601L51.8162 17.8338L51.8608 17.8065L51.9048 17.7788L51.9485 17.7511L51.9921 17.7209L52.0337 17.6903L52.0749 17.6592L52.1156 17.6251L52.1554 17.5925L52.1936 17.5565L52.2314 17.5215L52.2683 17.484L52.3036 17.4461L52.338 17.4077L52.3715 17.3678L52.4054 17.3264L52.4364 17.2851L52.4674 17.2413L52.4979 17.197L52.527 17.1528L52.5546 17.1075L52.5818 17.0599L52.6069 17.0122L52.6331 16.964L52.6569 16.9149L52.6791 16.8638L52.7019 16.8128L52.7228 16.7592L52.7431 16.7062L52.763 16.6522L52.7804 16.5968L52.7974 16.5399L52.8143 16.4839L52.8289 16.4255L52.8444 16.3657L52.8579 16.3064L52.8972 16.1108H49.2006V13.5439H52.7135L52.6709 13.3556L52.6578 13.3046L52.6438 13.2544L52.6283 13.2048L52.6123 13.1562L52.5944 13.108L52.5755 13.0604L52.5556 13.0127L52.5352 12.966L52.5134 12.9203L52.4897 12.8755L52.4659 12.8308L52.4398 12.787L52.4127 12.7427L52.385 12.7009L52.3564 12.6581L52.3264 12.6167L52.2954 12.5754L52.2624 12.5365L52.2285 12.4966L52.1941 12.4581L52.1592 12.4207L52.1219 12.3827L52.0841 12.3458L52.0449 12.3103L52.0051 12.2743L51.964 12.2397L51.9213 12.2057L51.8777 12.1731L51.8331 12.14L51.7881 12.1089L51.7416 12.0773L51.695 12.0471L51.6471 12.0169L51.5981 11.9892L51.5497 11.962L51.5002 11.9347L51.4503 11.909L51.3995 11.8841L51.3486 11.8603L51.2972 11.8384L51.2454 11.816L51.1921 11.7951L51.1398 11.7766L51.086 11.7572L51.0317 11.7397L50.9769 11.7226L50.9217 11.7061L50.8665 11.692L50.8098 11.6779L50.7541 11.6648L50.6969 11.6536L50.6387 11.6414L50.5806 11.6322L50.522 11.6229L50.4624 11.6142L50.4037 11.6069L50.3432 11.6015L50.2826 11.5957L50.222 11.5918L50.1595 11.5884L50.097 11.586L50.035 11.585H49.9715H49.9284L49.8843 11.5855L49.8402 11.5864L49.7961 11.5889L49.751 11.5918L49.706 11.5947L49.6609 11.5986L49.6163 11.6025L49.5713 11.6069L49.5267 11.6127L49.4821 11.619L49.4356 11.6254L49.3905 11.6331L49.3455 11.6404L49.2994 11.6482L49.2534 11.657L49.2069 11.6667L49.1618 11.676L49.1153 11.6871L49.0693 11.6978L49.0223 11.709L48.9758 11.7217L48.9297 11.7338L48.8827 11.7475L48.8357 11.7611L48.7892 11.7766L48.7422 11.7908L48.6947 11.8063L48.6473 11.8219L48.5998 11.8389L48.5523 11.8559L48.5043 11.8734L48.4568 11.8929L48.4098 11.9109L48.3633 11.9299L48.3163 11.9488L48.2698 11.9688L48.2242 11.9887L48.1777 12.0096L48.1327 12.0301L48.0876 12.0505L48.0411 12.0719L47.9965 12.0928L47.9524 12.1157L47.9078 12.1371L47.8637 12.1604L47.8206 12.1838L47.777 12.2062L47.7339 12.23L47.6903 12.2543L47.6481 12.2796L47.6055 12.3039L47.5633 12.3288L47.5217 12.355L47.4805 12.3798L47.4388 12.4066L47.3971 12.4338L47.3569 12.4596L47.3167 12.4868L47.2968 12.5V9.13722L47.3424 9.11339L47.3962 9.08614L47.4495 9.0589L47.5023 9.03264L47.5565 9.00734L47.6108 8.98107L47.6651 8.95627L47.7198 8.93243L47.7746 8.90762L47.8298 8.88379L47.886 8.86044L47.9418 8.83709L47.997 8.81422L48.0537 8.79233L48.1113 8.77142L48.1676 8.74856L48.2247 8.72764L48.2824 8.70721L48.3401 8.68678L48.3982 8.66683L48.4563 8.64786L48.515 8.6284L48.5736 8.61041L48.6337 8.59144L48.6923 8.57392L48.7529 8.55641L48.8125 8.53939L48.873 8.52285L48.9341 8.50728L48.9947 8.49074L49.0562 8.47518L49.1173 8.4601L49.1788 8.44648L49.2398 8.43188L49.3019 8.41875L49.3629 8.40562L49.424 8.39248L49.4855 8.38081L49.5471 8.36865L49.6086 8.35794L49.6701 8.34724L49.7312 8.33703L49.7927 8.3273L49.8543 8.31854L49.9158 8.3093L49.9773 8.30152L50.0389 8.29276L50.1004 8.28595L50.1619 8.27865L50.2235 8.27233L50.285 8.26649L50.3461 8.26163L50.4086 8.25579L50.4711 8.25141L50.5326 8.24752L50.5937 8.24412L50.6552 8.2412L50.7172 8.23828L50.7792 8.23682L50.8403 8.23439L50.9018 8.2339L50.9634 8.23342L51.0249 8.23244L51.1955 8.23439L51.3641 8.24023L51.5293 8.2485L51.6936 8.26114L51.8559 8.27768L52.0163 8.29665L52.1738 8.32L52.3303 8.34676L52.4844 8.37692L52.637 8.41048L52.7877 8.44696L52.9364 8.48831L53.0833 8.53258L53.2277 8.58073L53.3706 8.63181L53.5126 8.68726L53.6511 8.74564L53.7888 8.80839L53.9235 8.87406L54.0582 8.94313L54.1895 9.01561L54.3188 9.09198L54.4472 9.17176L54.5732 9.25494L54.6973 9.3425L54.8203 9.43249L54.9415 9.52735L55.0597 9.62415L55.177 9.7263L55.2928 9.8304L55.4057 9.93887L55.5181 10.0512L55.6266 10.1656L55.7318 10.2823L55.8335 10.4015L55.9319 10.5216L56.0273 10.6447L56.1194 10.7687L56.2076 10.8952L56.2924 11.0241L56.3743 11.1545L56.4523 11.2873L56.5274 11.4211L56.5977 11.5577L56.665 11.6959L56.7295 11.836L56.7905 11.979L56.8482 12.123L56.9029 12.2699L56.9538 12.4178L57.0013 12.5681L57.0439 12.7213L57.0846 12.8755L57.1214 13.0312L57.1554 13.1907L57.1859 13.3512L57.2125 13.5132L57.2363 13.6781L57.2547 13.845L57.2717 14.0133L57.2852 14.184L57.2949 14.3582L57.3012 14.5328L57.3041 14.7089L57.3022 14.8937L57.2969 15.0771L57.2886 15.2581L57.2775 15.4366L57.2615 15.6142L57.2436 15.7888L57.2213 15.961L57.1961 16.1317L57.1684 16.3005L57.1355 16.4669L57.1011 16.6313L57.0628 16.7933L57.0197 16.9538L56.9751 17.1114L56.9267 17.2685L56.8748 17.4228L56.8191 17.5755L56.7605 17.7248L56.6989 17.8737L56.634 18.0191L56.5652 18.1631L56.4935 18.3056L56.4184 18.4462L56.3399 18.5834L56.258 18.7196L56.1727 18.8539L56.084 18.9862L55.992 19.1165L55.8965 19.244L55.7982 19.37L55.6959 19.494L55.5903 19.6166L55.4818 19.7363L55.3722 19.8506L55.2593 19.9625L55.144 20.0695L55.0277 20.1741L54.9085 20.2743L54.7874 20.3701L54.6629 20.4625L54.5374 20.5515L54.4099 20.6362L54.2791 20.7169L54.1473 20.7943L54.0116 20.8672L53.8745 20.9382L53.735 21.0034L53.5925 21.0657L53.4491 21.1241L53.3028 21.179L53.1545 21.2301L53.0028 21.2773L52.8497 21.3211L52.6947 21.3605L52.5357 21.3965L52.3753 21.4281L52.2135 21.4573L52.0478 21.4821L51.8806 21.5025L51.711 21.5195L51.539 21.5332L51.3651 21.5419L51.1877 21.5478L51.008 21.5502H50.9406L50.8733 21.5487L50.8054 21.5478L50.7381 21.5468L50.6707 21.5444L50.6043 21.5419L50.537 21.539L50.4711 21.5361L50.4042 21.5312L50.3388 21.5278L50.2739 21.5234L50.2085 21.5176L50.144 21.5127L50.0791 21.5069L50.0146 21.5001L49.9502 21.4933L49.8857 21.4865L49.8232 21.4787L49.7593 21.4699L49.6968 21.4621L49.6333 21.4524L49.5713 21.4441L49.5093 21.4339L49.4463 21.4237L49.3847 21.412L49.3232 21.4009L49.2621 21.3897L49.2025 21.377L49.141 21.3653L49.0809 21.3522L49.0204 21.3386L48.9608 21.325L48.9007 21.3109L48.842 21.2953L48.7839 21.2807L48.7253 21.2656L48.6671 21.2496L48.6095 21.2325L48.5518 21.216L48.4946 21.199L48.4384 21.182L48.3822 21.164L48.327 21.1464L48.2717 21.127L48.216 21.1085L48.1608 21.089L48.1075 21.0686L48.0537 21.0482L47.9994 21.0278L47.9456 21.0064L47.8938 20.9854L47.8405 20.9626L47.7886 20.9412L47.7368 20.9183L47.6854 20.895L47.6346 20.8726L47.5832 20.8487L47.5328 20.8239L47.4839 20.7986L47.434 20.7738L47.385 20.749L47.3356 20.7228L47.2968 20.7018V17.2822L47.3002 17.2846L47.3458 17.3162L47.3923 17.3464L47.4388 17.377L47.4848 17.4057L47.5313 17.4354L47.5774 17.4636L47.6244 17.4909L47.6714 17.5186L47.7174 17.5453L47.7644 17.5706L47.8119 17.5969L47.8594 17.6217ZM64.3683 18.471L64.3431 18.5892L64.3155 18.7035L64.2854 18.8164L64.252 18.9258L64.2186 19.0324L64.1827 19.137L64.144 19.2377L64.1042 19.3364L64.0611 19.4317L64.0165 19.5247L63.97 19.6142L63.9216 19.7022L63.8707 19.7864L63.8183 19.8676L63.7636 19.9474L63.7064 20.0237L63.6478 20.0967L63.5867 20.1682L63.5242 20.2368L63.4588 20.3025L63.3924 20.3657L63.3217 20.4255L63.2495 20.4854L63.1744 20.5418L63.0964 20.5968L63.0164 20.6513L62.9321 20.7023L62.8459 20.7524L62.7557 20.8001L62.6632 20.8458L62.5682 20.8896L62.4708 20.9314L62.37 20.9718L62.2668 21.0102L62.1588 21.0472L62.0498 21.0813L61.9369 21.1134L61.8215 21.144L61.7038 21.1727L61.5827 21.199L61.4586 21.2248L61.3321 21.2471L61.2023 21.2676L61.0695 21.287L60.9338 21.3041L60.7948 21.3182L60.6538 21.3318L60.5104 21.3425L60.3616 21.3517L60.2114 21.3585L60.0597 21.3634L59.9037 21.3663L59.7448 21.3668H59.7205H59.6968H59.6726L59.6483 21.3663H59.6241L59.6004 21.3658L59.5757 21.3653L59.5514 21.3644L59.5262 21.3634L59.502 21.3629L59.4773 21.3624L59.4531 21.3605L59.4284 21.3595L59.4037 21.359L59.3789 21.3571L59.3542 21.3561L59.3286 21.3551L59.3043 21.3532L59.2796 21.3517L59.2539 21.3493L59.2292 21.3483L59.2045 21.3459L59.1783 21.3449L59.1536 21.3425L59.1289 21.3396L59.1027 21.3376L59.078 21.3352L59.0519 21.3328L59.0267 21.3308L59.001 21.3279L58.9734 21.325L58.9244 21.3191L58.8978 21.3162L58.8711 21.3138L58.8445 21.3104L58.8183 21.307L58.7912 21.3041L58.7631 21.3002L58.735 21.2958L58.7069 21.2914L58.6793 21.288L58.6502 21.2841L58.6216 21.2802L58.5916 21.2754L58.5625 21.271L58.5324 21.2666L58.4719 21.2569L58.4414 21.252L58.4099 21.2462L58.3793 21.2418L58.3473 21.236L58.3159 21.2301L58.2839 21.2252L58.2509 21.2189L58.2189 21.2131L58.1855 21.2077L58.1516 21.2014L58.1186 21.1951L58.0852 21.1883L58.0726 21.1854V17.861L58.091 17.8674L58.1162 17.8742L58.1647 17.8878L58.1894 17.8946L58.2136 17.9009L58.2388 17.9058L58.2635 17.9121L58.2877 17.9179L58.3125 17.9223L58.3381 17.9267L58.3629 17.9316L58.389 17.9355L58.4137 17.9389L58.4399 17.9418L58.4646 17.9437L58.4903 17.9457L58.5155 17.9471L58.5407 17.9491H58.6177L58.6429 17.9471L58.6691 17.9462L58.6938 17.9442L58.7142 17.9428L58.7641 17.9423L58.8193 17.9398L58.8736 17.9374L58.9264 17.9335L58.9792 17.9286L59.0306 17.9228L59.0814 17.915L59.1309 17.9063L59.1803 17.8975L59.2282 17.8858L59.2762 17.8742L59.3213 17.861L59.3659 17.8469L59.4104 17.8304L59.4545 17.8134L59.4972 17.7963L59.5388 17.7779L59.5795 17.7574L59.6188 17.7346L59.6576 17.7127L59.6958 17.6888L59.7327 17.6626L59.768 17.6373L59.8024 17.6081L59.8359 17.5804L59.8693 17.5497L59.9003 17.5191L59.9308 17.487L59.9599 17.4534L59.989 17.4189L60.0156 17.3819L60.0413 17.3464L60.0675 17.3065L60.0917 17.2651L60.1155 17.2214L60.1382 17.1761L60.16 17.128L60.1804 17.0793L60.2007 17.0263L60.2206 16.9733L60.2385 16.9169L60.2555 16.859L60.2724 16.7991L60.2889 16.7374L60.3035 16.6727L60.3175 16.606L60.3311 16.5369L60.3442 16.4669L60.3568 16.3939L60.3679 16.3195L60.3786 16.2412L60.3887 16.1624L60.3984 16.0802L60.4062 15.997L60.4144 15.9099L60.4217 15.8228L60.428 15.7319L60.4333 15.6395L60.4386 15.5451L60.4425 15.4478L60.4459 15.3486L60.4493 15.2479L60.4508 15.1433L60.4527 15.0372V8.61527H71.1737V21.1669H66.6389V12.0953H64.5108V16.9888L64.5083 17.1382L64.504 17.2841L64.4972 17.4266L64.4894 17.5672L64.4778 17.7049L64.4657 17.8401L64.4497 17.971L64.4327 18.1004L64.4134 18.2268L64.392 18.3504L64.3683 18.471ZM73.5402 21.1669V8.61527H81.6428V12.0953H78.0732V13.3975H81.2857V16.2383H78.0732V17.6869H81.6428V21.1669H73.5402ZM83.6522 21.1669V8.61527H88.1866V13.5137L91.0095 8.61527H95.9403L91.9723 14.5605L96.0677 21.1669H90.8666L88.1866 15.96V21.1669H83.6522ZM98.881 21.1669V12.0953H96.3826V8.61527H105.914V12.0953H103.415V21.1669H98.881ZM107.328 21.1669V8.61527H113.418L113.56 8.6177L113.7 8.62208L113.837 8.62938L113.971 8.63862L114.104 8.65078L114.235 8.6644L114.363 8.67997L114.489 8.69894L114.614 8.71986L114.735 8.74223L114.854 8.76801L114.972 8.79574L115.088 8.82541L115.2 8.85752L115.311 8.89206L115.419 8.92902L115.526 8.96745L115.631 9.00831L115.733 9.05258L115.833 9.09782L115.931 9.14549L116.026 9.19657L116.119 9.24862L116.211 9.30358L116.3 9.36098L116.388 9.41984L116.473 9.48113L116.555 9.54534L116.637 9.6115L116.715 9.6796L116.793 9.75062L116.867 9.82359L116.94 9.8985L117.01 9.97584L117.078 10.0527L117.144 10.1315L117.207 10.2127L117.268 10.2945L117.328 10.3772L117.384 10.4623L117.438 10.5474L117.49 10.634L117.54 10.723L117.587 10.8125L117.632 10.904L117.674 10.9964L117.715 11.0903L117.752 11.1856L117.789 11.2819L117.822 11.3802L117.854 11.4794L117.882 11.5806L117.909 11.6823L117.933 11.7869L117.956 11.891L117.974 11.9975L117.992 12.106L118.008 12.2154L118.02 12.3258L118.031 12.4382L118.038 12.5515L118.044 12.6673L118.048 12.7836L118.049 12.9013L118.048 13.0229L118.044 13.1401L118.038 13.2574L118.031 13.3731L118.02 13.4884L118.008 13.6008L117.992 13.7117L117.974 13.8211L117.956 13.9301L117.933 14.0366L117.909 14.1422L117.882 14.2453L117.854 14.3475L117.822 14.4482L117.789 14.5474L117.752 14.6457L117.714 14.742L117.674 14.8373L117.632 14.9302L117.587 15.0222L117.539 15.1126L117.49 15.2017L117.438 15.2897L117.384 15.3758L117.328 15.4609L117.268 15.5441L117.207 15.6258L117.144 15.7071L117.078 15.7864L117.01 15.8647L116.94 15.9411L116.867 16.016L116.793 16.0884L116.715 16.1595L116.637 16.2281L116.555 16.2932L116.473 16.3574L116.388 16.4187L116.3 16.4776L116.211 16.535L116.12 16.5895L116.027 16.6415L115.931 16.6907L115.833 16.7383L115.733 16.7841L115.631 16.8269L115.527 16.8677L115.42 16.9062L115.311 16.9426L115.201 16.9767L115.088 17.0078L114.973 17.0365L114.856 17.0638L114.737 17.0876L114.615 17.1109L114.491 17.1309L114.365 17.1484L114.236 17.163L114.106 17.1761L113.973 17.1868L113.837 17.1956L113.701 17.2009L113.561 17.2043L113.418 17.2058H111.862V21.1669H107.328ZM111.862 11.7119V14.1096H112.501L112.536 14.1111L112.573 14.1116L112.61 14.1106L112.646 14.1091L112.681 14.1081L112.716 14.1052L112.752 14.1018L112.786 14.0984L112.818 14.0945L112.852 14.0887L112.885 14.0843L112.916 14.0775L112.948 14.0702L112.979 14.0634L113.009 14.0542L113.039 14.0444L113.069 14.0362L113.097 14.0245L113.127 14.0133L113.154 14.0016L113.181 13.989L113.208 13.9754L113.234 13.9612L113.26 13.9471L113.285 13.9306L113.309 13.9141L113.332 13.897L113.356 13.8795L113.378 13.8615L113.4 13.8421L113.421 13.8216L113.441 13.8012L113.461 13.7808L113.479 13.7594L113.498 13.7375L113.516 13.7151L113.533 13.6918L113.548 13.6679L113.564 13.6446L113.579 13.6198L113.595 13.5954L113.608 13.5706L113.621 13.5439L113.633 13.5176L113.646 13.4918L113.656 13.4646L113.667 13.4369L113.677 13.4077L113.687 13.3795L113.694 13.3512L113.704 13.3216L113.71 13.2914L113.718 13.2617L113.724 13.2311L113.729 13.199L113.735 13.1679L113.739 13.1362L113.742 13.1041L113.746 13.0715L113.749 13.038L113.751 13.0049L113.752 12.9713L113.753 12.9368V12.9013V12.8663L113.752 12.8312L113.751 12.7948L113.749 12.7607L113.745 12.7276L113.742 12.6941L113.739 12.661L113.734 12.6289L113.728 12.5963L113.723 12.5652L113.717 12.534L113.71 12.5039L113.701 12.4732L113.693 12.444L113.684 12.4149L113.674 12.3866L113.663 12.3589L113.653 12.3317L113.642 12.3044L113.629 12.2777L113.615 12.2524L113.602 12.2266L113.588 12.2018L113.572 12.178L113.557 12.1546L113.54 12.1308L113.523 12.1089L113.505 12.0865L113.487 12.0651L113.468 12.0452L113.448 12.0247L113.427 12.0062L113.407 11.9868L113.385 11.9693L113.363 11.9518L113.34 11.9352L113.318 11.9187L113.294 11.9041L113.27 11.8895L113.244 11.8744L113.22 11.8608L113.193 11.8486L113.168 11.836L113.141 11.8248L113.113 11.8122L113.086 11.8019L113.057 11.7917L113.028 11.7835L112.999 11.7742L112.969 11.7664L112.94 11.7586L112.909 11.7513L112.876 11.746L112.845 11.7397L112.814 11.7334L112.78 11.7295L112.747 11.7256L112.714 11.7217L112.68 11.7188L112.644 11.7163L112.61 11.7149L112.575 11.7124H112.538L112.503 11.7119H111.862ZM126.065 21.5502L125.882 21.5473L125.7 21.5405L125.52 21.5307L125.342 21.5176L125.167 21.5006L124.994 21.4816L124.823 21.4578L124.653 21.4305L124.486 21.4004L124.321 21.3663L124.158 21.3289L123.997 21.288L123.838 21.2437L123.682 21.1961L123.527 21.1464L123.374 21.0915L123.224 21.0336L123.075 20.9723L122.928 20.9076L122.783 20.8395L122.641 20.768L122.5 20.6926L122.361 20.6143L122.225 20.5335L122.09 20.4484L121.957 20.3589L121.827 20.267L121.698 20.1711L121.572 20.0724L121.448 19.9698L121.325 19.8642L121.203 19.7543L121.087 19.6419L120.973 19.5281L120.862 19.4108L120.756 19.2912L120.654 19.1686L120.556 19.0445L120.46 18.9166L120.37 18.7872L120.282 18.6549L120.198 18.5197L120.118 18.3815L120.041 18.2414L119.969 18.0999L119.9 17.9539L119.834 17.8065L119.773 17.6558L119.715 17.503L119.661 17.3474L119.61 17.1897L119.563 17.0287L119.521 16.8643L119.481 16.6984L119.446 16.5296L119.414 16.3584L119.386 16.1838L119.362 16.0082L119.341 15.8277L119.324 15.6458L119.311 15.4614L119.302 15.2737L119.296 15.0839L119.294 14.8918L119.296 14.7001L119.302 14.5104L119.311 14.3241L119.324 14.1403L119.341 13.9588L119.362 13.7808L119.386 13.6052L119.414 13.4315L119.446 13.2603L119.481 13.0925L119.521 12.9276L119.563 12.7641L119.61 12.6031L119.661 12.4455L119.715 12.2908L119.773 12.1376L119.834 11.9868L119.9 11.8394L119.969 11.6949L120.041 11.5524L120.118 11.4118L120.198 11.2746L120.282 11.1399L120.37 11.0071L120.46 10.8772L120.556 10.7498L120.654 10.6243L120.757 10.5017L120.862 10.3815L120.974 10.2643L121.087 10.1485L121.204 10.0362L121.325 9.92623L121.448 9.82018L121.572 9.71706L121.699 9.61734L121.827 9.52151L121.957 9.42908L122.09 9.34007L122.225 9.25445L122.362 9.17224L122.501 9.09344L122.641 9.01804L122.784 8.94605L122.928 8.87746L123.075 8.81277L123.224 8.75147L123.374 8.6931L123.527 8.63813L123.682 8.58706L123.839 8.53939L123.998 8.49512L124.158 8.45426L124.322 8.41632L124.486 8.38227L124.653 8.35259L124.823 8.32584L124.994 8.302L125.167 8.28157L125.342 8.26455L125.52 8.25141L125.7 8.2412L125.882 8.23488L126.065 8.23244L126.247 8.23488L126.428 8.2412L126.607 8.25141L126.782 8.26455L126.958 8.28157L127.13 8.302L127.3 8.32584L127.47 8.35259L127.637 8.38227L127.8 8.41632L127.962 8.45426L128.124 8.49512L128.282 8.53939L128.438 8.58706L128.593 8.63813L128.745 8.6931L128.896 8.75147L129.045 8.81277L129.191 8.87746L129.336 8.94605L129.478 9.01804L129.619 9.09344L129.758 9.17224L129.894 9.25445L130.028 9.34007L130.161 9.42908L130.293 9.52151L130.421 9.61734L130.549 9.71706L130.673 9.82018L130.796 9.92623L130.918 10.0366L131.036 10.1485L131.15 10.2643L131.26 10.382L131.367 10.5027L131.47 10.6243L131.569 10.7503L131.665 10.8772L131.756 11.0071L131.845 11.1399L131.928 11.2746L132.009 11.4118L132.085 11.5524L132.159 11.6949L132.228 11.8394L132.293 11.9868L132.356 12.1376L132.414 12.2908L132.469 12.4455L132.518 12.6031L132.565 12.7641L132.609 12.9276L132.647 13.0925L132.684 13.2608L132.716 13.4315L132.743 13.6052L132.769 13.7808L132.789 13.9588L132.806 14.1403L132.819 14.3241L132.829 14.5104L132.834 14.7001L132.836 14.8918L132.834 15.0839L132.829 15.2737L132.819 15.4614L132.806 15.6458L132.789 15.8277L132.769 16.0082L132.743 16.1838L132.716 16.3579L132.684 16.5296L132.647 16.698L132.609 16.8643L132.565 17.0287L132.518 17.1893L132.468 17.3474L132.414 17.5025L132.356 17.6558L132.293 17.8061L132.228 17.9539L132.159 18.0994L132.085 18.2414L132.009 18.3815L131.928 18.5192L131.845 18.6549L131.756 18.7872L131.665 18.9161L131.569 19.0441L131.47 19.1686L131.367 19.2912L131.26 19.4108L131.15 19.5281L131.036 19.6419L130.918 19.7543L130.796 19.8637L130.673 19.9698L130.549 20.0724L130.421 20.1711L130.293 20.267L130.161 20.3589L130.028 20.4484L129.894 20.5335L129.758 20.6143L129.619 20.6926L129.478 20.768L129.336 20.8395L129.192 20.9076L129.045 20.9723L128.896 21.0336L128.745 21.0915L128.593 21.1464L128.439 21.1961L128.282 21.2437L128.124 21.288L127.963 21.3289L127.801 21.3663L127.637 21.4004L127.47 21.4305L127.3 21.4578L127.13 21.4816L126.958 21.5006L126.783 21.5176L126.607 21.5307L126.428 21.5405L126.247 21.5473L126.065 21.5502ZM126.065 17.6869L126.127 17.6864L126.191 17.6849L126.252 17.6806L126.314 17.6757L126.375 17.6694L126.435 17.6616L126.495 17.6519L126.553 17.6416L126.612 17.629L126.67 17.6154L126.728 17.6008L126.785 17.5838L126.842 17.5658L126.897 17.5458L126.953 17.5254L127.007 17.502L127.062 17.4787L127.115 17.4534L127.168 17.4266L127.221 17.3989L127.272 17.3688L127.324 17.3376L127.375 17.306L127.425 17.272L127.474 17.2369L127.522 17.2004L127.57 17.162L127.618 17.1221L127.665 17.0813L127.712 17.0394L127.757 16.9957L127.802 16.9509L127.847 16.9047L127.89 16.8565L127.931 16.8069L127.972 16.7558L128.011 16.7043L128.049 16.6522L128.084 16.5982L128.119 16.5433L128.153 16.4873L128.184 16.4299L128.214 16.3716L128.244 16.3122L128.271 16.2514L128.296 16.1896L128.322 16.1259L128.344 16.0627L128.367 15.998L128.387 15.9308L128.405 15.8642L128.423 15.7961L128.439 15.7256L128.453 15.6555L128.467 15.584L128.479 15.5115L128.49 15.4376L128.498 15.3622L128.506 15.2868L128.512 15.2104L128.517 15.1321L128.521 15.0528L128.522 14.9721L128.523 14.8918L128.522 14.8111L128.521 14.7318L128.517 14.6534L128.512 14.5771L128.506 14.5007L128.498 14.4263L128.49 14.3519L128.479 14.2789L128.467 14.2069L128.453 14.1359L128.439 14.0653L128.423 13.9963L128.405 13.9282L128.387 13.862L128.367 13.7963L128.344 13.7316L128.322 13.6674L128.296 13.6052L128.271 13.5434L128.244 13.4826L128.214 13.4232L128.184 13.3654L128.153 13.3075L128.119 13.251L128.085 13.1956L128.049 13.1426L128.012 13.0891L127.972 13.037L127.932 12.9859L127.89 12.9373L127.848 12.8891L127.803 12.8415L127.757 12.7952L127.712 12.7515L127.665 12.7087L127.619 12.6673L127.572 12.6269L127.523 12.589L127.474 12.5515L127.425 12.516L127.375 12.482L127.324 12.4484L127.273 12.4173L127.221 12.3871L127.169 12.3589L127.116 12.3322L127.062 12.3064L127.007 12.2816L126.953 12.2597L126.897 12.2388L126.843 12.2188L126.785 12.2003L126.728 12.1838L126.671 12.1677L126.612 12.1541L126.554 12.1415L126.495 12.1308L126.435 12.121L126.375 12.1133L126.314 12.1064L126.252 12.1021L126.191 12.0987L126.127 12.0957L126.065 12.0953L126.001 12.0957L125.938 12.0987L125.875 12.1021L125.813 12.1064L125.751 12.1133L125.69 12.121L125.63 12.1308L125.57 12.141L125.51 12.1541L125.451 12.1677L125.394 12.1838L125.336 12.1998L125.278 12.2183L125.223 12.2388L125.167 12.2597L125.111 12.2816L125.057 12.3059L125.004 12.3322L124.95 12.3589L124.898 12.3871L124.845 12.4173L124.794 12.4484L124.744 12.482L124.694 12.516L124.644 12.5515L124.596 12.589L124.548 12.6274L124.501 12.6678L124.453 12.7087L124.408 12.752L124.363 12.7967L124.319 12.8419L124.274 12.8896L124.231 12.9378L124.19 12.9864L124.15 13.0375L124.112 13.0891L124.075 13.1426L124.04 13.197L124.006 13.252L123.973 13.308L123.942 13.3658L123.912 13.4237L123.883 13.4831L123.856 13.5439L123.831 13.6057L123.805 13.6674L123.784 13.7316L123.761 13.7968L123.742 13.8625L123.723 13.9296L123.706 13.9963L123.69 14.0658L123.676 14.1359L123.662 14.2069L123.651 14.2794L123.641 14.3519L123.631 14.4263L123.624 14.5012L123.618 14.5771L123.614 14.6534L123.61 14.7318L123.608 14.8111L123.607 14.8918L123.608 14.9721L123.61 15.0528L123.614 15.1321L123.618 15.2104L123.624 15.2863L123.631 15.3622L123.641 15.4371L123.651 15.5115L123.662 15.584L123.676 15.6555L123.69 15.7256L123.706 15.7956L123.723 15.8642L123.742 15.9304L123.761 15.9975L123.784 16.0627L123.805 16.1259L123.831 16.1896L123.856 16.2514L123.883 16.3107L123.912 16.3711L123.942 16.4294L123.973 16.4873L124.006 16.5428L124.04 16.5977L124.075 16.6522L124.112 16.7043L124.151 16.7558L124.19 16.8064L124.232 16.8551L124.275 16.9032L124.319 16.9504L124.364 16.9952L124.409 17.0389L124.455 17.0813L124.501 17.1221L124.548 17.162L124.596 17.2L124.645 17.2369L124.694 17.272L124.745 17.306L124.794 17.3376L124.846 17.3688L124.899 17.3989L124.95 17.4266L125.004 17.4534L125.057 17.4792L125.111 17.5025L125.167 17.5254L125.223 17.5458L125.279 17.5658L125.336 17.5838L125.394 17.6008L125.451 17.6154L125.511 17.629L125.57 17.6416L125.63 17.6519L125.69 17.6616L125.751 17.6694L125.813 17.6757L125.875 17.6806L125.938 17.6849L126.001 17.6864L126.065 17.6869Z" fill="url(#paint0_linear)"/>
<path fill-rule="evenodd" clip-rule="evenodd" d="M138.243 3.8357H138.809C139.176 3.8357 139.406 3.82063 139.497 3.78998C139.588 3.75885 139.66 3.70485 139.712 3.62848C139.763 3.55211 139.789 3.45774 139.789 3.34294C139.789 3.21452 139.755 3.11188 139.687 3.03308C139.619 2.95428 139.523 2.90466 139.398 2.88326C139.337 2.87499 139.15 2.87061 138.84 2.87061H138.243V3.8357ZM137.477 6.03295V2.22656H139.089C139.494 2.22656 139.787 2.2611 139.971 2.3292C140.155 2.39779 140.302 2.51891 140.413 2.69354C140.523 2.86915 140.578 3.06859 140.578 3.29381C140.578 3.57886 140.494 3.81527 140.327 4.00158C140.16 4.18691 139.909 4.30463 139.577 4.35279C139.743 4.45008 139.879 4.55612 139.987 4.67238C140.095 4.78864 140.24 4.99392 140.423 5.29016L140.886 6.03295H139.971L139.417 5.20406C139.22 4.9083 139.086 4.722 139.014 4.64514C138.941 4.5678 138.864 4.51575 138.783 4.48656C138.702 4.45786 138.574 4.44375 138.397 4.44375H138.243V6.03295H137.477Z" fill="#006AA8"/>
<path fill-rule="evenodd" clip-rule="evenodd" d="M138.967 1.20536C137.358 1.20536 136.053 2.51534 136.053 4.13081C136.053 5.74676 137.358 7.05674 138.967 7.05674C140.576 7.05674 141.881 5.74676 141.881 4.13081C141.881 2.51534 140.576 1.20536 138.967 1.20536ZM138.967 0.634766C140.89 0.634766 142.45 2.20013 142.45 4.13081C142.45 6.06197 140.89 7.62733 138.967 7.62733C137.044 7.62733 135.484 6.06197 135.484 4.13081C135.484 2.20013 137.044 0.634766 138.967 0.634766Z" fill="#0067A3"/>
<defs>
<linearGradient id="paint0_linear" x1="66.7265" y1="8.24717" x2="66.7265" y2="45.3513" gradientUnits="userSpaceOnUse">
<stop stop-color="#006CAC"/>
<stop offset="1" stop-color="#004C75"/>
</linearGradient>
</defs>
</svg>
