<?xml version="1.0" encoding="utf-8"?>
<!-- Generator: Adobe Illustrator 23.0.6, SVG Export Plug-In . SVG Version: 6.00 Build 0)  -->
<svg version="1.1" id="Слой_1" xmlns="http://www.w3.org/2000/svg" xmlns:xlink="http://www.w3.org/1999/xlink" x="0px" y="0px"
	 viewBox="0 0 46 46" style="enable-background:new 0 0 46 46;" xml:space="preserve">
<style type="text/css">
	.st0{fill:#FFFFFF;}
	.st1{fill:#E9EFF2;}
	.st2{fill-rule:evenodd;clip-rule:evenodd;fill:#E9EFF2;}
</style>
<g>
	<circle class="st0" cx="23.4" cy="22.6" r="22"/>
	<path class="st1" d="M23.4,45.1C11,45.1,0.9,35,0.9,22.6C0.9,10.2,11,0.1,23.4,0.1c12.4,0,22.5,10.1,22.5,22.5
		C45.9,35,35.8,45.1,23.4,45.1z M23.4,1.1c-11.9,0-21.5,9.6-21.5,21.5c0,11.9,9.6,21.5,21.5,21.5c11.9,0,21.5-9.6,21.5-21.5
		C44.9,10.8,35.2,1.1,23.4,1.1z"/>
</g>
<g>
	<path class="st0" d="M8.9,8.3h29v29h-29V8.3z"/>
</g>
<g>
	<path class="st2" d="M23.4,22c3.1,0,5.6-2.5,5.6-5.6s-2.5-5.6-5.6-5.6c-3.1,0-5.6,2.5-5.6,5.6S20.3,22,23.4,22z M23.4,23.6
		c3.8,0,7.4,1.6,10,4.3c0.3,0.3,0.4,0.7,0.4,1.1v4.2c0,0.9-0.7,1.6-1.6,1.6H14.5c-0.9,0-1.6-0.7-1.6-1.6V29c0-0.4,0.2-0.8,0.4-1.1
		C15.9,25.2,19.6,23.6,23.4,23.6z M14.5,29v4.2h17.7V29c-2.3-2.4-5.5-3.8-8.9-3.8C20,25.2,16.8,26.6,14.5,29z M27.4,16.4
		c0-2.2-1.8-4-4-4c-2.2,0-4,1.8-4,4s1.8,4,4,4C25.6,20.4,27.4,18.6,27.4,16.4z"/>
</g>
</svg>
