<svg width="25" height="25" viewBox="0 0 25 25" fill="none" xmlns="http://www.w3.org/2000/svg">
<path fill-rule="evenodd" clip-rule="evenodd" d="M12.7409 23.1639C18.6322 23.1639 23.4076 18.3883 23.4076 12.4972C23.4076 9.66829 22.2839 6.95516 20.2832 4.95475C18.2832 2.95435 15.5697 1.83057 12.7409 1.83057C6.84961 1.83057 2.07422 6.6062 2.07422 12.4972C2.07422 18.3883 6.84961 23.1639 12.7409 23.1639ZM13.7409 11.4972H17.8008C18.3535 11.4972 18.8008 11.945 18.8008 12.4972C18.8008 13.0496 18.3535 13.4972 17.8008 13.4972H13.7409V17.5573C13.7409 18.1095 13.293 18.5573 12.7409 18.5573C12.1888 18.5573 11.7409 18.1095 11.7409 17.5573V13.4972H7.68099C7.12891 13.4972 6.68099 13.0496 6.68099 12.4972C6.68099 11.945 7.12891 11.4972 7.68099 11.4972H11.7409V7.43726C11.7409 6.88501 12.1888 6.43726 12.7409 6.43726C13.293 6.43726 13.7409 6.88501 13.7409 7.43726V11.4972Z" fill="#4D4D4D"/>
</svg>
