<svg width="22" height="21" viewBox="0 0 22 21" fill="none" xmlns="http://www.w3.org/2000/svg">
<path d="M20.3294 7.19104H19.5466L16.0418 0.354528C15.875 0.0292382 15.4849 -0.094523 15.1703 0.0777651C14.8558 0.250231 14.736 0.653733 14.9028 0.979023L18.0874 7.19095H4.00611L7.19079 0.979023C7.35755 0.653733 7.23776 0.250231 6.92322 0.0777651C6.60874 -0.0946564 6.21854 0.0292382 6.05177 0.354528L2.54698 7.19104H1.67067C0.749462 7.19104 0 7.96614 0 8.91885C0 9.87157 0.749462 10.6467 1.67067 10.6467H1.71703C1.71845 10.6562 1.71953 10.6657 1.72116 10.6752L3.0654 18.4704C3.31818 19.9361 4.54653 21 5.98616 21H16.1073C17.5469 21 18.7753 19.9361 19.0281 18.4704L20.3723 10.6752C20.374 10.6653 20.3752 10.6554 20.3766 10.6455C21.276 10.6194 22 9.85517 22 8.91885C22 7.96609 21.2506 7.19104 20.3294 7.19104ZM17.759 18.2363C17.6161 19.0652 16.9214 19.6668 16.1073 19.6668H5.9862C5.17212 19.6668 4.47752 19.0652 4.33457 18.2363L3.02582 10.6467H19.0678L17.759 18.2363ZM20.3294 9.31338H1.67067C1.4603 9.31338 1.28919 9.13643 1.28919 8.91885C1.28919 8.70128 1.4603 8.52428 1.67067 8.52428H20.3294C20.5397 8.52428 20.7108 8.70124 20.7108 8.91885C20.7108 9.13643 20.5397 9.31338 20.3294 9.31338Z" fill="#111111"/>
</svg>
