<svg width="24" height="24" viewBox="0 0 24 24" fill="none" xmlns="http://www.w3.org/2000/svg">
<path d="M21.3294 9.19104H20.5466L17.0418 2.35453C16.875 2.02924 16.4849 1.90548 16.1703 2.07777C15.8558 2.25023 15.736 2.65373 15.9028 2.97902L19.0874 9.19095H5.00611L8.19079 2.97902C8.35755 2.65373 8.23776 2.25023 7.92322 2.07777C7.60874 1.90534 7.21854 2.02924 7.05177 2.35453L3.54698 9.19104H2.67067C1.74946 9.19104 1 9.96614 1 10.9189C1 11.8716 1.74946 12.6467 2.67067 12.6467H2.71703C2.71845 12.6562 2.71953 12.6657 2.72116 12.6752L4.0654 20.4704C4.31818 21.9361 5.54653 23 6.98616 23H17.1073C18.5469 23 19.7753 21.9361 20.0281 20.4704L21.3723 12.6752C21.374 12.6653 21.3752 12.6554 21.3766 12.6455C22.276 12.6194 23 11.8552 23 10.9189C23 9.96609 22.2506 9.19104 21.3294 9.19104ZM18.759 20.2363C18.6161 21.0652 17.9214 21.6668 17.1073 21.6668H6.9862C6.17212 21.6668 5.47752 21.0652 5.33457 20.2363L4.02582 12.6467H20.0678L18.759 20.2363ZM21.3294 11.3134H2.67067C2.4603 11.3134 2.28919 11.1364 2.28919 10.9189C2.28919 10.7013 2.4603 10.5243 2.67067 10.5243H21.3294C21.5397 10.5243 21.7108 10.7012 21.7108 10.9189C21.7108 11.1364 21.5397 11.3134 21.3294 11.3134Z" fill="#111111"/>
<path d="M11.9727 13.5713C11.6167 13.5713 11.3281 13.8698 11.3281 14.2379V20.075C11.3281 20.4431 11.6167 20.7416 11.9727 20.7416C12.3287 20.7416 12.6173 20.4431 12.6173 20.075V14.2379C12.6173 13.8697 12.3287 13.5713 11.9727 13.5713Z" fill="#111111"/>
<path d="M9.77004 19.9644L8.81939 14.1273C8.76031 13.7642 8.42739 13.5195 8.07668 13.5807C7.72562 13.6418 7.48899 13.9857 7.54812 14.3488L8.4988 20.1858C8.55183 20.5114 8.82472 20.7418 9.13362 20.7418C9.1692 20.7418 9.20525 20.7388 9.24143 20.7325C9.59253 20.6714 9.82916 20.3275 9.77004 19.9644Z" fill="#111111"/>
<path d="M15.8196 13.5806C15.4689 13.5197 15.1361 13.7642 15.0769 14.1273L14.1262 19.9643C14.0671 20.3273 14.3038 20.6712 14.6548 20.7324C14.6911 20.7387 14.7271 20.7418 14.7626 20.7418C15.0716 20.7418 15.3445 20.5113 15.3975 20.1857L16.3481 14.3487C16.4073 13.9856 16.1706 13.6417 15.8196 13.5806Z" fill="#111111"/>
</svg>
