<svg width="13" height="12" viewBox="0 0 13 12" fill="none" xmlns="http://www.w3.org/2000/svg">
<path fill-rule="evenodd" clip-rule="evenodd" d="M6.50043 0.323242C3.31545 0.323242 0.722656 2.59103 0.722656 5.3788C0.722656 8.16656 3.31545 10.4344 6.50043 10.4344C7.09632 10.4337 7.6893 10.351 8.26266 10.1888L10.2596 11.4599C10.3707 11.5312 10.5117 11.5362 10.6275 11.473C10.7434 11.4098 10.8155 11.2885 10.8157 11.1566V8.72631C11.7285 7.85064 12.2493 6.64366 12.2601 5.3788C12.2782 2.59103 9.68541 0.323242 6.50043 0.323242ZM8.92709 3.93435C9.12656 3.93435 9.2882 3.77269 9.2882 3.57324C9.2882 3.3738 9.12656 3.21213 8.92709 3.21213H4.07378C3.87436 3.21213 3.71267 3.3738 3.71267 3.57324C3.71267 3.77269 3.87436 3.93435 4.07378 3.93435H8.92709ZM5.14627 6.82324C4.94685 6.82324 4.78516 6.98491 4.78516 7.18435C4.78516 7.3838 4.94685 7.54546 5.14627 7.54546H7.8546C8.05402 7.54546 8.21571 7.3838 8.21571 7.18435C8.21571 6.98491 8.05402 6.82324 7.8546 6.82324H5.14627ZM3.97266 5.01769H9.02821C9.22763 5.01769 9.38932 5.17935 9.38932 5.3788C9.38932 5.57824 9.22763 5.73991 9.02821 5.73991H3.97266C3.77323 5.73991 3.61155 5.57824 3.61155 5.3788C3.61155 5.17935 3.77323 5.01769 3.97266 5.01769ZM10.1007 8.57103C10.1011 8.47092 10.1429 8.37546 10.2163 8.3074C11.0533 7.56195 11.5393 6.49956 11.556 5.3788C11.556 2.98824 9.2882 1.04546 6.50043 1.04546C3.71267 1.04546 1.44488 2.98824 1.44488 5.3788C1.44488 7.76935 3.71267 9.71213 6.50043 9.71213C7.08323 9.71266 7.66276 9.62498 8.21933 9.45214C8.32023 9.42089 8.42977 9.43541 8.51903 9.49186L10.1007 10.4994V8.57103Z" fill="#1CA4E4"/>
</svg>
