<svg width="24" height="24" viewBox="0 0 24 24" fill="none" xmlns="http://www.w3.org/2000/svg">
<path d="M3.75 19.5V21C3.75 21.8284 4.42157 22.5 5.25 22.5C6.07843 22.5 6.75 21.8284 6.75 21V19.5" stroke="white" stroke-width="1.5" stroke-linecap="round" stroke-linejoin="round"/>
<path d="M20.25 19.5V21C20.25 21.8284 19.5784 22.5 18.75 22.5C17.9216 22.5 17.25 21.8284 17.25 21V19.5" stroke="white" stroke-width="1.5" stroke-linecap="round" stroke-linejoin="round"/>
<path fill-rule="evenodd" clip-rule="evenodd" d="M5.461 1.5H18.539C19.0697 1.5 19.5 1.93025 19.5 2.461V19.5H4.5V2.461C4.5 1.93025 4.93025 1.5 5.461 1.5Z" stroke="white" stroke-width="1.5" stroke-linecap="round" stroke-linejoin="round"/>
<path d="M4.5 4.5H19.5" stroke="white" stroke-width="1.5" stroke-linecap="round" stroke-linejoin="round"/>
<path d="M4.5 7.5H19.5" stroke="white" stroke-width="1.5" stroke-linecap="round" stroke-linejoin="round"/>
<path fill-rule="evenodd" clip-rule="evenodd" d="M12 15H8.25C7.83579 15 7.5 15.3358 7.5 15.75V18.75C7.5 19.1642 7.83579 19.5 8.25 19.5H12V15Z" stroke="white" stroke-width="1.5" stroke-linecap="round" stroke-linejoin="round"/>
<path fill-rule="evenodd" clip-rule="evenodd" d="M9.75 11.25C9.75 10.8358 10.0858 10.5 10.5 10.5H13.5C13.9142 10.5 14.25 10.8358 14.25 11.25V14.25C14.25 14.6642 13.9142 15 13.5 15H10.5C10.0858 15 9.75 14.6642 9.75 14.25V11.25Z" stroke="white" stroke-width="1.5" stroke-linecap="round" stroke-linejoin="round"/>
<path fill-rule="evenodd" clip-rule="evenodd" d="M12 15H15.75C16.1642 15 16.5 15.3358 16.5 15.75V18.75C16.5 19.1642 16.1642 19.5 15.75 19.5H12V15Z" stroke="white" stroke-width="1.5" stroke-linecap="round" stroke-linejoin="round"/>
<path d="M2.25 19.5H21.75" stroke="white" stroke-width="1.5" stroke-linecap="round" stroke-linejoin="round"/>
<path d="M2.25 9.75H1.5C1.08579 9.75 0.75 9.41421 0.75 9V6.75C0.75 6.33579 1.08579 6 1.5 6H4.5" stroke="white" stroke-width="1.5" stroke-linecap="round" stroke-linejoin="round"/>
<path d="M21.75 9.75H22.5C22.9142 9.75 23.25 9.41421 23.25 9V6.75C23.25 6.33579 22.9142 6 22.5 6H19.5" stroke="white" stroke-width="1.5" stroke-linecap="round" stroke-linejoin="round"/>
</svg>
