<svg width="22" height="20" viewBox="0 0 22 20" fill="none" xmlns="http://www.w3.org/2000/svg">
<path fill-rule="evenodd" clip-rule="evenodd" d="M10.5942 19.4801C10.7106 19.5704 10.8536 19.6197 11.0009 19.6201C11.1482 19.6197 11.2912 19.5704 11.4075 19.4801C15.1143 16.6001 17.6676 14.1201 19.4542 11.6735C21.7342 8.54679 22.2542 5.66011 21.0009 3.09346C20.1076 1.26013 17.5343 -0.226525 14.5408 0.633461C13.1105 1.04663 11.8625 1.93266 11.0009 3.14681C10.1392 1.93266 8.89127 1.04663 7.46085 0.633461C4.46085 -0.239871 1.8942 1.26013 1.00089 3.09346C-0.25245 5.66011 0.26757 8.54679 2.54752 11.6735C4.33422 14.1201 6.88752 16.6001 10.5942 19.4801ZM2.20084 3.67346C2.93253 2.41496 4.29955 1.66349 5.75414 1.72009C6.2054 1.72249 6.65413 1.7876 7.08748 1.91345C8.53417 2.3348 9.73225 3.35343 10.3809 4.71346C10.4836 4.96354 10.7271 5.12679 10.9976 5.12679C11.2679 5.12679 11.5115 4.96354 11.6142 4.71346C12.2676 3.35713 13.4638 2.34013 14.9075 1.91345C17.1342 1.28678 19.1342 2.34676 19.8009 3.68009C20.8341 5.79345 20.3742 8.15344 18.3742 10.8868C16.2554 13.6168 13.7748 16.0458 11.0009 18.1068C8.22647 16.0437 5.74592 13.6125 3.62751 10.8801C1.63419 8.15344 1.16747 5.79345 2.20084 3.67346Z" fill="#111111" stroke="#111111" stroke-width="0.3"/>
</svg>
