<svg width="20" height="20" viewBox="0 0 20 20" fill="none" xmlns="http://www.w3.org/2000/svg">
<path fill-rule="evenodd" clip-rule="evenodd" d="M7.97179 0.222656C3.58419 0.222656 0.0273438 3.77951 0.0273438 8.1671C0.0273438 12.5547 3.58419 16.1115 7.97179 16.1115C9.94775 16.1115 11.7467 15.3975 13.1366 14.2037C13.326 13.846 13.599 13.5493 14.0007 13.3383C15.1896 11.9496 15.9162 10.1385 15.9162 8.1671C15.9162 3.77951 12.3594 0.222656 7.97179 0.222656ZM7.97179 1.47546C10.6789 1.473 13.1208 3.10179 14.1584 5.60211C15.1961 8.10242 14.6251 10.9816 12.7118 12.8967C10.7985 14.8117 7.91978 15.3854 5.41852 14.35C2.91727 13.3146 1.28623 10.8742 1.28623 8.1671C1.30293 4.48074 4.28542 1.49553 7.97179 1.47546ZM14.0007 13.3383L19.3812 18.7332C19.5352 18.8883 19.5947 19.1136 19.5374 19.3244C19.4801 19.5352 19.3147 19.6994 19.1035 19.7552C18.8923 19.811 18.6674 19.7499 18.5135 19.5948L13.1366 14.2037C13.5372 13.8625 13.6942 13.6714 14.0007 13.3383Z" fill="white"/>
<path d="M13.1366 14.2037C13.326 13.846 13.599 13.5493 14.0007 13.3383C13.6942 13.6714 13.5372 13.8625 13.1366 14.2037Z" fill="white"/>
</svg>
