<svg width="16" height="16" viewBox="0 0 16 16" fill="none" xmlns="http://www.w3.org/2000/svg">
<path fill-rule="evenodd" clip-rule="evenodd" d="M12.4938 11.1747L12.4947 11.1752C12.8212 11.3556 13.0429 11.7002 13.0429 12.0697V12.7736C13.0429 12.8469 13.0179 12.9161 12.9665 12.9672C12.9152 13.0182 12.8459 13.0429 12.7727 13.0429H3.22727C3.15407 13.0429 3.08479 13.0182 3.03348 12.9672C2.98213 12.9161 2.9571 12.8469 2.9571 12.7736V12.0697C2.9571 11.6893 3.15788 11.3397 3.50919 11.1731C4.41687 10.6945 5.13703 10.4056 5.78143 10.2738C5.76932 10.2483 5.76357 10.2232 5.76046 10.2047C5.75487 10.1713 5.75488 10.1395 5.75489 10.1232L5.75489 10.1086L5.90054 9.52916C5.49784 8.94576 5.26117 8.22487 5.26117 7.5353V6.98612H4.87305C4.79985 6.98612 4.73057 6.96141 4.67926 6.91037C4.6279 6.85929 4.60287 6.7901 4.60287 6.71682C4.60287 6.64355 4.6279 6.57435 4.67926 6.52327C4.73057 6.47224 4.79985 6.44752 4.87305 6.44752H4.93201V6.38945C4.93201 5.07219 5.788 3.9533 7.07331 3.55974C7.09772 3.24378 7.36687 3.0099 7.67085 3.0099H8.32916C8.65223 3.0099 8.90267 3.26131 8.92661 3.55973C10.212 3.95327 11.068 5.07219 11.068 6.38947V6.44754H11.1269C11.2001 6.44754 11.2694 6.47226 11.3207 6.52329C11.3721 6.57437 11.3971 6.64357 11.3971 6.71684C11.3971 6.79012 11.3721 6.85931 11.3207 6.91039C11.2694 6.96143 11.2001 6.98614 11.1269 6.98614H10.7388V7.53532C10.7388 8.22489 10.5022 8.94578 10.0995 9.52916L10.2411 10.0926C10.2617 10.1584 10.2505 10.2227 10.2214 10.2744C10.8656 10.4065 11.5856 10.6956 12.4928 11.1742L12.4938 11.1747ZM9.6671 10.0386L9.68036 10.098L9.54749 10.2795C9.53388 10.292 9.52124 10.3064 9.50994 10.3229L8.82663 11.264L8.82638 11.2643L8.71685 11.4139L8.4038 10.7133C8.88426 10.6232 9.3132 10.3768 9.6671 10.0386ZM7.13139 5.20072C7.15753 5.28888 7.12925 5.40205 7.03802 5.46255L7.02628 5.47033L7.01291 5.47477C7.00682 5.47679 7.00009 5.47924 6.99274 5.4819C6.9572 5.49481 6.90741 5.51289 6.84799 5.51289H6.8048L5.73288 5.30245C5.56478 5.62965 5.47239 5.99893 5.47239 6.38943L5.47239 6.44752H10.5276V6.38945C10.5276 5.99396 10.4329 5.6202 10.2607 5.2899L9.19588 5.51289H9.15202C9.11508 5.51289 9.07959 5.50665 9.04555 5.4916C9.01195 5.47674 8.98506 5.45564 8.96234 5.43305C8.92886 5.39975 8.90977 5.35702 8.89889 5.32185C8.88756 5.28522 8.88184 5.24606 8.88184 5.21085V5.20005L9.0885 4.19963C9.03629 4.17636 8.98293 4.15466 8.92847 4.13459V4.42507C8.92847 4.49835 8.90344 4.56754 8.85208 4.61863C8.80078 4.66966 8.73149 4.69437 8.65829 4.69437C8.58509 4.69437 8.51581 4.66966 8.4645 4.61863C8.41314 4.56754 8.38811 4.49835 8.38811 4.42507V3.60659C8.38811 3.58875 8.3812 3.5753 8.37045 3.56532C8.35862 3.55434 8.34297 3.54852 8.32916 3.54852H7.67085C7.63665 3.54852 7.61189 3.57664 7.61189 3.60659V4.42509C7.61189 4.49837 7.58686 4.56756 7.5355 4.61865C7.48419 4.66968 7.41491 4.69439 7.34171 4.69439C7.26851 4.69439 7.19923 4.66968 7.14792 4.61865C7.09656 4.56756 7.07153 4.49837 7.07153 4.42509V4.13462C7.02124 4.15318 6.97189 4.17312 6.92351 4.1944L7.13139 5.20072ZM8.08838 10.2095C8.49709 10.1838 8.92775 9.98139 9.29477 9.64174C9.38184 9.55553 9.46548 9.45969 9.54498 9.35424L9.5495 9.34824L9.62186 9.27627L9.62394 9.27558C9.96944 8.81401 10.1985 8.21187 10.1985 7.53532V6.98614H5.80154L5.80152 7.53532C5.80152 8.21185 6.03054 8.81399 6.37604 9.27558L6.37812 9.27627L6.39983 9.29786L6.39992 9.29796L6.40407 9.30208L6.40417 9.30218L6.43483 9.33268L6.43493 9.33278L6.4493 9.34707L6.45297 9.35163C6.67044 9.62202 6.91255 9.83336 7.16721 9.97898C7.41222 10.1151 7.66733 10.1946 7.9142 10.2097C7.94182 10.2005 7.97064 10.1962 8 10.1962C8.02938 10.1962 8.05944 10.2005 8.08838 10.2095ZM6.46483 10.2963C6.46917 10.3002 6.47365 10.3044 6.47809 10.3088L6.4841 10.3148L7.17337 11.264L7.17362 11.2644L7.28315 11.414L7.5962 10.7134C7.11574 10.6232 6.68681 10.3769 6.33288 10.0387L6.31964 10.098L6.46483 10.2963ZM3.75276 11.6562L3.75159 11.6568C3.59122 11.7366 3.49747 11.8956 3.49747 12.0697V12.5043H6.95242L7.05088 12.0146L6.1332 10.7595C5.49411 10.8493 4.76621 11.1207 3.75391 11.6556L3.75276 11.6562ZM7.99803 11.1585L7.99774 11.1592L7.7667 11.6858H8.24493L8.15086 11.4753L8.1505 11.4745L8.00202 11.1496L7.99803 11.1585ZM7.56643 12.2244L7.51016 12.5043H8.48511L8.43152 12.2244H7.56643ZM9.584 4.49496C9.70835 4.59334 9.82471 4.70076 9.9271 4.81397L9.50136 4.89682L9.584 4.49496ZM6.49866 4.89682L6.41602 4.49496C6.29167 4.59334 6.1753 4.70076 6.07292 4.81397L6.49866 4.89682ZM9.04762 12.5043H12.5025V12.0697C12.5025 11.8974 12.41 11.7354 12.2445 11.6384C11.2559 11.1235 10.5156 10.8522 9.8764 10.7465L8.94916 12.0146L9.04762 12.5043Z" fill="#1CA4E4"/>
<path fill-rule="evenodd" clip-rule="evenodd" d="M16 8C16 12.4183 12.4183 16 8 16C3.58172 16 0 12.4183 0 8C0 3.58172 3.58172 0 8 0C12.4183 0 16 3.58172 16 8ZM15.3846 8C15.3846 12.0784 12.0784 15.3846 8 15.3846C3.92159 15.3846 0.615385 12.0784 0.615385 8C0.615385 3.92159 3.92159 0.615385 8 0.615385C12.0784 0.615385 15.3846 3.92159 15.3846 8Z" fill="#1CA4E4"/>
</svg>
