<svg width="25" height="24" viewBox="0 0 25 24" fill="none" xmlns="http://www.w3.org/2000/svg">
<path fill-rule="evenodd" clip-rule="evenodd" d="M17.9479 11.6796L19.4889 15.7496H22.4889C22.7989 15.7375 23.0832 15.9213 23.1993 16.2089C23.3154 16.4966 23.2385 16.8262 23.0069 17.0326L20.4069 18.8486L21.8489 22.1616C21.9781 22.4728 21.8946 22.8316 21.6414 23.0538C21.3883 23.2759 21.0216 23.3121 20.7299 23.1436L17.2409 21.1826L13.7539 23.1436C13.4622 23.3121 13.0956 23.2759 12.8424 23.0538C12.5892 22.8316 12.5058 22.4728 12.6349 22.1616L14.0779 18.8486L11.4779 17.0326C11.2457 16.827 11.1678 16.4976 11.2833 16.2097C11.3989 15.9218 11.683 15.7376 11.9929 15.7496H14.9929L16.5369 11.6796C16.6761 11.4194 16.9473 11.2568 17.2424 11.2568C17.5376 11.2568 17.8088 11.4194 17.9479 11.6796V11.6796Z" stroke="white" stroke-width="1.5" stroke-linecap="round" stroke-linejoin="round"/>
<path d="M8.25089 20.25H2.25089C1.85008 20.26 1.46272 20.1052 1.17923 19.8217C0.895729 19.5382 0.740902 19.1508 0.750885 18.75V3.857C0.72222 2.99936 1.3933 2.2804 2.25089 2.25H17.2509C18.1085 2.2804 18.7795 2.99936 18.7509 3.857V8.25" stroke="white" stroke-width="1.5" stroke-linecap="round" stroke-linejoin="round"/>
<path d="M5.25 0.75V5.25" stroke="white" stroke-width="1.5" stroke-linecap="round" stroke-linejoin="round"/>
<path d="M9.75 0.75V5.25" stroke="white" stroke-width="1.5" stroke-linecap="round" stroke-linejoin="round"/>
<path d="M14.25 0.75V5.25" stroke="white" stroke-width="1.5" stroke-linecap="round" stroke-linejoin="round"/>
</svg>
