<svg width="22" height="24" viewBox="0 0 22 24" fill="none" xmlns="http://www.w3.org/2000/svg">
<path d="M1.85547 4.93677C4.00115 2.27722 7.23915 0.736859 10.6563 0.750084C14.0735 0.76331 17.2994 2.32869 19.4245 5.00477" stroke="white" stroke-width="1.5" stroke-linecap="round" stroke-linejoin="round"/>
<path d="M2.36328 15.75V8.25L5.36328 15.75V8.25" stroke="white" stroke-width="1.5" stroke-linecap="round" stroke-linejoin="round"/>
<path d="M11.3633 15.75H9.86328C9.03485 15.75 8.36328 15.0784 8.36328 14.25V9.75C8.36328 8.92157 9.03485 8.25 9.86328 8.25H11.3633" stroke="white" stroke-width="1.5" stroke-linecap="round" stroke-linejoin="round"/>
<path d="M8.36328 12.75H11.3633" stroke="white" stroke-width="1.5" stroke-linecap="round" stroke-linejoin="round"/>
<path d="M14.3633 8.25V10.267C14.3634 11.4118 14.582 12.5461 15.0073 13.609L15.8633 15.75L17.3633 10.5L18.8633 15.75L19.7203 13.609C20.1452 12.546 20.3634 11.4118 20.3633 10.267V8.25" stroke="white" stroke-width="1.5" stroke-linecap="round" stroke-linejoin="round"/>
<path d="M1.63672 18.75C3.75326 21.5785 7.07777 23.2456 10.6105 23.2502C14.1432 23.2547 17.4719 21.596 19.5957 18.773" stroke="white" stroke-width="1.5" stroke-linecap="round" stroke-linejoin="round"/>
</svg>
