<svg width="22" height="22" viewBox="0 0 22 22" fill="none" xmlns="http://www.w3.org/2000/svg">
<path fill-rule="evenodd" clip-rule="evenodd" d="M20.6188 4.56674L11.9522 0.426743C11.769 0.338221 11.5553 0.338221 11.3722 0.426743L1.37224 5.2534C1.14063 5.36367 0.992843 5.59697 0.992192 5.8534V16.8867C0.991215 17.1527 1.14844 17.3937 1.39226 17.5001L10.0589 21.6267C10.242 21.7152 10.4557 21.7152 10.6388 21.6267L20.6388 16.8001C20.8704 16.6898 21.0181 16.4565 21.0189 16.2001V5.16673C21.0145 4.90566 20.8582 4.67115 20.6188 4.56674ZM11.6655 1.76673L18.9522 5.24673L15.5855 6.8734L8.47217 3.30673L11.6655 1.76673ZM2.99886 5.94007L10.3322 9.42672L14.0656 7.60673L6.93213 4.04006L2.99886 5.94007ZM2.3322 7.08674L9.66553 10.6001V19.9734L2.3322 16.4667V7.08674ZM10.9989 10.5734V19.9667L19.6655 15.7801V6.38007L10.9989 10.5734Z" fill="#111111"/>
</svg>
