<svg width="24" height="24" viewBox="0 0 24 24" fill="none" xmlns="http://www.w3.org/2000/svg">
<path fill-rule="evenodd" clip-rule="evenodd" d="M19.5 7.5C19.491 9.855 20.64 11.194 23.25 11.25C20.827 11.241 19.623 12.541 19.5 15C19.479 12.68 18.44 11.247 15.75 11.25C18.157 11.216 19.491 10.055 19.5 7.5Z" stroke="white" stroke-width="1.5" stroke-linecap="round" stroke-linejoin="round"/>
<path fill-rule="evenodd" clip-rule="evenodd" d="M11.283 0.75C11.27 4.068 12.888 5.95 16.565 6.033C13.152 6.02 11.456 7.851 11.283 11.315C11.254 8.047 9.789 6.028 6 6.033C9.39 5.985 11.27 4.349 11.283 0.75Z" stroke="white" stroke-width="1.5" stroke-linecap="round" stroke-linejoin="round"/>
<path d="M0.75 19.7275V22.0755C0.751649 22.7232 1.2763 23.2479 1.924 23.2495H4.272" stroke="white" stroke-width="1.5" stroke-linecap="round" stroke-linejoin="round"/>
<path d="M4.272 0.75H1.924C1.2763 0.751649 0.751649 1.2763 0.75 1.924V4.272" stroke="white" stroke-width="1.5" stroke-linecap="round" stroke-linejoin="round"/>
<path d="M23.2486 4.272V1.924C23.2469 1.2763 22.7223 0.751649 22.0746 0.75H19.7266" stroke="white" stroke-width="1.5" stroke-linecap="round" stroke-linejoin="round"/>
<path d="M19.7266 23.2495H22.0746C22.7223 23.2479 23.2469 22.7232 23.2486 22.0755V19.7275" stroke="white" stroke-width="1.5" stroke-linecap="round" stroke-linejoin="round"/>
<path d="M16.6 17.3638C14.7792 19.8221 11.5922 20.8437 8.68147 19.9021C5.77074 18.9605 3.78599 16.2658 3.75001 13.2068C3.74723 11.8148 4.16173 10.4539 4.94001 9.2998" stroke="white" stroke-width="1.5" stroke-linecap="round" stroke-linejoin="round"/>
</svg>
